<svg width="182" height="182" viewBox="0 0 182 182" fill="none" xmlns="http://www.w3.org/2000/svg">
<path d="M67.3057 3.58936C79.6192 0.289962 92.2287 4.73883 100.755 13.7007C111.307 7.24261 124.646 6.21897 135.682 12.5903H135.681C146.725 18.9602 152.497 31.0195 152.182 43.3921C164.207 46.2944 174.366 54.9908 177.666 67.3052C180.965 79.6173 176.526 92.2325 167.554 100.755C174.012 111.307 175.035 124.646 168.664 135.681L168.663 135.68C162.293 146.724 150.234 152.497 137.861 152.181C134.959 164.206 126.263 174.366 113.949 177.666C101.637 180.964 89.0209 176.526 80.498 167.553C69.9461 174.011 56.6082 175.035 45.5732 168.664V168.663C34.5295 162.293 28.7554 150.233 29.0713 137.861C17.0469 134.958 6.88924 126.262 3.58984 113.949C0.290407 101.635 4.73894 89.0246 13.7012 80.4985C7.34891 70.1187 6.25473 57.0426 12.2852 46.1147L12.5908 45.5728C18.9608 34.5291 31.0202 28.7553 43.3926 29.0708C46.2954 17.0465 54.992 6.88883 67.3057 3.58936Z" fill="#101213" stroke="white" stroke-width="5"/>
<path d="M37.0833 100.789C37.4717 100.647 37.7861 100.653 38.0265 100.807C38.2624 100.948 38.4213 101.132 38.5034 101.357C38.6174 101.67 38.5816 102.06 38.3961 102.524C38.2106 102.989 37.9219 103.463 37.5302 103.946C37.1464 104.412 36.7069 104.842 36.2115 105.235C35.716 105.628 35.2115 105.918 34.6978 106.105C33.9335 106.383 33.1253 106.443 32.2732 106.285C31.429 106.11 30.6486 105.72 29.9319 105.116C29.2277 104.506 28.6841 103.675 28.301 102.623C27.9864 101.759 27.8369 100.841 27.8525 99.8704C27.8807 98.8953 28.0268 97.9127 28.2908 96.9227C28.5673 95.9282 28.9145 94.9718 29.3323 94.0535C29.7626 93.1307 30.2249 92.2955 30.719 91.5481C31.2257 90.7961 31.7171 90.1774 32.1931 89.692C32.6646 89.1941 33.0757 88.8813 33.4265 88.7536C33.865 88.594 34.2318 88.5882 34.5269 88.7362C34.83 88.8671 35.0522 89.1267 35.1935 89.5151C35.3076 89.8284 35.3338 90.0955 35.2724 90.3165C35.2189 90.5204 35.0897 90.7306 34.8847 90.9471C34.2333 91.6525 33.6013 92.45 32.9887 93.3399C32.3887 94.2252 31.8803 95.148 31.4637 96.1085C31.0425 97.0564 30.7665 97.994 30.6358 98.9213C30.505 99.8486 30.5856 100.713 30.8775 101.515C31.1967 102.392 31.6138 102.992 32.1288 103.316C32.6438 103.639 33.2019 103.691 33.8034 103.472C34.1041 103.363 34.407 103.182 34.7122 102.929C35.0129 102.663 35.3004 102.381 35.5749 102.083C35.8619 101.78 36.1329 101.511 36.388 101.276C36.6511 101.024 36.8828 100.862 37.0833 100.789ZM56.2419 98.7107C55.7533 98.8886 55.3483 98.887 55.027 98.706C54.7103 98.5375 54.4128 98.0711 54.1346 97.3068C53.8975 96.6553 53.6962 95.7708 53.5307 94.6533C53.3652 93.5359 53.1951 92.3279 53.0204 91.0293C52.1951 93.0891 50.9517 94.6626 49.29 95.7499C49.2002 96.6339 49.0251 97.478 48.7644 98.2823C48.5038 99.0867 48.156 99.7879 47.721 100.386C47.294 100.967 46.7736 101.369 46.1596 101.593C45.3953 101.871 44.6464 101.86 43.9127 101.559C43.1915 101.254 42.6417 100.582 42.2632 99.5419C42.0078 98.8402 41.8977 98.2063 41.9328 97.6402C41.9634 97.0615 42.0709 96.5967 42.2553 96.2458C41.8565 95.8517 41.5454 95.3478 41.3219 94.7338C41.021 93.9069 40.9797 93.0919 41.1982 92.2887C41.4167 91.4855 41.8294 90.7678 42.4364 90.1353C43.0559 89.4984 43.8042 89.0203 44.6812 88.7011C45.1698 88.5232 45.679 88.4798 46.2088 88.5708C46.7465 88.6446 47.2443 88.882 47.7024 89.2829C48.1684 89.6666 48.5382 90.2344 48.8118 90.9861C49.0399 91.6126 49.1967 92.3359 49.2824 93.156C49.9804 92.306 50.5953 91.2664 51.1269 90.0371C51.671 88.8032 52.0802 87.4908 52.3543 86.0999C52.4441 85.684 52.6833 85.4054 53.0717 85.2641C53.3975 85.1455 53.6908 85.1523 53.9517 85.2843C54.2206 85.3993 54.412 85.6134 54.526 85.9266C54.5488 85.9893 54.5865 86.2097 54.639 86.5879C54.6915 86.9661 54.7577 87.4599 54.8376 88.0693C54.913 88.6662 54.9963 89.324 55.0877 90.0428C55.1915 90.757 55.3 91.4837 55.413 92.223C55.526 92.9623 55.6378 93.6594 55.7485 94.3144C55.8599 93.6069 55.9827 92.8528 56.1169 92.0519C56.2591 91.234 56.4183 90.424 56.5946 89.622C56.7664 88.8074 56.9547 88.0578 57.1596 87.3731C57.3644 86.6885 57.579 86.1279 57.8033 85.6916C58.023 85.2427 58.2519 84.9749 58.4899 84.8883C58.966 84.715 59.4171 84.7069 59.8432 84.864C60.2693 85.021 60.5348 85.2437 60.6397 85.5318C60.7446 85.82 60.8751 86.2762 61.0314 86.9004C61.1876 87.5246 61.3524 88.2308 61.5258 89.0191C61.7072 89.7902 61.8845 90.5699 62.0579 91.3581C62.2313 92.1464 62.3984 92.8589 62.5592 93.4956C62.7154 94.1198 62.8483 94.5822 62.9577 94.8829C63.0489 95.1335 63.0166 95.4149 62.8606 95.7271C62.7046 96.0392 62.4763 96.2501 62.1756 96.3595C62.1505 96.3686 62.1067 96.3846 62.044 96.4074C61.8982 96.4746 61.7513 96.4997 61.6032 96.4827C61.4597 96.4782 61.2848 96.329 61.0785 96.0352C60.8847 95.7368 60.6465 95.1992 60.3638 94.4224C60.1722 93.8961 59.9875 93.3107 59.8096 92.666C59.6317 92.0213 59.4664 91.372 59.3135 90.7182C59.1687 90.0473 59.046 89.4179 58.9456 88.8301C58.8159 89.4875 58.676 90.2337 58.5259 91.0687C58.3838 91.8866 58.2297 92.7302 58.0636 93.5994C57.893 94.4561 57.7104 95.2604 57.5158 96.0123C57.3292 96.7471 57.1266 97.36 56.9081 97.8511C56.702 98.3375 56.48 98.6241 56.2419 98.7107ZM46.8907 95.0056C46.8758 94.4577 46.8226 93.9023 46.7313 93.3396C46.6355 92.7644 46.494 92.2199 46.3071 91.7062C46.2296 91.4932 46.1105 91.3025 45.9498 91.1339C45.7891 90.9654 45.6023 90.9199 45.3893 90.9974C44.9633 91.1524 44.5755 91.3929 44.2259 91.7188C43.8888 92.0401 43.648 92.4116 43.5034 92.8331C43.3589 93.2546 43.3687 93.6909 43.5328 94.142C43.6788 94.5429 43.9335 94.8333 44.2969 95.0132C44.6729 95.1885 45.0864 95.2721 45.5375 95.264C46.0011 95.2513 46.4334 95.172 46.8343 95.0261C46.8469 95.0215 46.8657 95.0147 46.8907 95.0056ZM46.7221 96.9399C46.279 97.087 45.8325 97.1856 45.3826 97.2359C44.9281 97.2736 44.4952 97.2538 44.0839 97.1765C44.1193 97.3906 44.1524 97.5985 44.1832 97.8001C44.2095 97.9892 44.2523 98.1652 44.3115 98.3281C44.4119 98.6037 44.5469 98.8384 44.7167 99.032C44.8945 99.2085 45.1337 99.242 45.4344 99.1326C45.7476 99.0186 46.0107 98.7667 46.2236 98.3771C46.449 97.9829 46.6152 97.5038 46.7221 96.9399ZM76.5204 79.5176C76.5751 79.6679 76.5729 79.8177 76.5137 79.967C76.4545 80.1162 76.3611 80.2495 76.2336 80.3669C76.0525 80.5321 75.7239 80.7794 75.2479 81.1088C74.7718 81.4381 74.1898 81.8273 73.5019 82.2763C72.8265 82.7208 72.0971 83.1921 71.3135 83.6901C70.5253 84.1756 69.7349 84.6549 68.9422 85.1278C69.0542 86.4492 69.1737 87.8104 69.3005 89.2116C69.4228 90.6001 69.5383 91.9699 69.6469 93.3209C69.6812 93.805 69.6517 94.1918 69.5584 94.4812C69.4696 94.7831 69.2122 95.0115 68.7862 95.1666C68.3227 95.3353 67.9547 95.299 67.6824 95.0575C67.4271 94.8241 67.2647 94.4363 67.1951 93.8941C67.0238 92.4098 66.8616 91.0286 66.7086 89.7506C66.5681 88.4679 66.4533 87.4313 66.3642 86.6408C65.658 87.0397 65.0367 87.3794 64.5003 87.6597C63.9593 87.9276 63.5675 88.0986 63.3248 88.1727C63.0526 88.2434 62.7946 88.2167 62.5508 88.0926C62.307 87.9685 62.1412 87.7664 62.0534 87.4862C61.9872 87.2265 62.0224 86.9724 62.1591 86.7241C62.2911 86.4632 62.4881 86.2638 62.7501 86.1258C63.1248 85.9469 63.6055 85.7081 64.1921 85.4095C64.7786 85.1108 65.4233 84.7769 66.126 84.4076C66.0563 83.7093 66.0049 82.9831 65.9716 82.229C65.9338 81.4624 65.9136 80.7248 65.9111 80.0162C65.9166 79.2906 65.9392 78.651 65.9789 78.0973C66.0186 77.5437 66.0874 77.1285 66.1853 76.8516C66.2638 76.6386 66.3874 76.4517 66.5559 76.2911C66.737 76.1258 66.9278 76.0067 67.1283 75.9338C67.3914 75.838 67.6386 75.8544 67.8698 75.9831C68.1011 76.1118 68.2624 76.3014 68.3536 76.552C68.3901 76.6522 68.4226 76.761 68.4511 76.8783C68.475 76.9831 68.4865 77.0924 68.4853 77.2064C68.4753 77.9195 68.4944 78.771 68.5425 79.7609C68.6032 80.7462 68.6832 81.8238 68.7827 82.9937C69.6722 82.5139 70.5429 82.0408 71.3949 81.5747C72.2548 81.0914 73.0315 80.6526 73.7252 80.2583C74.4268 79.8469 74.9848 79.5089 75.3994 79.2445C75.6181 79.0656 75.8379 79.0069 76.0589 79.0683C76.2754 79.1173 76.4292 79.267 76.5204 79.5176ZM78.1842 90.4477C77.7833 90.5936 77.3789 90.6131 76.9711 90.5062C76.5678 90.4117 76.2083 90.2233 75.8927 89.9409C75.5725 89.6459 75.3372 89.2917 75.1867 88.8783C74.9039 88.1015 74.7972 87.2819 74.8664 86.4195C74.9482 85.5526 75.1501 84.6845 75.4722 83.8153C75.7944 82.946 76.1871 82.1149 76.6505 81.3219C77.1219 80.5118 77.6166 79.7855 78.1348 79.1429C78.6654 78.4957 79.1653 77.959 79.6345 77.5328C80.1163 77.1021 80.5137 76.8297 80.827 76.7157C81.1903 76.5834 81.5144 76.5577 81.7992 76.6385C82.092 76.7022 82.2977 76.8969 82.4162 77.2227C82.4527 77.3229 82.4573 77.4135 82.43 77.4944C82.6065 77.4727 82.7723 77.5188 82.9273 77.6326C83.0822 77.7465 83.2144 77.9538 83.3239 78.2545C83.3695 78.3798 83.4567 78.717 83.5856 79.266C83.7145 79.815 83.8781 80.4791 84.0766 81.2582C84.2875 82.0328 84.5412 82.8272 84.8377 83.6416C84.8833 83.7669 84.9431 83.8729 85.0172 83.9594C85.0867 84.0334 85.1841 84.0476 85.3094 84.002C85.8105 83.8196 86.2815 83.5347 86.7222 83.1473C87.1709 82.7427 87.5849 82.3012 87.9641 81.8226C88.3512 81.327 88.6906 80.8559 88.9821 80.4092C89.2815 79.9455 89.5326 79.5633 89.7353 79.2625C89.9459 78.9446 90.0951 78.7697 90.1828 78.7378C90.6088 78.5827 90.8993 78.7182 91.0544 79.1442C91.0954 79.2569 91.0442 79.5452 90.9008 80.0088C90.7654 80.4554 90.5503 80.9949 90.2554 81.6272C89.956 82.247 89.6002 82.8873 89.188 83.5481C88.7838 84.1918 88.3272 84.7695 87.8181 85.2811C87.3216 85.7882 86.7915 86.1443 86.2276 86.3495C85.5385 86.6004 84.953 86.629 84.4711 86.4355C84.0017 86.2374 83.5915 85.8901 83.2405 85.3935C82.8975 84.8799 82.592 84.2745 82.3241 83.5774C82.018 84.7247 81.6504 85.7807 81.2212 86.7457C80.8 87.6936 80.3326 88.4951 79.8191 89.1503C79.3055 89.8055 78.7606 90.2379 78.1842 90.4477ZM81.4102 78.6105C80.3967 79.6463 79.5404 80.7241 78.8412 81.8441C78.1376 82.9516 77.6481 84.0237 77.3727 85.0604C77.1099 86.0925 77.1175 86.9907 77.3957 87.755C77.4732 87.968 77.6122 88.038 77.8127 87.965C78.0508 87.8784 78.3138 87.6266 78.6019 87.2096C78.9025 86.788 79.2025 86.2673 79.5019 85.6475C79.7968 85.0152 80.0734 84.3328 80.3318 83.6002C80.5856 82.8552 80.8035 82.109 80.9855 81.3616C81.1676 80.6143 81.2773 79.9217 81.3147 79.2837C81.3295 79.0514 81.3613 78.8269 81.4102 78.6105ZM94.8117 84.183C94.11 84.4383 93.4431 84.4966 92.8108 84.3579C92.1831 84.2316 91.6402 83.968 91.1822 83.5672C90.7196 83.1538 90.3902 82.6778 90.1941 82.139C89.8658 81.2369 89.7003 80.3535 89.6978 79.4889C89.6907 78.6118 89.7987 77.7779 90.0217 76.9873C90.2402 76.1841 90.5236 75.4424 90.872 74.7623C91.2329 74.0775 91.6047 73.4811 91.9873 72.9729C92.3778 72.4477 92.7439 72.0306 93.0856 71.7218C93.4227 71.4005 93.6852 71.2056 93.8731 71.1372C94.2114 71.0141 94.4769 71.0026 94.6694 71.1028C94.8699 71.1859 95.0295 71.3903 95.148 71.7161C95.2164 71.904 95.1607 72.1797 94.9808 72.5432C94.8135 72.902 94.5721 73.3304 94.2567 73.8283C93.9538 74.3217 93.6419 74.868 93.3208 75.4673C92.9997 76.0665 92.7157 76.7091 92.4687 77.3949C92.2343 78.0762 92.0932 78.7802 92.0456 79.507C92.0105 80.2293 92.1275 80.96 92.3965 81.6992C92.4968 81.9749 92.6245 82.1696 92.7794 82.2835C92.9469 82.3928 93.156 82.4018 93.4065 82.3106C94.1207 82.0507 94.8394 81.6472 95.5626 81.1002C96.2937 80.5361 96.9958 79.9117 97.6689 79.2269C98.3499 78.5249 98.9762 77.8287 99.5478 77.1383C100.132 76.4432 100.626 75.8308 101.029 75.3009C101.187 75.0731 101.325 74.8879 101.444 74.7455C101.562 74.6031 101.653 74.5204 101.715 74.4976C102.091 74.3608 102.35 74.4866 102.491 74.875C102.564 75.0755 102.512 75.3996 102.334 75.8474C102.143 76.4136 101.831 77.0379 101.399 77.7204C100.978 78.3983 100.483 79.0825 99.9109 79.773C99.3518 80.4589 98.7579 81.1078 98.1293 81.7197C97.5132 82.3271 96.9158 82.8496 96.3373 83.2872C95.7587 83.7248 95.2502 84.0234 94.8117 84.183ZM113.117 66.1975C113.172 66.3479 113.17 66.4977 113.11 66.6469C113.051 66.7962 112.958 66.9295 112.83 67.0468C112.649 67.2121 112.321 67.4593 111.845 67.7887C111.368 68.1181 110.786 68.5072 110.099 68.9563C109.423 69.4007 108.694 69.872 107.91 70.37C107.122 70.8555 106.332 71.3348 105.539 71.8078C105.651 73.1291 105.77 74.4904 105.897 75.8915C106.019 77.2801 106.135 78.6498 106.244 80.0008C106.278 80.485 106.248 80.8717 106.155 81.1611C106.066 81.463 105.809 81.6915 105.383 81.8465C104.919 82.0152 104.551 81.9789 104.279 81.7375C104.024 81.504 103.861 81.1162 103.792 80.574C103.62 79.0897 103.458 77.7086 103.305 76.4305C103.165 75.1478 103.05 74.1113 102.961 73.3207C102.255 73.7196 101.633 74.0593 101.097 74.3397C100.556 74.6075 100.164 74.7785 99.9215 74.8526C99.6492 74.9233 99.3912 74.8966 99.1474 74.7725C98.9036 74.6485 98.7378 74.4463 98.65 74.1661C98.5838 73.9064 98.6191 73.6524 98.7557 73.404C98.8878 73.1431 99.0848 72.9437 99.3467 72.8058C99.7215 72.6268 100.202 72.388 100.789 72.0894C101.375 71.7908 102.02 71.4568 102.723 71.0875C102.653 70.3892 102.601 69.663 102.568 68.9089C102.53 68.1423 102.51 67.4047 102.508 66.6962C102.513 65.9705 102.536 65.3309 102.576 64.7773C102.615 64.2236 102.684 63.8084 102.782 63.5315C102.86 63.3185 102.984 63.1316 103.153 62.971C103.334 62.8057 103.524 62.6867 103.725 62.6137C103.988 62.5179 104.235 62.5344 104.466 62.663C104.698 62.7917 104.859 62.9813 104.95 63.2319C104.987 63.3321 105.019 63.4409 105.048 63.5582C105.072 63.663 105.083 63.7724 105.082 63.8863C105.072 64.5994 105.091 65.4509 105.139 66.4408C105.2 67.4261 105.28 68.5037 105.379 69.6736C106.269 69.1938 107.14 68.7208 107.991 68.2546C108.851 67.7714 109.628 67.3326 110.322 66.9382C111.023 66.5268 111.581 66.1889 111.996 65.9244C112.215 65.7455 112.435 65.6868 112.656 65.7483C112.872 65.7972 113.026 65.9469 113.117 66.1975ZM131.725 56.8494C132.081 57.8267 132.369 58.8923 132.591 60.0462C132.82 61.183 132.936 62.3397 132.939 63.5165C132.949 64.6761 132.807 65.7851 132.511 66.8435C132.215 67.9018 131.732 68.8366 131.062 69.6479C130.405 70.4546 129.513 71.0632 128.385 71.4736C127.095 71.9433 125.905 71.9083 124.814 71.3687C123.724 70.8291 122.869 69.7073 122.248 68.0033C121.943 67.1638 121.738 66.309 121.634 65.4387C121.538 64.5513 121.485 63.7408 121.473 63.0072C121.407 62.9036 121.346 62.7766 121.292 62.6262C121.096 62.0875 120.992 61.5504 120.982 61.015C120.98 60.4625 121.044 59.9567 121.175 59.4976C121.313 59.0214 121.494 58.6221 121.718 58.2996C121.953 57.9726 122.209 57.759 122.485 57.6586C122.773 57.5538 123.06 57.5628 123.346 57.6857C123.64 57.7916 123.873 58.0826 124.047 58.5587C124.152 58.8469 124.191 59.2865 124.165 59.8778C124.147 60.4519 124.134 61.1377 124.126 61.9351C124.114 62.72 124.159 63.5834 124.26 64.5255C124.37 65.4504 124.603 66.4015 124.958 67.3788C125.451 68.732 126.374 69.1623 127.727 68.6698C128.428 68.4144 128.957 67.995 129.312 67.4117C129.675 66.8113 129.894 66.1072 129.969 65.2995C130.057 64.4873 130.05 63.6102 129.948 62.6681C129.846 61.7261 129.686 60.7772 129.465 59.8215C129.241 58.8533 128.998 57.9341 128.738 57.0639C128.603 56.5741 128.621 56.1771 128.794 55.8729C128.98 55.5641 129.254 55.3436 129.618 55.2114C129.856 55.1247 130.091 55.0888 130.323 55.1035C130.551 55.1057 130.783 55.2344 131.017 55.4895C131.252 55.7446 131.488 56.1979 131.725 56.8494ZM141.405 67.7138C140.867 67.9099 140.457 67.9738 140.177 67.9055C139.909 67.8327 139.723 67.6522 139.618 67.364C139.527 67.1134 139.537 66.8685 139.648 66.6293C139.755 66.3775 140.075 66.0482 140.608 65.6413C141.233 65.173 141.808 64.6869 142.334 64.1833C142.868 63.6625 143.274 63.1601 143.552 62.6758C143.842 62.1871 143.919 61.7547 143.782 61.3789C143.691 61.1283 143.537 60.9785 143.321 60.9296C143.117 60.8761 142.902 60.8904 142.676 60.9725C142.488 61.0409 142.224 61.1726 141.884 61.3675C141.551 61.5453 141.188 61.7555 140.794 61.9983C140.395 62.2285 140.007 62.4479 139.629 62.6565C139.258 62.848 138.935 62.9939 138.66 63.0942C138.008 63.3313 137.473 63.3628 137.055 63.1887C136.633 63.002 136.337 62.6768 136.168 62.2133C136.077 61.9627 136.083 61.5702 136.187 61.0359C136.29 60.5017 136.465 59.8916 136.712 59.2058C136.959 58.5199 137.257 57.8158 137.604 57.0935C137.951 56.3712 138.32 55.6905 138.712 55.0513C139.112 54.395 139.514 53.8441 139.92 53.3986C140.321 52.9405 140.696 52.6477 141.047 52.52C141.448 52.3741 141.813 52.3831 142.142 52.547C142.484 52.7064 142.733 52.9991 142.888 53.4251C142.961 53.6255 143.022 53.8516 143.071 54.1034C143.115 54.3426 143.097 54.5835 143.015 54.8262C142.928 55.0563 142.742 55.266 142.456 55.4551C142.17 55.6443 141.74 55.7868 141.164 55.8827C140.852 56.351 140.533 56.8574 140.206 57.402C139.887 57.9295 139.601 58.4667 139.346 59.0136C139.086 59.5479 138.893 60.0509 138.767 60.5226C139.176 60.2035 139.658 59.8929 140.215 59.5909C140.768 59.2763 141.345 59.0096 141.946 58.7907C142.673 58.5262 143.31 58.4434 143.856 58.5424C144.411 58.6242 144.873 58.8394 145.241 59.1879C145.621 59.5318 145.905 59.9606 146.092 60.4743C146.302 61.0506 146.324 61.6954 146.157 62.4085C145.991 63.1217 145.682 63.8303 145.229 64.5344C144.775 65.2386 144.219 65.8738 143.56 66.4401C142.9 67.0065 142.182 67.431 141.405 67.7138ZM84.5878 114.253C84.3246 114.349 84.0575 114.375 83.7864 114.332C83.5153 114.289 83.2538 114.136 83.002 113.873C82.7627 113.605 82.5655 113.18 82.4104 112.598C81.4337 111.279 80.497 109.953 79.6001 108.619C78.7157 107.281 77.8342 105.892 76.9555 104.453C76.8783 105.644 76.8542 106.845 76.883 108.055C76.9073 109.252 76.9487 110.379 77.0071 111.436C77.0609 112.481 77.0851 113.366 77.0796 114.091C77.0969 114.724 77.0617 115.212 76.9741 115.556C76.8819 115.887 76.7556 116.125 76.595 116.268C76.4515 116.42 76.292 116.528 76.1166 116.592C75.6906 116.747 75.3284 116.765 75.0299 116.647C74.7314 116.528 74.4864 116.206 74.2949 115.68C74.1945 115.404 74.117 114.957 74.0621 114.338C74.0027 113.707 73.9637 112.977 73.9453 112.146C73.9348 111.299 73.9504 110.406 73.9923 109.469C74.0296 108.518 74.0948 107.587 74.188 106.673C74.2811 105.759 74.4016 104.921 74.5495 104.158C74.6928 103.382 74.8715 102.742 75.0855 102.239C75.2995 101.735 75.5443 101.433 75.8199 101.333C76.058 101.246 76.2864 101.191 76.5051 101.169C76.7192 101.133 76.9545 101.175 77.2108 101.295C77.4626 101.402 77.764 101.626 78.1149 101.966C78.3918 102.22 78.7189 102.612 79.0961 103.141C79.4687 103.658 79.867 104.265 80.291 104.962C80.7104 105.647 81.1435 106.369 81.5903 107.129C82.0496 107.884 82.502 108.62 82.9476 109.338C82.6348 106.997 82.3238 104.953 82.0146 103.207C81.7133 101.444 81.4606 100.067 81.2564 99.0774C81.0522 98.0875 80.9473 97.5653 80.9415 97.5106C80.897 97.1153 80.8998 96.8305 80.9498 96.6562C80.9953 96.4694 81.0762 96.3406 81.1924 96.27C81.304 96.1868 81.4412 96.1156 81.6041 96.0563C81.6166 96.0517 81.6229 96.0494 81.6229 96.0494C81.9487 95.9309 82.316 95.9461 82.725 96.0952C83.1466 96.2398 83.4394 96.5376 83.6036 96.9886C83.6583 97.139 83.7501 97.4887 83.879 98.0377C84.0033 98.5742 84.1465 99.2599 84.3085 100.095C84.4785 100.913 84.6428 101.832 84.8014 102.853C84.9555 103.861 85.0942 104.924 85.2176 106.043C85.3489 107.144 85.4466 108.251 85.5107 109.363C85.5748 110.474 85.5848 111.535 85.5407 112.544C85.5227 113.118 85.4032 113.531 85.1823 113.781C84.9739 114.028 84.7757 114.185 84.5878 114.253ZM94.0837 110.095C93.1942 110.418 92.366 110.365 91.5992 109.935C90.8279 109.492 90.2484 108.738 89.8608 107.673C89.7377 107.335 89.6561 106.974 89.6161 106.591C89.5887 106.204 89.5891 105.835 89.6175 105.484C89.5013 105.399 89.3862 105.277 89.2722 105.12C89.1662 104.946 89.0676 104.734 88.9764 104.483C88.68 103.669 88.5528 102.871 88.5947 102.089C88.632 101.295 88.8038 100.559 89.1101 99.8797C89.4163 99.2006 89.8137 98.6161 90.3022 98.1262C90.7908 97.6362 91.3358 97.2818 91.9372 97.0629C92.9646 96.6889 93.9294 96.7279 94.8318 97.1799C95.7466 97.6273 96.4685 98.5777 96.9975 100.031C97.262 100.758 97.4183 101.538 97.4664 102.372C97.5145 103.206 97.4698 104.038 97.3322 104.868C97.2025 105.682 96.9852 106.449 96.6801 107.17C96.3876 107.887 96.0164 108.504 95.5666 109.023C95.1293 109.537 94.635 109.894 94.0837 110.095ZM91.471 103.852C91.5838 103.967 91.6744 104.118 91.7428 104.306C91.8112 104.494 91.8443 104.702 91.8421 104.93C91.8399 105.158 91.8627 105.454 91.9107 105.82C91.9541 106.173 92.0875 106.657 92.311 107.271C92.3702 107.433 92.4392 107.564 92.5178 107.664C92.6044 107.746 92.7292 107.757 92.892 107.698C93.318 107.543 93.6688 107.259 93.9444 106.846C94.2324 106.429 94.4448 105.941 94.5813 105.38C94.7303 104.815 94.811 104.218 94.8234 103.589C94.8437 102.943 94.8054 102.312 94.7084 101.694C94.6193 101.06 94.4836 100.492 94.3012 99.9909C94.1826 99.6651 94.0379 99.4624 93.867 99.3827C93.6961 99.303 93.454 99.3202 93.1408 99.4342C92.7148 99.5893 92.3264 99.8867 91.9757 100.326C91.633 100.749 91.3956 101.247 91.2636 101.82C91.1271 102.381 91.1637 102.949 91.3735 103.525C91.4145 103.638 91.447 103.747 91.471 103.852ZM104.614 106.496C104.351 106.592 104.08 106.627 103.8 106.601C103.521 106.574 103.229 106.433 102.922 106.175C102.62 105.931 102.301 105.522 101.965 104.949C101.624 104.363 101.267 103.557 100.893 102.53C100.542 101.565 100.257 100.626 100.038 99.7121C99.814 98.7861 99.6708 97.9443 99.6079 97.1868C99.5405 96.4167 99.5654 95.7834 99.6825 95.2867C99.7952 94.7774 100.014 94.4635 100.34 94.345C100.628 94.2401 100.917 94.2913 101.205 94.4985C101.493 94.7057 101.731 95.0662 101.918 95.5799C102.064 95.9808 102.205 96.5253 102.342 97.2133C102.491 97.8968 102.64 98.6372 102.789 99.4345C102.932 100.219 103.082 100.981 103.237 101.719C103.4 102.44 103.57 103.045 103.748 103.533C103.78 103.621 103.825 103.704 103.882 103.783C103.934 103.849 103.985 103.873 104.035 103.855C104.111 103.827 104.17 103.6 104.213 103.173C104.256 102.746 104.296 102.192 104.332 101.512C104.376 100.815 104.421 100.061 104.466 99.2495C104.524 98.4338 104.599 97.6262 104.691 96.8265C104.791 96.0097 104.919 95.268 105.073 94.6016C105.205 94.0286 105.432 93.5415 105.755 93.1404C106.077 92.7394 106.413 92.475 106.764 92.3473C107.078 92.2333 107.414 92.203 107.774 92.2564C108.147 92.3053 108.492 92.4561 108.811 92.7089C109.13 92.9617 109.379 93.3325 109.557 93.8211C109.625 94.009 109.714 94.3314 109.824 94.7881C109.941 95.2278 110.069 95.7347 110.207 96.3088C110.34 96.8704 110.476 97.4382 110.614 98.0123C110.747 98.5738 110.867 99.0767 110.972 99.521C111.089 99.9606 111.18 100.268 111.244 100.444C111.253 100.469 111.264 100.5 111.278 100.538C111.328 100.675 111.384 100.811 111.447 100.944C111.505 101.065 111.566 101.114 111.628 101.091C111.766 101.041 111.884 100.82 111.983 100.43C112.09 100.022 112.184 99.4984 112.263 98.8593C112.355 98.2157 112.437 97.5048 112.509 96.7267C112.58 95.9487 112.651 95.1496 112.721 94.3294C112.8 93.4921 112.886 92.6946 112.979 91.9371C113.033 91.3071 113.123 90.8913 113.248 90.6896C113.369 90.4754 113.511 90.3387 113.674 90.2794C113.899 90.1973 114.178 90.2235 114.511 90.3578C114.844 90.4921 115.097 90.7973 115.27 91.2734C115.329 91.4363 115.382 91.6015 115.429 91.7689C115.476 91.9363 115.493 92.1214 115.482 92.3242C115.442 93.7721 115.348 95.1328 115.201 96.4064C115.063 97.6629 114.874 98.7816 114.635 99.7625C114.396 100.743 114.112 101.542 113.783 102.158C113.454 102.775 113.077 103.16 112.651 103.316C111.774 103.635 111.013 103.649 110.368 103.359C109.731 103.052 109.267 102.497 108.975 101.695C108.865 101.394 108.745 101.005 108.614 100.528C108.478 100.038 108.335 99.5086 108.184 98.9391C108.042 98.3525 107.902 97.7721 107.764 97.198C107.626 96.624 107.504 96.0937 107.397 95.6073C107.359 95.4228 107.286 95.3214 107.18 95.3033C107.087 95.2805 107.039 95.362 107.035 95.5476C107.027 96.0329 107.021 96.5603 107.015 97.1299C107.01 97.6995 106.994 98.2019 106.968 98.637C106.933 99.3592 106.87 100.141 106.779 100.983C106.7 101.82 106.577 102.632 106.409 103.416C106.236 104.189 106.003 104.855 105.71 105.416C105.418 105.976 105.052 106.336 104.614 106.496Z" fill="white"/>
</svg>
