<svg width="146" height="87" viewBox="0 0 146 87" fill="none" xmlns="http://www.w3.org/2000/svg">
<rect y="28.0078" width="136" height="60" rx="30" transform="rotate(-11.8844 0 28.0078)" fill="#101213"/>
<path d="M44.6666 57.808C44.0142 57.9453 43.5181 57.8862 43.1782 57.6307C42.8541 57.3855 42.6577 57.0998 42.5891 56.7737C42.5286 56.4866 42.5376 56.2054 42.6159 55.93C42.7045 55.6389 42.9085 55.378 43.2278 55.1472C43.5471 54.9165 44.0357 54.7456 44.6936 54.6344C45.2746 54.1579 45.8456 53.6017 46.4067 52.9658C46.9808 52.3272 47.5114 51.6433 47.9983 50.9141C48.4983 50.1821 48.9237 49.4522 49.2747 48.7243C49.6359 47.9806 49.889 47.2733 50.034 46.6024C50.1892 45.9157 50.2092 45.2984 50.0939 44.7504C49.9703 44.1633 49.6943 43.7581 49.2658 43.5349C48.8504 43.3089 48.323 43.2632 47.6836 43.3978C47.1357 43.5131 46.6471 43.684 46.2178 43.9106C45.7859 44.1242 45.4116 44.3528 45.095 44.5966C44.7784 44.8403 44.5099 45.0535 44.2895 45.2362C44.0793 45.403 43.9025 45.5015 43.759 45.5317C43.5111 45.5839 43.2673 45.5262 43.0277 45.3586C42.7853 45.178 42.6662 44.9033 42.6703 44.5346C42.6731 44.2887 42.7706 43.9753 42.9629 43.5942C43.1552 43.2131 43.4454 42.8114 43.8334 42.3891C44.2214 41.9668 44.7066 41.5853 45.2889 41.2448C45.8816 40.8884 46.5759 40.6265 47.3718 40.459C48.6504 40.1899 49.7701 40.363 50.7307 40.9784C51.7044 41.591 52.3601 42.6997 52.6979 44.3046C52.9203 45.3614 52.8581 46.4577 52.5112 47.5935C52.1774 48.7266 51.6499 49.8458 50.9288 50.9514C50.2077 52.0569 49.3853 53.102 48.4616 54.0867C49.4319 53.8416 50.1828 53.6222 50.7144 53.4286C51.2431 53.222 51.6637 53.0517 51.9762 52.9178C52.3017 52.7812 52.621 52.6799 52.9342 52.614C53.3778 52.5207 53.7428 52.5392 54.0291 52.6697C54.3155 52.8002 54.4943 53.0351 54.5657 53.3743C54.6179 53.6222 54.6035 53.8773 54.5224 54.1397C54.4544 54.3992 54.2649 54.6639 53.9538 54.9338C53.6399 55.1906 53.1613 55.4412 52.5178 55.6856C51.8771 55.9431 51.0153 56.1858 49.9323 56.4137C49.293 56.5482 48.6327 56.6804 47.9515 56.8101C47.2833 56.9371 46.6334 57.0534 46.0016 57.1591C45.6637 57.3665 45.3959 57.5182 45.1981 57.6144C45.0134 57.7077 44.8362 57.7723 44.6666 57.808ZM65.5178 52.8885C64.6566 53.0697 63.8089 53.0233 62.9746 52.7492C62.1375 52.4621 61.4 51.9361 60.7621 51.171C60.1243 50.406 59.6708 49.3841 59.4017 48.1055C59.2204 47.2443 59.1975 46.3908 59.3328 45.5448C59.4654 44.6857 59.6564 43.9098 59.9057 43.2169C59.8048 43.061 59.731 42.8722 59.6843 42.6503C59.5772 42.1415 59.615 41.609 59.7977 41.0527C59.9907 40.4807 60.2847 39.9352 60.6796 39.4161C61.0875 38.8942 61.572 38.4448 62.1331 38.0678C62.6941 37.6909 63.2943 37.4351 63.9337 37.3006C64.9253 37.0919 65.8516 37.1558 66.7127 37.4924C67.5738 37.8289 68.313 38.3955 68.9303 39.1921C69.5449 39.9757 69.9729 40.9416 70.2146 42.0897C70.5056 43.4728 70.5893 44.7768 70.4656 46.0019C70.355 47.2242 70.0744 48.3188 69.6238 49.2856C69.1863 50.2497 68.6111 51.0452 67.8983 51.6722C67.1985 52.2963 66.405 52.7018 65.5178 52.8885ZM63.0733 40.6904C63.1159 40.7632 63.1482 40.8518 63.1701 40.9562C63.2113 41.1519 63.2065 41.3232 63.1557 41.4702C63.1048 41.6171 63.0307 41.7826 62.9331 41.9666C62.8047 42.198 62.6722 42.5393 62.5355 42.9905C62.4091 43.4258 62.3029 43.9251 62.2171 44.4881C62.1312 45.0512 62.082 45.627 62.0696 46.2155C62.0675 46.7882 62.1187 47.3225 62.223 47.8183C62.407 48.6925 62.7142 49.3432 63.1448 49.7703C63.5753 50.1975 64.1102 50.3438 64.7495 50.2092C65.2845 50.0967 65.7628 49.8121 66.1845 49.3554C66.6192 48.8961 66.9691 48.3251 67.2342 47.6425C67.4966 46.9469 67.6563 46.1844 67.7134 45.3548C67.7835 44.5226 67.7265 43.6693 67.5426 42.7951C67.4108 42.1689 67.2065 41.6191 66.9298 41.146C66.6531 40.6728 66.3266 40.3191 65.9503 40.085C65.574 39.8508 65.1706 39.779 64.74 39.8696C64.3877 39.9437 64.0711 40.058 63.7903 40.2125C63.5197 40.3512 63.2807 40.5105 63.0733 40.6904ZM77.3109 50.938C76.6585 51.0753 76.1624 51.0162 75.8225 50.7607C75.4984 50.5155 75.302 50.2299 75.2334 49.9037C75.173 49.6166 75.1819 49.3354 75.2602 49.0601C75.3488 48.7689 75.5528 48.508 75.8721 48.2773C76.1915 48.0466 76.6801 47.8756 77.3379 47.7644C77.9189 47.2879 78.4899 46.7317 79.051 46.0959C79.6252 45.4573 80.1557 44.7733 80.6426 44.0441C81.1426 43.3121 81.568 42.5822 81.919 41.8543C82.2803 41.1106 82.5334 40.4034 82.6783 39.7325C82.8336 39.0458 82.8535 38.4284 82.7382 37.8804C82.6146 37.2933 82.3386 36.8881 81.9101 36.6649C81.4947 36.4389 80.9673 36.3932 80.328 36.5278C79.78 36.6431 79.2914 36.8141 78.8622 37.0406C78.4302 37.2542 78.0559 37.4828 77.7394 37.7266C77.4228 37.9703 77.1542 38.1835 76.9338 38.3662C76.7237 38.533 76.5468 38.6316 76.4033 38.6618C76.1554 38.7139 75.9116 38.6562 75.672 38.4887C75.4296 38.308 75.3105 38.0334 75.3146 37.6646C75.3174 37.4188 75.4149 37.1053 75.6072 36.7242C75.7995 36.3431 76.0897 35.9414 76.4777 35.5191C76.8657 35.0968 77.3509 34.7154 77.9333 34.3748C78.5259 34.0185 79.2202 33.7565 80.0161 33.589C81.2947 33.3199 82.4144 33.4931 83.375 34.1084C84.3487 34.721 85.0045 35.8298 85.3422 37.4346C85.5646 38.4915 85.5024 39.5878 85.1555 40.7236C84.8217 41.8566 84.2942 42.9759 83.5731 44.0814C82.852 45.1869 82.0296 46.232 81.1059 47.2167C82.0762 46.9716 82.8271 46.7523 83.3587 46.5587C83.8874 46.352 84.3081 46.1817 84.6205 46.0479C84.946 45.9112 85.2654 45.81 85.5785 45.7441C86.0221 45.6507 86.3871 45.6693 86.6734 45.7998C86.9598 45.9303 87.1386 46.1651 87.21 46.5044C87.2622 46.7523 87.2478 47.0074 87.1667 47.2697C87.0987 47.5293 86.9092 47.794 86.5981 48.0638C86.2842 48.3206 85.8056 48.5712 85.1621 48.8156C84.5214 49.0731 83.6596 49.3158 82.5766 49.5437C81.9373 49.6782 81.277 49.8104 80.5958 49.9401C79.9276 50.0671 79.2777 50.1835 78.6459 50.2892C78.308 50.4965 78.0402 50.6483 77.8424 50.7444C77.6577 50.8378 77.4805 50.9023 77.3109 50.938ZM97.9087 47.0937C97.3085 47.22 96.7066 47.1764 96.103 46.9628C95.5152 46.7595 94.9717 46.4106 94.4725 45.9161C93.9733 45.4217 93.5631 44.7995 93.2418 44.0496C93.125 44.1423 93.0275 44.1969 92.9492 44.2133C92.9231 44.2188 92.884 44.2271 92.8318 44.238C92.7171 44.2758 92.6048 44.2926 92.495 44.2885C92.3851 44.2844 92.2759 44.2188 92.1674 44.0917C92.0692 43.9489 91.9803 43.6883 91.9007 43.3099C91.8211 42.9315 91.8431 42.5181 91.9667 42.0697C92.1034 41.6186 92.3211 41.164 92.6199 40.706C92.6756 39.7405 92.8947 38.7747 93.2772 37.8085C93.6571 36.8293 94.1406 35.8896 94.7278 34.9893C95.3122 34.0761 95.9444 33.2277 96.6243 32.4442C97.3172 31.658 98.0033 30.9686 98.6825 30.376C99.3589 29.7704 99.9725 29.287 100.523 28.9259C101.071 28.5516 101.502 28.3316 101.815 28.2657C102.533 28.1147 102.964 28.3849 103.11 29.0764C103.137 29.2069 102.975 29.4387 102.622 29.7717C102.267 30.0917 101.797 30.5109 101.211 31.0293C100.638 31.5449 100.022 32.1447 99.3621 32.8286C98.7152 33.5098 98.0978 34.2665 97.5099 35.0987C96.9221 35.931 96.442 36.8223 96.0697 37.7726C96.4886 37.5619 96.9261 37.3744 97.382 37.2103C97.8511 37.0435 98.34 36.9065 98.8489 36.7994C99.7361 36.6127 100.498 36.7385 101.136 37.1766C101.77 37.6017 102.197 38.3362 102.417 39.38C102.59 40.202 102.581 41.035 102.391 41.8789C102.201 42.7228 101.878 43.5197 101.422 44.2696C100.977 45.0036 100.446 45.6196 99.8288 46.1174C99.2142 46.6282 98.5741 46.9537 97.9087 47.0937ZM95.4947 41.4499C95.5194 41.8262 95.5702 42.197 95.647 42.5624C95.7569 43.0843 95.9756 43.5083 96.3031 43.8345C96.6306 44.1607 96.9901 44.2826 97.3815 44.2003C97.8121 44.1097 98.2063 43.9109 98.5641 43.604C98.9349 43.2943 99.2515 42.9211 99.5139 42.4844C99.7735 42.0346 99.9531 41.5608 100.053 41.0629C100.152 40.5651 100.153 40.0813 100.054 39.6116C100.018 39.442 99.9618 39.3039 99.8849 39.1975C99.808 39.091 99.6848 39.0557 99.5151 39.0914C98.654 39.2726 97.8883 39.5836 97.2181 40.0244C96.5609 40.4625 95.9864 40.9376 95.4947 41.4499Z" fill="white"/>
</svg>
