<svg width="145" height="87" viewBox="0 0 145 87" fill="none" xmlns="http://www.w3.org/2000/svg">
<rect y="27.8017" width="135" height="60" rx="30" transform="rotate(-11.8844 0 27.8017)" fill="#FE0000"/>
<path d="M44.3398 57.6706C43.6874 57.8079 43.1913 57.7488 42.8514 57.4933C42.5272 57.2481 42.3309 56.9624 42.2622 56.6363C42.2018 56.3492 42.2108 56.068 42.2891 55.7926C42.3777 55.5015 42.5816 55.2406 42.901 55.0098C43.2203 54.7791 43.7089 54.6082 44.3668 54.497C44.9478 54.0205 45.5188 53.4643 46.0799 52.8284C46.654 52.1898 47.1845 51.5059 47.6715 50.7767C48.1714 50.0447 48.5969 49.3148 48.9479 48.5869C49.3091 47.8432 49.5622 47.1359 49.7072 46.465C49.8624 45.7783 49.8824 45.161 49.767 44.613C49.6435 44.0259 49.3675 43.6207 48.939 43.3975C48.5235 43.1715 47.9962 43.1258 47.3568 43.2604C46.8088 43.3757 46.3202 43.5466 45.891 43.7732C45.4591 43.9868 45.0848 44.2154 44.7682 44.4592C44.4516 44.7029 44.1831 44.9161 43.9627 45.0988C43.7525 45.2656 43.5757 45.3641 43.4322 45.3943C43.1843 45.4465 42.9405 45.3888 42.7008 45.2212C42.4584 45.0406 42.3393 44.7659 42.3435 44.3972C42.3462 44.1513 42.4438 43.8379 42.6361 43.4568C42.8284 43.0757 43.1185 42.674 43.5066 42.2517C43.8946 41.8294 44.3798 41.4479 44.9621 41.1074C45.5548 40.751 46.249 40.4891 47.0449 40.3216C48.3236 40.0525 49.4432 40.2256 50.4039 40.841C51.3776 41.4536 52.0333 42.5623 52.3711 44.1672C52.5935 45.224 52.5312 46.3203 52.1844 47.4561C51.8505 48.5892 51.3231 49.7084 50.602 50.814C49.8808 51.9195 49.0584 52.9646 48.1348 53.9493C49.1051 53.7042 49.856 53.4849 50.3875 53.2912C50.9163 53.0846 51.3369 52.9143 51.6494 52.7804C51.9749 52.6438 52.2942 52.5425 52.6074 52.4766C53.051 52.3833 53.4159 52.4018 53.7023 52.5323C53.9886 52.6628 54.1675 52.8977 54.2389 53.2369C54.2911 53.4848 54.2766 53.7399 54.1956 54.0023C54.1276 54.2618 53.938 54.5265 53.6269 54.7964C53.3131 55.0532 52.8344 55.3038 52.191 55.5482C51.5503 55.8057 50.6884 56.0484 49.6055 56.2763C48.9662 56.4108 48.3059 56.543 47.6247 56.6727C46.9565 56.7997 46.3065 56.916 45.6748 57.0217C45.3369 57.2291 45.0691 57.3808 44.8713 57.477C44.6866 57.5703 44.5094 57.6349 44.3398 57.6706ZM65.1909 52.7511C64.3298 52.9323 63.4821 52.8859 62.6478 52.6118C61.8107 52.3247 61.0732 51.7987 60.4353 51.0336C59.7974 50.2686 59.3439 49.2467 59.0748 47.9681C58.8936 47.107 58.8707 46.2534 59.006 45.4074C59.1386 44.5483 59.3296 43.7724 59.5789 43.0795C59.478 42.9236 59.4042 42.7348 59.3575 42.513C59.2504 42.0041 59.2882 41.4716 59.4709 40.9153C59.6639 40.3433 59.9579 39.7978 60.3527 39.2787C60.7607 38.7568 61.2452 38.3074 61.8063 37.9304C62.3673 37.5535 62.9675 37.2977 63.6068 37.1632C64.5985 36.9545 65.5248 37.0184 66.3859 37.355C67.247 37.6915 67.9862 38.2581 68.6035 39.0547C69.218 39.8383 69.6461 40.8042 69.8877 41.9524C70.1788 43.3354 70.2625 44.6394 70.1388 45.8645C70.0281 47.0868 69.7475 48.1814 69.297 49.1483C68.8595 50.1124 68.2843 50.9079 67.5715 51.5348C66.8717 52.1589 66.0782 52.5644 65.1909 52.7511ZM62.7465 40.553C62.7891 40.6258 62.8213 40.7144 62.8433 40.8188C62.8845 41.0145 62.8797 41.1858 62.8288 41.3328C62.778 41.4797 62.7038 41.6452 62.6063 41.8292C62.4779 42.0606 62.3453 42.4019 62.2086 42.8531C62.0823 43.2884 61.9761 43.7877 61.8902 44.3508C61.8044 44.9138 61.7552 45.4896 61.7428 46.0781C61.7407 46.6508 61.7918 47.1851 61.8962 47.6809C62.0801 48.5551 62.3874 49.2058 62.8179 49.6329C63.2485 50.0601 63.7834 50.2064 64.4227 50.0719C64.9577 49.9593 65.436 49.6747 65.8576 49.218C66.2924 48.7587 66.6423 48.1877 66.9074 47.5051C67.1698 46.8095 67.3295 46.047 67.3865 45.2174C67.4566 44.3852 67.3997 43.5319 67.2157 42.6577C67.0839 42.0315 66.8797 41.4817 66.603 41.0086C66.3263 40.5354 65.9998 40.1817 65.6235 39.9476C65.2472 39.7134 64.8437 39.6416 64.4132 39.7322C64.0609 39.8063 63.7443 39.9206 63.4634 40.0751C63.1929 40.2138 62.9539 40.3731 62.7465 40.553ZM76.9841 50.8006C76.3317 50.9379 75.8356 50.8788 75.4957 50.6233C75.1716 50.3782 74.9752 50.0925 74.9065 49.7663C74.8461 49.4792 74.8551 49.198 74.9334 48.9227C75.022 48.6315 75.226 48.3706 75.5453 48.1399C75.8646 47.9092 76.3532 47.7382 77.0111 47.627C77.5921 47.1505 78.1631 46.5943 78.7242 45.9585C79.2983 45.3199 79.8289 44.636 80.3158 43.9067C80.8158 43.1747 81.2412 42.4448 81.5922 41.7169C81.9534 40.9732 82.2065 40.266 82.3515 39.5951C82.5067 38.9084 82.5267 38.291 82.4114 37.743C82.2878 37.1559 82.0118 36.7507 81.5833 36.5275C81.1679 36.3016 80.6405 36.2558 80.0011 36.3904C79.4531 36.5057 78.9645 36.6767 78.5353 36.9033C78.1034 37.1168 77.7291 37.3454 77.4125 37.5892C77.0959 37.8329 76.8274 38.0461 76.607 38.2288C76.3968 38.3956 76.22 38.4942 76.0765 38.5244C75.8286 38.5765 75.5848 38.5188 75.3452 38.3513C75.1028 38.1707 74.9836 37.896 74.9878 37.5272C74.9906 37.2814 75.0881 36.9679 75.2804 36.5868C75.4727 36.2057 75.7629 35.804 76.1509 35.3817C76.5389 34.9594 77.0241 34.578 77.6064 34.2374C78.1991 33.8811 78.8933 33.6191 79.6892 33.4516C80.9679 33.1825 82.0876 33.3557 83.0482 33.971C84.0219 34.5836 84.6776 35.6924 85.0154 37.2972C85.2378 38.3541 85.1756 39.4504 84.8287 40.5862C84.4949 41.7192 83.9674 42.8385 83.2463 43.944C82.5252 45.0495 81.7028 46.0946 80.7791 47.0793C81.7494 46.8342 82.5003 46.6149 83.0318 46.4213C83.5606 46.2146 83.9812 46.0443 84.2937 45.9105C84.6192 45.7738 84.9385 45.6726 85.2517 45.6067C85.6953 45.5133 86.0603 45.5319 86.3466 45.6624C86.633 45.7929 86.8118 46.0277 86.8832 46.367C86.9354 46.6149 86.9209 46.87 86.8399 47.1323C86.7719 47.3919 86.5823 47.6566 86.2712 47.9264C85.9574 48.1832 85.4788 48.4338 84.8353 48.6782C84.1946 48.9357 83.3328 49.1784 82.2498 49.4063C81.6105 49.5408 80.9502 49.673 80.269 49.8027C79.6008 49.9297 78.9509 50.0461 78.3191 50.1518C77.9812 50.3591 77.7134 50.5109 77.5156 50.607C77.3309 50.7004 77.1537 50.7649 76.9841 50.8006ZM94.4071 47.8493C93.9113 47.9536 93.4388 47.91 92.9898 47.7184C92.5565 47.537 92.2849 47.1854 92.1751 46.6635C92.0735 46.1808 92.1442 45.8048 92.3873 45.5356C92.6277 45.2534 92.9893 45.0615 93.472 44.9599C93.6677 44.9187 93.8689 44.9036 94.0756 44.9146C94.2796 44.9126 94.6559 44.8879 95.2046 44.8406C96.0088 44.1944 96.7113 43.5833 97.3122 43.0072C97.9104 42.4181 98.3598 41.867 98.6607 41.3541C98.9587 40.8281 99.0597 40.3368 98.9636 39.8801C98.873 39.4495 98.6498 39.2308 98.2941 39.2239C97.9487 39.2012 97.5398 39.2328 97.0673 39.3186C97.0151 39.3296 96.9564 39.3419 96.8912 39.3556C96.8362 39.3536 96.7762 39.3594 96.7109 39.3731C96.0373 39.474 95.3945 39.5276 94.7826 39.5337C94.1811 39.524 93.6633 39.3946 93.2294 39.1452C92.7926 38.8829 92.5043 38.419 92.3642 37.7536C92.2077 37.0099 92.1518 36.2586 92.1965 35.4998C92.2384 34.728 92.3449 34.0038 92.516 33.3275C92.3766 33.2478 92.2787 33.1389 92.2224 33.0009C92.1764 32.8471 92.1369 32.6919 92.104 32.5353C92.071 32.3787 92.1555 32.1975 92.3574 31.9915C92.5593 31.7855 92.8461 31.5616 93.2176 31.3199C93.4607 30.7919 93.7114 30.3644 93.9696 30.0376C94.2251 29.6977 94.4442 29.5085 94.6268 29.4701C94.8486 29.4234 95.0594 29.454 95.2593 29.5618C95.4721 29.6669 95.6476 29.8207 95.7856 30.0233C96.5355 29.702 97.3249 29.4064 98.1537 29.1366C98.9957 28.864 99.8211 28.6426 100.63 28.4724C101.1 28.3735 101.532 28.3234 101.927 28.3221C102.332 28.305 102.667 28.3774 102.933 28.5395C103.209 28.6858 103.391 28.9677 103.479 29.3852C103.553 29.7375 103.491 30.0232 103.292 30.2422C103.103 30.4455 102.82 30.5934 102.445 30.6861C101.691 30.8584 100.894 31.0874 100.055 31.373C99.2159 31.6586 98.3925 31.9545 97.5849 32.2607C96.7876 32.5511 96.0697 32.7976 95.431 33.0001C95.3019 33.4224 95.182 33.8564 95.0714 34.3021C94.9712 34.7319 94.8915 35.1302 94.8324 35.4969C94.7864 35.8609 94.7853 36.1472 94.8292 36.356C94.9061 36.7213 95.1094 36.9102 95.439 36.9226C95.7686 36.9349 96.1514 36.9089 96.5875 36.8444C97.1046 36.7764 97.6272 36.7346 98.1552 36.7188C98.6806 36.69 99.174 36.736 99.6354 36.8569C100.11 36.9751 100.522 37.2155 100.87 37.5781C101.216 37.9276 101.461 38.4416 101.604 39.1201C101.738 39.7594 101.691 40.4437 101.463 41.173C101.248 41.8995 100.897 42.6274 100.411 43.3566C99.934 44.0701 99.3653 44.7348 98.7047 45.3507C98.0598 45.9769 97.3617 46.5121 96.6104 46.9564C95.8722 47.3979 95.1378 47.6955 94.4071 47.8493Z" fill="white"/>
</svg>
