<svg width="182" height="182" viewBox="0 0 182 182" fill="none" xmlns="http://www.w3.org/2000/svg">
<path d="M67.3047 3.58936C79.6182 0.289962 92.2278 4.73883 100.754 13.7007C111.306 7.24261 124.645 6.21897 135.681 12.5903H135.68C146.724 18.9602 152.496 31.0195 152.181 43.3921C164.206 46.2944 174.365 54.9908 177.665 67.3052C180.964 79.6173 176.525 92.2325 167.553 100.755C174.011 111.307 175.034 124.646 168.663 135.681L168.662 135.68C162.292 146.724 150.233 152.497 137.86 152.181C134.958 164.206 126.263 174.366 113.948 177.666C101.636 180.964 89.0199 176.526 80.4971 167.553C69.9452 174.011 56.6072 175.035 45.5723 168.664V168.663C34.5285 162.293 28.7544 150.233 29.0703 137.861C17.0459 134.958 6.88826 126.262 3.58887 113.949C0.28943 101.635 4.73796 89.0246 13.7002 80.4985C7.34793 70.1187 6.25375 57.0426 12.2842 46.1147L12.5898 45.5728C18.9598 34.5291 31.0192 28.7553 43.3916 29.0708C46.2944 17.0465 54.9911 6.88883 67.3047 3.58936Z" fill="#FE0000" stroke="white" stroke-width="5"/>
<path d="M44.1524 112.049C44.5408 111.908 44.8552 111.914 45.0956 112.068C45.3315 112.209 45.4904 112.392 45.5725 112.618C45.6865 112.931 45.6508 113.32 45.4652 113.785C45.2797 114.25 44.991 114.724 44.5993 115.207C44.2156 115.673 43.776 116.103 43.2806 116.496C42.7852 116.889 42.2806 117.179 41.7669 117.366C41.0026 117.644 40.1944 117.704 39.3423 117.546C38.4981 117.371 37.7177 116.981 37.001 116.376C36.2968 115.767 35.7532 114.936 35.3702 113.884C35.0555 113.019 34.906 112.102 34.9217 111.131C34.9499 110.156 35.0959 109.173 35.3599 108.183C35.6365 107.189 35.9836 106.232 36.4014 105.314C36.8317 104.391 37.294 103.556 37.7881 102.809C38.2948 102.057 38.7862 101.438 39.2622 100.953C39.7337 100.455 40.1448 100.142 40.4956 100.014C40.9342 99.8547 41.301 99.8488 41.596 99.9968C41.8991 100.128 42.1213 100.387 42.2627 100.776C42.3767 101.089 42.403 101.356 42.3415 101.577C42.288 101.781 42.1588 101.991 41.9538 102.208C41.3024 102.913 40.6704 103.711 40.0578 104.601C39.4578 105.486 38.9494 106.409 38.5328 107.369C38.1116 108.317 37.8356 109.255 37.7049 110.182C37.5742 111.109 37.6547 111.974 37.9466 112.776C38.2658 113.653 38.6829 114.253 39.1979 114.576C39.7129 114.9 40.2711 114.952 40.8725 114.733C41.1732 114.624 41.4761 114.442 41.7814 114.189C42.082 113.924 42.3696 113.642 42.644 113.343C42.931 113.04 43.202 112.771 43.4571 112.537C43.7202 112.285 43.952 112.122 44.1524 112.049ZM52.411 113.556C51.5214 113.879 50.6932 113.826 49.9264 113.396C49.1551 112.953 48.5756 112.199 48.188 111.134C48.0649 110.796 47.9833 110.435 47.9433 110.052C47.9159 109.665 47.9163 109.296 47.9447 108.945C47.8285 108.86 47.7134 108.738 47.5995 108.581C47.4935 108.407 47.3949 108.195 47.3037 107.944C47.0072 107.13 46.88 106.332 46.9219 105.55C46.9593 104.756 47.1311 104.02 47.4373 103.341C47.7435 102.662 48.1409 102.077 48.6295 101.587C49.118 101.097 49.663 100.743 50.2644 100.524C51.2918 100.15 52.2566 100.189 53.159 100.641C54.0738 101.088 54.7958 102.039 55.3248 103.492C55.5893 104.219 55.7456 104.999 55.7936 105.833C55.8417 106.667 55.797 107.499 55.6594 108.329C55.5298 109.143 55.3124 109.91 55.0073 110.631C54.7148 111.348 54.3436 111.965 53.8938 112.484C53.4565 112.998 52.9622 113.355 52.411 113.556ZM49.7982 107.313C49.911 107.428 50.0016 107.579 50.07 107.767C50.1384 107.955 50.1715 108.163 50.1693 108.391C50.1671 108.619 50.19 108.915 50.2379 109.281C50.2813 109.634 50.4147 110.118 50.6382 110.732C50.6975 110.895 50.7664 111.026 50.8451 111.125C50.9317 111.207 51.0564 111.218 51.2193 111.159C51.6453 111.004 51.996 110.72 52.2716 110.307C52.5597 109.89 52.772 109.402 52.9085 108.841C53.0576 108.276 53.1383 107.679 53.1506 107.05C53.1709 106.404 53.1326 105.773 53.0356 105.155C52.9465 104.521 52.8108 103.953 52.6284 103.452C52.5098 103.126 52.3651 102.923 52.1942 102.844C52.0233 102.764 51.7812 102.781 51.468 102.895C51.042 103.05 50.6537 103.348 50.3029 103.788C49.9602 104.21 49.7228 104.708 49.5908 105.281C49.4543 105.842 49.4909 106.41 49.7007 106.986C49.7417 107.099 49.7742 107.208 49.7982 107.313ZM76.975 103.423C77.146 104.127 76.8682 104.611 76.1415 104.876C75.7657 105.013 75.4239 105.009 75.1163 104.866C74.8212 104.718 74.5962 104.431 74.4411 104.005C74.1766 103.278 73.9252 102.49 73.6869 101.64C73.4565 100.773 73.2364 99.8958 73.0265 99.0073C72.8292 98.1143 72.6393 97.2611 72.4568 96.4478C72.2429 97.2635 72.0107 98.1071 71.7604 98.9786C71.51 99.8502 71.2528 100.703 70.9888 101.537C70.7247 102.371 70.4567 103.135 70.1847 103.83C69.9206 104.508 69.6576 105.072 69.3957 105.522C69.1293 105.96 68.8708 106.224 68.6202 106.315C68.0188 106.534 67.419 106.504 66.8209 106.225C66.2182 105.934 65.7915 105.443 65.5406 104.754C65.454 104.516 65.3628 104.188 65.267 103.768C65.1666 103.337 65.0696 102.875 64.9761 102.384C64.8825 101.893 64.7855 101.432 64.6852 101C64.5848 100.569 64.4913 100.234 64.4046 99.9958C64.4046 99.9958 64.4001 99.9833 64.391 99.9582C64.3807 99.891 64.3568 99.8642 64.3192 99.8779C64.2691 99.8961 64.1928 100.115 64.0904 100.536C63.9834 100.944 63.8628 101.47 63.7286 102.115C63.5944 102.76 63.4505 103.436 63.2969 104.145C63.1559 104.849 63.0199 105.509 62.8891 106.124C62.7708 106.734 62.6616 107.214 62.5615 107.563C62.4409 108.089 62.2821 108.452 62.0851 108.651C61.888 108.851 61.6329 109.007 61.3197 109.121C60.8812 109.281 60.4842 109.262 60.1287 109.065C59.7812 108.851 59.5094 108.475 59.3133 107.936C59.2312 107.71 59.1411 107.346 59.043 106.842C58.9574 106.334 58.8724 105.769 58.7879 105.148C58.6989 104.513 58.6167 103.897 58.5413 103.3C58.4739 102.686 58.4197 102.167 58.3785 101.742C58.3043 101.187 58.331 100.773 58.4585 100.5C58.5939 100.209 58.8246 100.005 59.1503 99.8863C59.9146 99.6081 60.4335 99.8449 60.7072 100.597C60.7573 100.734 60.7956 100.976 60.8219 101.321C60.8482 101.666 60.8739 102.068 60.8991 102.527C60.9243 102.986 60.9478 103.46 60.9696 103.949C60.9868 104.425 61.02 104.867 61.0691 105.275C61.1783 104.639 61.2988 103.957 61.4307 103.228C61.5627 102.499 61.7054 101.78 61.859 101.071C62.0251 100.358 62.2032 99.6974 62.3932 99.089C62.5958 98.4761 62.8286 97.9657 63.0916 97.5578C63.3501 97.1374 63.6422 96.8679 63.968 96.7494C64.2937 96.6308 64.6565 96.6335 65.0564 96.7576C65.4517 96.8691 65.8158 97.07 66.1485 97.3604C66.4892 97.6337 66.7325 97.9708 66.8784 98.3718C67.0152 98.7477 67.1292 99.2169 67.2205 99.7797C67.3118 100.342 67.3997 100.935 67.4842 101.557C67.5687 102.179 67.6862 102.774 67.8367 103.344C68.0894 102.713 68.3444 102.01 68.6016 101.235C68.8543 100.448 69.1126 99.6373 69.3767 98.8033C69.6407 97.9694 69.899 97.1588 70.1517 96.3716C70.4169 95.5798 70.665 94.8581 70.8961 94.2065C71.1396 93.5502 71.3719 93.0188 71.5927 92.612C71.8091 92.1927 72.0049 91.9512 72.1803 91.8873C72.694 91.7004 73.1451 91.6923 73.5336 91.863C73.9301 92.0167 74.2492 92.4256 74.4909 93.0896C74.6414 93.5031 74.8061 94.0532 74.9852 94.7401C75.1767 95.4224 75.3638 96.1702 75.5463 96.9835C75.7368 97.7797 75.9193 98.593 76.0938 99.4233C76.2763 100.237 76.4445 100.991 76.5985 101.687C76.7525 102.383 76.878 102.962 76.975 103.423ZM83.288 108.447C82.9372 108.575 82.6159 108.55 82.3243 108.372C82.0497 108.202 81.8212 107.867 81.6388 107.366C81.3879 106.677 81.1519 105.833 80.9306 104.835C80.7093 103.838 80.5114 102.767 80.3367 101.625C80.1621 100.482 80.0131 99.3519 79.8898 98.2333C79.7618 96.9461 79.6663 95.7677 79.6034 94.698C79.5529 93.6238 79.5732 92.7438 79.6641 92.058C79.763 91.3552 79.9691 90.9467 80.2823 90.8327C80.5705 90.7278 80.8598 90.7431 81.1503 90.8786C81.4488 90.997 81.671 91.2566 81.817 91.6576C81.9218 91.9457 81.9972 92.3866 82.0429 92.98C82.0841 93.561 82.1356 94.2872 82.1973 95.1586C82.3679 94.3019 82.5557 93.4532 82.7605 92.6125C82.9778 91.7672 83.2242 90.9822 83.4996 90.2576C83.7751 89.5331 84.0791 88.9258 84.4115 88.4359C84.744 87.9459 85.1107 87.628 85.5117 87.4821C85.9878 87.3088 86.4577 87.2938 86.9214 87.4372C87.3976 87.5761 87.8288 87.8448 88.2151 88.2434C88.6014 88.642 88.904 89.142 89.1229 89.7434C89.5287 90.8585 89.7227 92.0152 89.7048 93.2136C89.6824 94.3994 89.4646 95.5358 89.0514 96.6227C88.6508 97.705 88.0695 98.6615 87.3077 99.4921C86.5413 100.31 85.613 100.918 84.523 101.314C84.2098 101.428 83.9102 101.502 83.6243 101.535C83.3555 101.576 83.1009 101.598 82.8605 101.6C83.002 102.457 83.1566 103.33 83.3243 104.22C83.5091 105.117 83.7036 106.061 83.9078 107.051C84.0083 107.795 83.8017 108.26 83.288 108.447ZM86.5068 89.6314C86.2311 89.7317 85.9487 90.0473 85.6595 90.5782C85.3829 91.1046 85.112 91.7637 84.8468 92.5555C84.577 93.3347 84.3215 94.1726 84.0803 95.0692C83.847 95.9487 83.628 96.8088 83.4232 97.6496C83.2309 98.4857 83.0694 99.2114 82.9386 99.8266C83.8543 99.3798 84.6026 98.8237 85.1833 98.1582C85.7595 97.4803 86.1973 96.7534 86.4967 95.9775C86.7961 95.2017 86.9838 94.431 87.0599 93.6655C87.144 92.8829 87.1472 92.151 87.0695 91.4698C86.9918 90.7886 86.8686 90.2162 86.6999 89.7526C86.6589 89.6399 86.5945 89.5994 86.5068 89.6314ZM98.5534 97.123C97.4258 97.5334 96.4108 97.5126 95.5084 97.0607C94.6141 96.5916 93.932 95.7118 93.4623 94.4213C93.2069 93.7197 93.0022 92.8648 92.8481 91.8567C92.6895 90.8361 92.569 89.7448 92.4866 88.5829C92.4122 87.4039 92.3612 86.2306 92.3335 85.063C92.3184 83.8908 92.3243 82.7961 92.3513 81.7788C92.3784 80.7616 92.414 79.9044 92.4582 79.2072C92.515 78.6615 92.7502 78.3134 93.1636 78.163C93.4267 78.0672 93.6694 78.0711 93.8915 78.1747C94.1262 78.2737 94.3097 78.5049 94.442 78.8683C94.5058 79.0437 94.5572 79.4577 94.5961 80.1105C94.635 80.7632 94.6677 81.5742 94.6942 82.5436C94.7287 83.496 94.7632 84.5263 94.7977 85.6347C94.8447 86.7385 94.9065 87.844 94.9832 88.9512C95.0724 90.0539 95.1911 91.0819 95.3395 92.0354C95.4833 92.9763 95.6669 93.7537 95.8904 94.3676C95.9816 94.6182 96.1235 94.7936 96.316 94.8938C96.5211 94.9894 96.7427 94.9939 96.9807 94.9072C97.4944 94.7203 97.9864 94.4348 98.4568 94.0507C98.9397 93.6621 99.3918 93.228 99.8131 92.7483C100.247 92.264 100.643 91.7724 101 91.2733C101.358 90.7743 101.672 90.3123 101.943 89.8873C102.222 89.4452 102.449 89.0931 102.623 88.8311C102.849 88.479 103.019 88.2825 103.132 88.2414C103.558 88.0864 103.846 88.2156 103.997 88.6291C104.033 88.7293 103.983 88.9816 103.846 89.3861C103.734 89.7392 103.561 90.1995 103.327 90.7669C103.094 91.3342 102.807 91.9494 102.467 92.6125C102.134 93.2585 101.755 93.8931 101.329 94.5164C100.916 95.135 100.475 95.6785 100.007 96.1469C99.5392 96.6152 99.0546 96.9406 98.5534 97.123ZM125.314 76.1878C125.378 76.3632 125.21 76.6441 124.812 77.0304C124.413 77.4166 123.856 77.8747 123.141 78.4047C122.434 78.9175 121.633 79.4645 120.737 80.0457C119.838 80.6144 118.918 81.1689 117.98 81.7091C118.053 83.002 118.137 84.3052 118.232 85.6186C118.323 86.9195 118.43 88.1292 118.553 89.2478C118.591 89.5462 118.522 89.8054 118.346 90.0253C118.184 90.2407 117.977 90.394 117.726 90.4852C117.413 90.5992 117.124 90.6049 116.86 90.5025C116.6 90.4126 116.422 90.2361 116.327 89.973C116.162 89.5219 116.026 88.7559 115.916 87.6749C115.806 86.5938 115.699 85.363 115.594 83.9824C115.318 85.0191 115.011 85.9892 114.673 86.8926C114.335 87.7961 113.983 88.5628 113.616 89.1929C113.036 90.1704 112.374 91.0216 111.63 91.7463C110.903 92.479 110.102 93.0049 109.225 93.3241C107.821 93.8349 106.672 93.8557 105.778 93.3867C104.884 92.9176 104.186 91.994 103.684 90.6157C103.397 89.8264 103.199 89.0114 103.092 88.1707C102.993 87.313 102.974 86.4826 103.037 85.6795C103.095 84.8638 103.226 84.1136 103.431 83.429C103.636 82.7443 103.903 82.1718 104.232 81.7115C104.556 81.2386 104.938 80.9224 105.376 80.7628C106.454 80.3706 107.342 80.3738 108.04 80.7723C108.746 81.1537 109.25 81.7578 109.551 82.5848C109.756 83.1486 109.79 83.7466 109.651 84.3789C109.525 85.0066 109.278 85.6355 108.911 86.2655C108.54 86.883 108.084 87.4607 107.542 87.9986C107.012 88.5318 106.447 88.986 105.845 89.3609C105.877 89.4486 105.911 89.5426 105.948 89.6428C106.24 90.4447 106.591 90.9413 107.001 91.1325C107.424 91.3192 107.979 91.2871 108.669 91.0363C109.809 90.6213 110.806 89.8328 111.66 88.6706C112.522 87.4913 113.225 85.9157 113.77 83.9437C113.27 84.1682 112.832 84.3489 112.457 84.4857C111.918 84.6818 111.537 84.728 111.315 84.6244C111.101 84.5038 110.937 84.2868 110.823 83.9736C110.786 83.8733 110.787 83.7383 110.824 83.5686C110.87 83.3818 110.941 83.2069 111.038 83.044C111.143 82.8639 111.276 82.7443 111.439 82.685C111.96 82.4388 112.462 82.1994 112.944 81.9669C113.44 81.7298 113.908 81.4956 114.349 81.2642C114.675 79.4711 114.892 77.4553 115 75.2169C114.99 74.0994 115.066 73.1778 115.228 72.4521C115.397 71.7093 115.689 71.2627 116.102 71.1122C116.315 71.0347 116.542 71.0517 116.781 71.1633C117.028 71.2578 117.218 71.4867 117.35 71.85C117.409 72.0129 117.463 72.4543 117.513 73.1742C117.57 73.8771 117.626 74.7718 117.681 75.8586C117.736 76.9453 117.798 78.1288 117.867 79.4092C119.765 78.3493 121.218 77.4871 122.225 76.8227C123.227 76.1457 123.872 75.7548 124.16 75.6499C124.423 75.5541 124.662 75.5666 124.876 75.6873C125.09 75.808 125.236 75.9748 125.314 76.1878ZM105.431 87.4046C105.824 86.9636 106.184 86.4919 106.512 85.9894C106.836 85.4744 107.078 84.9891 107.238 84.5334C107.394 84.0651 107.413 83.6681 107.294 83.3424C107.189 83.0542 107.058 82.868 106.899 82.7838C106.753 82.6949 106.524 82.7075 106.211 82.8215C105.935 82.9219 105.726 83.2039 105.582 83.6675C105.439 84.1312 105.355 84.7008 105.331 85.3763C105.316 86.0348 105.349 86.7108 105.431 87.4046ZM129.564 85.4955C128.787 85.7782 128.063 85.7368 127.391 85.3714C126.714 84.9934 126.154 84.1967 125.712 82.9814C125.429 82.2046 125.234 81.3958 125.127 80.5552C125.027 79.6974 125.013 78.8585 125.083 78.0383C125.162 77.201 125.32 76.4269 125.558 75.716C125.808 75.0005 126.146 74.3881 126.57 73.8788C126.991 73.357 127.489 72.9911 128.065 72.7814C129.042 72.4257 129.903 72.4106 130.645 72.7362C131.388 73.0618 131.908 73.6317 132.204 74.4461C132.432 75.0726 132.464 75.7065 132.3 76.3479C132.145 76.9722 131.845 77.592 131.402 78.2073C130.959 78.8225 130.434 79.4253 129.826 80.0155C129.217 80.6058 128.579 81.1716 127.911 81.7129C128.012 82.1867 128.127 82.5991 128.254 82.9499C128.332 83.1629 128.49 83.226 128.728 83.1394C129.292 82.9342 129.861 82.6276 130.436 82.2196C131.019 81.7945 131.591 81.3171 132.15 80.7872C132.704 80.2448 133.232 79.7053 133.731 79.1686C134.227 78.6194 134.673 78.1095 135.069 77.6389C135.473 77.1512 135.806 76.7604 136.068 76.4664C136.338 76.1553 136.523 75.9816 136.623 75.9451C136.899 75.8448 137.129 75.8532 137.314 75.9705C137.498 76.0878 137.625 76.2404 137.693 76.4283C137.725 76.516 137.627 76.7718 137.398 77.1956C137.181 77.6149 136.86 78.1362 136.435 78.7594C136.017 79.3656 135.53 80.0179 134.976 80.7163C134.429 81.3977 133.845 82.0717 133.222 82.7382C132.607 83.3877 131.983 83.9552 131.351 84.4407C130.736 84.9341 130.14 85.2857 129.564 85.4955ZM127.621 79.9239C128.026 79.4363 128.419 78.9383 128.802 78.4302C129.192 77.9049 129.481 77.374 129.669 76.8374C129.852 76.2883 129.841 75.7318 129.636 75.168C129.577 75.0051 129.494 74.9146 129.388 74.8964C129.278 74.8656 129.141 74.8799 128.978 74.9392C128.54 75.0988 128.21 75.4389 127.988 75.9596C127.778 76.4757 127.647 77.0909 127.595 77.8051C127.551 78.5023 127.56 79.2086 127.621 79.9239ZM142.511 68.6729C142.602 66.7808 142.594 64.8682 142.487 62.9351C142.459 62.5478 142.505 62.226 142.625 61.9696C142.757 61.7087 142.998 61.5144 143.349 61.3867C143.637 61.2818 143.889 61.2897 144.103 61.4104C144.312 61.5186 144.47 61.7167 144.575 62.0049C144.661 62.243 144.716 62.7054 144.739 63.3923C144.757 64.0667 144.791 64.9199 144.841 65.952C144.89 66.984 144.992 68.1602 145.146 69.4804C145.3 70.8006 145.541 72.2239 145.87 73.7502C146.198 75.2766 146.664 76.8667 147.266 78.5206C147.43 78.9716 147.477 79.3732 147.406 79.7252C147.353 80.0852 147.119 80.3404 146.706 80.4909C146.255 80.6551 145.866 80.6193 145.539 80.3836C145.224 80.1433 144.978 79.7789 144.8 79.2902C144.449 78.3255 144.188 77.5122 144.019 76.8504C143.857 76.1715 143.729 75.5866 143.635 75.0957C143.404 76.3716 143.083 77.5171 142.673 78.5322C142.27 79.5302 141.828 80.3437 141.347 80.9726C140.871 81.6141 140.408 82.0169 139.957 82.1811C139.218 82.4501 138.541 82.4623 137.927 82.2176C137.313 81.9728 136.853 81.4307 136.547 80.5913C136.31 79.9398 136.223 79.2124 136.285 78.4093C136.343 77.5937 136.506 76.7541 136.773 75.8905C137.041 75.027 137.374 74.189 137.774 73.3767C138.181 72.5473 138.616 71.7931 139.079 71.114C139.536 70.4224 139.987 69.847 140.43 69.3878C140.873 68.9286 141.263 68.6374 141.602 68.5143C141.978 68.3775 142.281 68.4304 142.511 68.6729ZM142.448 69.8451C142.391 69.9226 142.328 70.0024 142.258 70.0844C142.197 70.1494 142.138 70.2206 142.081 70.298C141.714 70.772 141.339 71.3201 140.955 71.9422C140.567 72.5517 140.203 73.2091 139.864 73.9143C139.52 74.607 139.229 75.3088 138.991 76.0197C138.761 76.7135 138.613 77.3777 138.546 78.0122C138.487 78.6297 138.546 79.1827 138.724 79.6713C138.756 79.759 138.816 79.808 138.905 79.8182C138.994 79.8285 139.07 79.8222 139.132 79.7994C139.571 79.6398 139.97 79.2746 140.33 78.7037C140.702 78.1284 141.026 77.4003 141.302 76.5197C141.585 75.622 141.819 74.6075 142.003 73.4763C142.2 72.3405 142.348 71.1301 142.448 69.8451Z" fill="white"/>
</svg>
