<svg width="182" height="182" viewBox="0 0 182 182" fill="none" xmlns="http://www.w3.org/2000/svg">
<path d="M67.3047 3.58936C79.6182 0.289962 92.2278 4.73883 100.754 13.7007C111.306 7.24261 124.645 6.21897 135.681 12.5903H135.68C146.724 18.9602 152.496 31.0195 152.181 43.3921C164.206 46.2944 174.365 54.9908 177.665 67.3052C180.964 79.6173 176.525 92.2325 167.553 100.755C174.011 111.307 175.034 124.646 168.663 135.681L168.662 135.68C162.292 146.724 150.233 152.497 137.86 152.181C134.958 164.206 126.263 174.366 113.948 177.666C101.636 180.964 89.0199 176.526 80.4971 167.553C69.9452 174.011 56.6072 175.035 45.5723 168.664V168.663C34.5285 162.293 28.7544 150.233 29.0703 137.861C17.0459 134.958 6.88826 126.262 3.58887 113.949C0.28943 101.635 4.73796 89.0246 13.7002 80.4985C7.34793 70.1187 6.25375 57.0426 12.2842 46.1147L12.5898 45.5728C18.9598 34.5291 31.0192 28.7553 43.3916 29.0708C46.2944 17.0465 54.9911 6.88883 67.3047 3.58936Z" fill="#101213" stroke="white" stroke-width="5"/>
<path d="M51.1741 103.003C50.911 103.098 50.6439 103.125 50.3728 103.082C50.1016 103.038 49.8402 102.885 49.5883 102.622C49.349 102.354 49.1518 101.93 48.9967 101.348C48.0201 100.029 47.0833 98.7025 46.1864 97.3688C45.3021 96.0306 44.4205 94.6416 43.5418 93.202C43.4647 94.3936 43.4406 95.5943 43.4694 96.804C43.4937 98.0012 43.535 99.1284 43.5934 100.186C43.6473 101.23 43.6715 102.115 43.666 102.841C43.6833 103.473 43.6481 103.961 43.5605 104.305C43.4683 104.637 43.3419 104.874 43.1814 105.018C43.0379 105.169 42.8784 105.277 42.703 105.341C42.277 105.496 41.9148 105.514 41.6163 105.396C41.3178 105.278 41.0728 104.955 40.8813 104.429C40.7809 104.153 40.7033 103.706 40.6485 103.088C40.5891 102.457 40.5501 101.726 40.5316 100.896C40.5211 100.048 40.5368 99.1555 40.5787 98.218C40.616 97.2679 40.6812 96.3361 40.7744 95.4225C40.8675 94.5088 40.988 93.6704 41.1359 92.9071C41.2792 92.1313 41.4578 91.4916 41.6718 90.9881C41.8859 90.4845 42.1307 90.1826 42.4063 90.0822C42.6444 89.9956 42.8728 89.9408 43.0915 89.918C43.3056 89.8826 43.5409 89.9247 43.7972 90.0442C44.049 90.1512 44.3504 90.375 44.7013 90.7155C44.9782 90.9694 45.3053 91.3612 45.6825 91.8908C46.0551 92.4079 46.4534 93.0149 46.8774 93.7119C47.2968 94.3964 47.7299 95.1185 48.1767 95.8782C48.636 96.6333 49.0884 97.3697 49.534 98.0872C49.2212 95.7463 48.9102 93.7028 48.601 91.9566C48.2997 90.1933 48.047 88.8167 47.8428 87.8268C47.6386 86.837 47.5336 86.3147 47.5279 86.26C47.4834 85.8648 47.4862 85.58 47.5362 85.4057C47.5817 85.2189 47.6626 85.0901 47.7787 85.0194C47.8904 84.9363 48.0276 84.865 48.1905 84.8057C48.203 84.8012 48.2093 84.7989 48.2093 84.7989C48.535 84.6803 48.9024 84.6956 49.3114 84.8447C49.7329 84.9892 50.0258 85.287 50.19 85.7381C50.2447 85.8885 50.3365 86.2381 50.4654 86.7872C50.5897 87.3237 50.7329 88.0094 50.8949 88.8443C51.0648 89.6622 51.2291 90.5814 51.3878 91.6021C51.5419 92.6102 51.6806 93.6735 51.8039 94.7921C51.9353 95.8936 52.033 97.0003 52.0971 98.1121C52.1612 99.2238 52.1712 100.284 52.1271 101.294C52.109 101.868 51.9896 102.28 51.7686 102.531C51.5602 102.777 51.3621 102.934 51.1741 103.003ZM60.1334 99.0607C59.3566 99.3434 58.6321 99.3021 57.9599 98.9366C57.2831 98.5586 56.7236 97.7619 56.2812 96.5466C55.9985 95.7698 55.8034 94.9611 55.6961 94.1204C55.5968 93.2627 55.5823 92.4237 55.6527 91.6035C55.731 90.7662 55.8891 89.9921 56.127 89.2812C56.3774 88.5657 56.715 87.9533 57.1397 87.444C57.5599 86.9222 58.0582 86.5564 58.6345 86.3466C59.6118 85.9909 60.4719 85.9758 61.2147 86.3014C61.9575 86.627 62.4771 87.197 62.7735 88.0114C63.0015 88.6378 63.0336 89.2717 62.8698 89.9131C62.7139 90.5374 62.4145 91.1572 61.9715 91.7725C61.5286 92.3877 61.0031 92.9905 60.3949 93.5808C59.7868 94.171 59.1485 94.7368 58.48 95.2781C58.5815 95.7519 58.6961 96.1643 58.8238 96.5151C58.9013 96.7281 59.0591 96.7913 59.2971 96.7046C59.861 96.4994 60.4304 96.1928 61.0056 95.7848C61.5887 95.3598 62.1598 94.8823 62.719 94.3524C63.2736 93.81 63.8009 93.2705 64.3008 92.7338C64.7962 92.1846 65.242 91.6747 65.6383 91.2041C66.0425 90.7164 66.3756 90.3256 66.6375 90.0316C66.9074 89.7206 67.0925 89.5468 67.1927 89.5103C67.4683 89.41 67.6985 89.4185 67.883 89.5357C68.0676 89.653 68.1941 89.8056 68.2625 89.9936C68.2944 90.0813 68.196 90.337 67.9671 90.7609C67.7508 91.1801 67.4297 91.7014 67.0039 92.3246C66.586 92.9308 66.0998 93.5831 65.5452 94.2815C64.9986 94.9629 64.4139 95.6369 63.7909 96.3035C63.176 96.9529 62.5525 97.5204 61.9204 98.0059C61.3054 98.4993 60.7097 98.8509 60.1334 99.0607ZM58.1907 93.4891C58.5949 93.0015 58.9883 92.5036 59.3709 91.9954C59.7615 91.4701 60.0507 90.9392 60.2385 90.4026C60.4217 89.8535 60.4108 89.297 60.2055 88.7332C60.1463 88.5703 60.0636 88.4798 59.9577 88.4616C59.8472 88.4309 59.7105 88.4451 59.5476 88.5044C59.1091 88.664 58.7788 89.0042 58.5569 89.5248C58.3474 90.0409 58.2166 90.6561 58.1644 91.3703C58.1202 92.0675 58.1289 92.7738 58.1907 93.4891ZM69.4299 94.5277C69.1292 94.6372 68.8735 94.6167 68.6627 94.4664C68.4474 94.3036 68.2952 94.061 68.2063 93.7387C68.1549 93.5587 68.2016 93.2579 68.3461 92.8364C68.4861 92.4024 68.687 91.8823 68.9488 91.2762C69.2061 90.6575 69.4958 89.9916 69.818 89.2784C70.1481 88.5481 70.4885 87.807 70.8391 87.0551C69.7806 86.291 68.9643 85.6659 68.39 85.1796C67.8282 84.6888 67.471 84.2726 67.3183 83.9309C67.1518 83.5516 67.1005 83.2156 67.1642 82.9228C67.2404 82.6255 67.4539 82.4129 67.8048 82.2853C68.0052 82.2123 68.2462 82.231 68.5276 82.3414C68.8215 82.4473 69.2288 82.6892 69.7495 83.0673C70.2827 83.4408 71.004 83.9799 71.9132 84.6848C72.4631 83.5056 72.9156 82.5463 73.2708 81.8069C73.634 81.0504 73.93 80.4602 74.1588 80.0364C74.4002 79.608 74.5943 79.3033 74.7412 79.1221C74.9006 78.9364 75.0493 78.8184 75.1871 78.7682C75.4878 78.6588 75.7395 78.6878 75.9424 78.8552C76.1531 79.0055 76.3053 79.2481 76.3988 79.5829C76.4695 79.8552 76.4292 80.2317 76.2778 80.7124C76.1344 81.1761 75.9233 81.707 75.6443 82.3052C75.3609 82.8908 75.0466 83.5088 74.7017 84.1594C74.3647 84.7929 74.0379 85.4155 73.7214 86.0273C74.8995 86.8471 75.9774 87.5474 76.9549 88.1281C77.9405 88.6917 78.7443 89.1653 79.3664 89.549C79.9839 89.9202 80.3445 90.2288 80.4482 90.4748C80.5691 90.7288 80.5754 90.9606 80.4672 91.1703C80.3716 91.3753 80.1797 91.5303 79.8915 91.6352C79.7287 91.6945 79.5077 91.7111 79.2286 91.6849C78.9495 91.6588 78.5456 91.5433 78.017 91.3384C77.5009 91.129 76.8082 90.7852 75.9389 90.307C75.0776 89.8117 73.9769 89.1268 72.6371 88.2524C72.3149 88.9656 71.9927 89.6788 71.6705 90.392C71.3609 91.1006 71.0626 91.7625 70.7758 92.3778C70.4969 92.9759 70.2384 93.4743 70.0005 93.8731C69.7705 94.2548 69.5803 94.473 69.4299 94.5277ZM92.0689 75.9866C92.1237 76.1369 92.1214 76.2867 92.0622 76.4359C92.003 76.5852 91.9097 76.7185 91.7821 76.8359C91.601 77.0011 91.2725 77.2484 90.7964 77.5777C90.3203 77.9071 89.7384 78.2963 89.0505 78.7453C88.3751 79.1898 87.6456 79.661 86.862 80.1591C86.0739 80.6446 85.2834 81.1238 84.4907 81.5968C84.6028 82.9182 84.7222 84.2794 84.8491 85.6805C84.9714 87.0691 85.0868 88.4389 85.1954 89.7899C85.2297 90.274 85.2002 90.6608 85.1069 90.9501C85.0182 91.252 84.7608 91.4805 84.3348 91.6355C83.8712 91.8043 83.5032 91.7679 83.2309 91.5265C82.9757 91.2931 82.8132 90.9052 82.7436 90.363C82.5723 88.8788 82.4101 87.4976 82.2571 86.2195C82.1166 84.9369 82.0018 83.9003 81.9127 83.1098C81.2066 83.5087 80.5853 83.8483 80.0488 84.1287C79.5078 84.3966 79.116 84.5676 78.8734 84.6417C78.6011 84.7124 78.3431 84.6857 78.0993 84.5616C77.8555 84.4375 77.6897 84.2353 77.6019 83.9551C77.5357 83.6954 77.571 83.4414 77.7076 83.193C77.8397 82.9321 78.0367 82.7327 78.2986 82.5948C78.6734 82.4158 79.154 82.1771 79.7406 81.8784C80.3272 81.5798 80.9718 81.2458 81.6746 80.8765C81.6049 80.1783 81.5534 79.4521 81.5201 78.698C81.4823 77.9313 81.4622 77.1938 81.4597 76.4852C81.4652 75.7596 81.4877 75.1199 81.5275 74.5663C81.5672 74.0127 81.636 73.5974 81.7338 73.3206C81.8124 73.1075 81.9359 72.9207 82.1045 72.76C82.2855 72.5948 82.4763 72.4757 82.6768 72.4027C82.9399 72.307 83.1871 72.3234 83.4184 72.4521C83.6497 72.5807 83.8109 72.7703 83.9021 73.0209C83.9386 73.1212 83.9711 73.2299 83.9996 73.3473C84.0236 73.4521 84.035 73.5614 84.0339 73.6753C84.0238 74.3884 84.0429 75.2399 84.091 76.2298C84.1517 77.2152 84.2317 78.2928 84.3312 79.4627C85.2207 78.9828 86.0915 78.5098 86.9434 78.0437C87.8033 77.5604 88.5801 77.1216 89.2737 76.7273C89.9753 76.3158 90.5334 75.9779 90.9479 75.7135C91.1666 75.5346 91.3864 75.4759 91.6075 75.5373C91.8239 75.5862 91.9777 75.736 92.0689 75.9866ZM106.29 82.3035C105.777 82.4905 105.359 82.5504 105.036 82.4833C104.731 82.4242 104.498 82.3103 104.337 82.1418C104.189 81.9687 104.094 81.8257 104.053 81.713C103.921 81.3496 103.975 80.9897 104.214 80.633C104.461 80.2593 104.791 79.9972 105.204 79.8467C105.605 79.7008 106.08 79.4643 106.628 79.1372C107.183 78.793 107.752 78.3873 108.334 77.9201C108.929 77.4483 109.471 76.9315 109.962 76.3698C110.466 75.8035 110.869 75.2167 111.173 74.6095C111.477 74.0022 111.621 73.4035 111.605 72.8135C111.311 72.8637 111.022 72.9264 110.737 73.0017C110.448 73.0644 110.165 73.146 109.89 73.2463C108.962 73.5837 108.04 74.0328 107.124 74.5936C106.207 75.1543 105.294 75.7065 104.385 76.2501C104.165 76.3869 103.936 76.4206 103.698 76.3511C103.769 76.6234 103.833 76.8768 103.89 77.1115C103.955 77.329 104.027 77.5654 104.105 77.8205C104.304 78.4436 104.42 78.9402 104.456 79.3104C104.499 79.6635 104.496 79.9272 104.446 80.1015C104.396 80.2759 104.319 80.3961 104.215 80.4622C104.112 80.5283 104.01 80.5795 103.91 80.616C103.872 80.6297 103.847 80.6388 103.834 80.6434C103.609 80.7255 103.375 80.7466 103.134 80.7068C102.892 80.667 102.645 80.4945 102.392 80.1893C102.135 79.8716 101.873 79.3493 101.609 78.6226C100.77 76.3173 100.309 74.2715 100.227 72.4853C100.152 70.6821 100.438 69.1875 101.085 68.0014C101.739 66.7983 102.737 65.9528 104.078 65.4648C105.13 65.0817 106.056 65.0712 106.854 65.4332C107.648 65.7827 108.239 66.4899 108.627 67.5549C108.823 68.0937 108.913 68.6712 108.896 69.2875C108.879 69.9038 108.772 70.5457 108.575 71.2133C108.795 71.0765 109.013 70.9546 109.229 70.8474C109.441 70.7278 109.647 70.6315 109.848 70.5585C111.025 70.1298 111.974 70.0259 112.693 70.2467C113.407 70.4549 113.892 70.9099 114.147 71.6115C114.403 72.3131 114.442 73.0439 114.264 73.8037C114.099 74.559 113.784 75.3121 113.32 76.0629C112.863 76.7967 112.322 77.5117 111.695 78.2079C111.065 78.8915 110.413 79.5188 109.741 80.0897C109.065 80.6481 108.42 81.1171 107.806 81.4966C107.196 81.8886 106.691 82.1576 106.29 82.3035ZM103.219 74.3333C103.281 74.2683 103.353 74.2136 103.436 74.1692C104.495 73.5708 105.266 72.9993 105.749 72.4547C106.232 71.91 106.497 71.3523 106.545 70.7816C106.593 70.2109 106.493 69.5872 106.247 68.9106C106.183 68.7352 106.09 68.5564 105.967 68.3742C105.844 68.192 105.682 68.0593 105.481 67.9762C105.289 67.876 105.048 67.8784 104.76 67.9832C103.808 68.3298 103.22 69.0334 102.996 70.094C102.78 71.1376 102.854 72.5506 103.219 74.3333ZM120.133 76.8184C119.782 76.9461 119.425 76.941 119.063 76.8033C118.713 76.661 118.44 76.3205 118.244 75.7817C118.139 75.4936 118.029 75.0727 117.912 74.5191C117.808 73.961 117.714 73.3498 117.628 72.6857C117.538 72.0091 117.463 71.3342 117.402 70.661C117.354 69.9832 117.325 69.3766 117.314 68.8412C117.299 68.2933 117.311 67.8775 117.35 67.5938C117.408 67.2464 117.494 67.0163 117.609 66.9034C117.732 66.7736 117.863 66.6835 118.001 66.6334C118.251 66.5422 118.51 66.533 118.778 66.6058C119.058 66.6741 119.292 66.965 119.479 67.4787C119.552 67.6792 119.633 68.0186 119.722 68.4971C119.806 68.9629 119.899 69.5108 120.001 70.1408C120.102 70.7707 120.198 71.4239 120.288 72.1006C120.391 72.7726 120.482 73.4134 120.562 74.0228C120.65 74.6151 120.725 75.1129 120.787 75.5161C120.838 75.8522 120.791 76.1319 120.645 76.3552C120.516 76.5865 120.346 76.7409 120.133 76.8184ZM118.094 64.4923C117.68 64.6428 117.255 64.6629 116.817 64.5525C116.375 64.4296 116.061 64.1113 115.874 63.5976C115.719 63.1716 115.7 62.7883 115.817 62.4476C115.935 62.107 116.117 61.8279 116.364 61.6102C116.619 61.3755 116.859 61.2171 117.085 61.135C117.31 61.0529 117.579 61.0118 117.891 61.0117C118.199 60.9991 118.498 61.0816 118.79 61.2592C119.09 61.4197 119.322 61.7255 119.486 62.1766C119.595 62.4773 119.589 62.7917 119.467 63.1198C119.341 63.4354 119.146 63.7191 118.883 63.9709C118.633 64.2182 118.37 64.392 118.094 64.4923ZM128.392 79.6228C127.452 79.9648 126.713 80.1558 126.174 80.1959C125.648 80.2313 125.256 80.1682 124.998 80.0065C124.745 79.8574 124.578 79.67 124.496 79.4445C124.382 79.1313 124.388 78.8379 124.516 78.5645C124.656 78.2865 124.895 78.086 125.233 77.9628C125.459 77.8808 125.796 77.7935 126.245 77.7011C126.694 77.6087 127.131 77.485 127.557 77.3299C128.81 76.8739 129.734 76.197 130.33 75.2992C130.93 74.4139 131.243 73.2854 131.268 71.9139C131.29 70.5298 131.053 68.885 130.558 66.9794C130.209 68.7098 129.663 70.1926 128.921 71.4276C128.191 72.6581 127.262 73.4786 126.134 73.889C124.806 74.3724 123.905 73.9626 123.431 72.6595C123.203 72.0331 123.133 71.3137 123.22 70.5015C123.307 69.6892 123.51 68.8422 123.828 67.9604C124.145 67.0786 124.533 66.2139 124.99 65.3663C125.444 64.5061 125.924 63.7211 126.432 63.0112C126.952 62.2968 127.459 61.7009 127.952 61.2235C128.441 60.7335 128.867 60.4224 129.23 60.2901C129.518 60.1852 129.787 60.1441 130.036 60.1669C130.298 60.185 130.547 60.3216 130.782 60.5767C131.012 60.8193 131.229 61.2225 131.435 61.7863C132.005 63.3525 132.5 64.889 132.921 66.396C133.337 67.8904 133.608 69.3171 133.734 70.6761C133.859 72.035 133.778 73.2921 133.489 74.4473C133.212 75.5979 132.666 76.6125 131.851 77.491C131.036 78.3695 129.883 79.0801 128.392 79.6228ZM125.7 71.4081C125.732 71.4958 125.785 71.5259 125.86 71.4986C126.111 71.4074 126.401 71.1527 126.731 70.7345C127.057 70.3038 127.382 69.774 127.707 69.1451C128.039 68.4991 128.341 67.8076 128.612 67.0705C128.878 66.3209 129.081 65.5729 129.221 64.8268C129.373 64.076 129.426 63.3828 129.379 62.7472C128.865 63.3602 128.348 64.045 127.828 64.8015C127.317 65.541 126.857 66.3044 126.448 67.0916C126.052 67.8743 125.772 68.6433 125.607 69.3986C125.45 70.1369 125.481 70.8067 125.7 71.4081ZM61.3498 107.28C60.7484 107.499 60.2831 107.605 59.9538 107.597C59.6326 107.572 59.3985 107.494 59.2515 107.363C59.1125 107.215 59.0179 107.072 58.9677 106.934C58.9039 106.759 58.9311 106.522 59.0495 106.223C59.1634 105.912 59.4879 105.596 60.0232 105.273C60.554 104.938 61.1958 104.577 61.9486 104.189C62.6969 103.789 63.5022 103.39 64.3644 102.991C65.222 102.579 66.0968 102.176 66.9886 101.78C67.8805 101.385 68.7353 101.024 69.5531 100.698C70.3663 100.359 71.0925 100.074 71.7314 99.841C72.3955 99.5993 72.9229 99.4499 73.3136 99.3928C73.7043 99.3358 73.9953 99.3362 74.1867 99.3943C74.3907 99.4478 74.528 99.5326 74.5986 99.6488C74.6818 99.7604 74.7439 99.8726 74.785 99.9853C74.7941 100.01 74.8009 100.029 74.8055 100.042C74.8602 100.192 74.8819 100.369 74.8706 100.571C74.8718 100.77 74.7824 100.972 74.6025 101.18C74.418 101.375 74.1002 101.554 73.6492 101.718C73.4863 101.778 73.1321 101.935 72.5865 102.19C72.0409 102.446 71.3746 102.759 70.5876 103.131C69.8005 103.502 68.9634 103.892 68.0761 104.3C68.1435 104.914 68.2263 105.629 68.3245 106.444C68.4352 107.256 68.5534 108.106 68.679 108.997C68.8171 109.883 68.9569 110.755 69.0984 111.611C69.2353 112.455 69.3768 113.234 69.5228 113.947C69.6643 114.648 69.7937 115.218 69.9112 115.657C70.0709 116.252 70.0499 116.721 69.8484 117.064C69.6548 117.39 69.4202 117.603 69.1446 117.703C68.9441 117.776 68.7277 117.805 68.4953 117.79C68.2675 117.788 68.043 117.678 67.822 117.461C67.5964 117.231 67.3855 116.846 67.1894 116.308C66.9888 115.756 66.7926 115.061 66.601 114.223C66.4048 113.372 66.2194 112.454 66.0448 111.467C65.8828 110.476 65.7373 109.472 65.6082 108.455C65.4917 107.433 65.4043 106.472 65.346 105.57C64.5293 105.939 63.773 106.278 63.0771 106.588C62.3766 106.885 61.8008 107.116 61.3498 107.28ZM79.9586 115.129C79.3823 115.339 78.9095 115.326 78.5404 115.092C78.1712 114.857 77.8727 114.427 77.6446 113.8C77.4349 113.224 77.2678 112.434 77.1433 111.429C77.0268 110.407 76.9405 109.254 76.8843 107.969C76.836 106.667 76.8203 105.317 76.8369 103.921C76.849 102.512 76.8891 101.121 76.957 99.7481C77.0204 98.3629 77.1077 97.0825 77.219 95.9069C77.2849 95.3863 77.4136 94.9989 77.6049 94.7448C77.7962 94.4907 78.0422 94.309 78.3429 94.1995C78.631 94.0946 78.905 94.0872 79.1647 94.1771C79.4199 94.2545 79.6091 94.4623 79.7322 94.8006C79.7596 94.8758 79.7642 95.2004 79.7462 95.7745C79.7236 96.3362 79.693 97.0709 79.6546 97.9788C79.6115 98.8742 79.5737 99.8812 79.541 101C79.5037 102.106 79.4824 103.256 79.477 104.45C79.4671 105.631 79.4903 106.786 79.5464 107.915C79.6026 109.044 79.694 110.075 79.8207 111.008C80.0449 110.259 80.2776 109.437 80.5189 108.54C80.7681 107.626 81.0258 106.717 81.2921 105.811C81.5664 104.888 81.8509 104.033 82.1457 103.244C82.453 102.451 82.7661 101.791 83.0849 101.264C83.4037 100.736 83.7323 100.411 84.0706 100.288C84.697 100.06 85.262 100.053 85.7656 100.267C86.2771 100.464 86.6857 100.982 86.9912 101.821C87.1326 102.21 87.2284 102.707 87.2787 103.313C87.3244 103.906 87.3503 104.543 87.3562 105.222C87.37 105.883 87.4021 106.517 87.4524 107.123C87.5027 107.729 87.6031 108.239 87.7536 108.652C87.8357 108.878 87.9832 108.952 88.1962 108.874C88.8102 108.651 89.3825 108.294 89.9132 107.803C90.4564 107.307 90.9455 106.76 91.3805 106.162C91.8234 105.547 92.2123 104.958 92.547 104.396C92.8897 103.818 93.1635 103.342 93.3685 102.969C93.5085 102.691 93.6548 102.489 93.8074 102.363C93.9555 102.224 94.1047 102.127 94.255 102.072C94.7687 101.885 95.1191 102.048 95.306 102.562C95.3425 102.662 95.3693 102.794 95.3865 102.959C95.399 103.11 95.3438 103.329 95.2209 103.615C95.098 103.901 94.9067 104.311 94.6471 104.845C94.3876 105.379 94.0682 105.964 93.6891 106.599C93.3225 107.229 92.8989 107.858 92.4183 108.487C91.9458 109.099 91.4293 109.649 90.869 110.136C90.3087 110.624 89.7216 110.98 89.1077 111.203C88.1805 111.541 87.3706 111.537 86.6779 111.194C85.9897 110.862 85.4838 110.252 85.16 109.362C84.9365 108.748 84.7814 107.932 84.6945 106.914C84.603 105.883 84.5361 104.822 84.4936 103.731C84.2102 104.316 83.9375 104.99 83.6757 105.752C83.4094 106.502 83.1505 107.291 82.899 108.121C82.6429 108.938 82.3908 109.746 82.1427 110.546C81.9026 111.328 81.663 112.054 81.424 112.723C81.1804 113.379 80.9379 113.921 80.6966 114.35C80.4552 114.778 80.2092 115.038 79.9586 115.129ZM96.0959 107.915C95.7451 108.042 95.3886 108.037 95.0263 107.9C94.6765 107.757 94.4036 107.417 94.2075 106.878C94.1026 106.59 93.992 106.169 93.8756 105.615C93.7718 105.057 93.6771 104.446 93.5915 103.782C93.5013 103.105 93.4259 102.431 93.3653 101.757C93.3173 101.08 93.288 100.473 93.2776 99.9376C93.2627 99.3897 93.2745 98.9739 93.3131 98.6902C93.3711 98.3428 93.4576 98.1126 93.5727 97.9998C93.6957 97.8699 93.8261 97.7799 93.9639 97.7297C94.2145 97.6385 94.4736 97.6293 94.7413 97.7022C95.0216 97.7704 95.2552 98.0614 95.4422 98.5751C95.5151 98.7756 95.5961 99.115 95.6851 99.5934C95.7695 100.059 95.8625 100.607 95.9641 101.237C96.0657 101.867 96.1616 102.52 96.2518 103.197C96.3545 103.869 96.4458 104.51 96.5257 105.119C96.6136 105.711 96.6884 106.209 96.75 106.613C96.8014 106.949 96.7542 107.228 96.6084 107.452C96.4798 107.683 96.3089 107.837 96.0959 107.915ZM94.0572 95.5887C93.6438 95.7392 93.2183 95.7592 92.7808 95.6489C92.3388 95.526 92.0243 95.2077 91.8373 94.694C91.6823 94.268 91.6634 93.8846 91.7806 93.544C91.8978 93.2034 92.08 92.9242 92.3272 92.7066C92.5823 92.4718 92.8226 92.3134 93.0481 92.2313C93.2736 92.1493 93.5424 92.1082 93.8546 92.1081C94.1621 92.0955 94.4618 92.178 94.7534 92.3556C95.0531 92.5161 95.285 92.8219 95.4491 93.273C95.5586 93.5737 95.5524 93.8881 95.4306 94.2162C95.3043 94.5317 95.1096 94.8155 94.8465 95.0673C94.596 95.3145 94.3329 95.4883 94.0572 95.5887ZM102.822 105.147C102.522 105.257 102.184 105.266 101.811 105.175C101.445 105.067 101.098 104.853 100.768 104.533C100.434 104.2 100.165 103.752 99.9596 103.188C99.686 102.437 99.4943 101.598 99.3847 100.673C99.2876 99.7437 99.2344 98.7982 99.225 97.8368C99.2156 96.8753 99.2181 95.9663 99.2327 95.1097C99.2383 94.6962 99.3185 94.3903 99.4734 94.192C99.6237 93.9812 99.8617 93.8166 100.187 93.698C100.927 93.4289 101.431 93.664 101.7 94.4032C101.745 94.5285 101.778 94.7934 101.798 95.1978C101.812 95.5896 101.819 96.0766 101.818 96.6587C101.83 97.2363 101.845 97.8622 101.863 98.5366C101.89 99.1939 101.933 99.8591 101.994 100.532C102.062 101.188 102.151 101.802 102.259 102.373C102.388 101.829 102.509 101.168 102.623 100.389C102.744 99.5923 102.873 98.7578 103.01 97.8852C103.159 97.008 103.326 96.181 103.511 95.404C103.692 94.6145 103.91 93.9464 104.165 93.3995C104.42 92.8526 104.729 92.5131 105.093 92.3808C105.406 92.2668 105.723 92.2223 106.045 92.2473C106.374 92.2551 106.706 92.3895 107.043 92.6502C107.374 92.8985 107.708 93.309 108.044 93.8819C108.393 94.4502 108.75 95.2356 109.115 96.2379C109.297 96.7391 109.519 97.2118 109.78 97.656C110.049 98.0831 110.353 98.4122 110.692 98.6433C111.027 98.8619 111.402 98.896 111.815 98.7455C112.529 98.4856 113.12 98.1215 113.588 97.6531C114.056 97.1848 114.44 96.6977 114.738 96.1918C115.036 95.686 115.282 95.249 115.474 94.881C115.586 94.6418 115.686 94.4492 115.775 94.3034C115.876 94.153 115.97 94.0618 116.058 94.0299C116.321 93.9342 116.534 93.9347 116.697 94.0314C116.873 94.1237 117.004 94.2888 117.09 94.5269C117.136 94.6521 117.114 94.9227 117.024 95.3385C116.934 95.7543 116.775 96.2522 116.546 96.8321C116.325 97.3949 116.043 97.9657 115.701 98.5445C115.358 99.1232 114.953 99.6468 114.484 100.115C114.016 100.583 113.488 100.925 112.899 101.139C111.909 101.499 111.025 101.623 110.246 101.509C109.474 101.378 108.779 100.95 108.161 100.225C107.537 99.4867 106.959 98.3847 106.425 96.9188C106.412 96.8812 106.389 96.8186 106.357 96.7308C106.215 96.3424 106.084 96.0002 105.962 95.704C105.852 95.4033 105.745 95.1658 105.639 94.9916C105.567 95.4575 105.479 96.0146 105.374 96.6628C105.282 97.3064 105.179 97.9968 105.064 98.7338C104.945 99.4584 104.81 100.181 104.661 100.902C104.508 101.611 104.336 102.269 104.146 102.878C103.968 103.482 103.769 103.987 103.548 104.394C103.327 104.8 103.085 105.052 102.822 105.147ZM120.653 104.787C119.713 105.129 118.974 105.32 118.435 105.36C117.909 105.396 117.517 105.333 117.259 105.171C117.006 105.022 116.839 104.834 116.757 104.609C116.643 104.296 116.65 104.002 116.777 103.729C116.917 103.451 117.156 103.25 117.494 103.127C117.72 103.045 118.057 102.958 118.506 102.866C118.955 102.773 119.392 102.649 119.818 102.494C121.071 102.038 121.995 101.361 122.591 100.464C123.191 99.5783 123.504 98.4499 123.53 97.0784C123.551 95.6943 123.314 94.0494 122.819 92.1438C122.47 93.8743 121.924 95.357 121.182 96.5921C120.452 97.8226 119.523 98.643 118.395 99.0534C117.067 99.5368 116.166 99.127 115.692 97.824C115.464 97.1975 115.394 96.4782 115.481 95.6659C115.569 94.8537 115.771 94.0067 116.089 93.1249C116.406 92.2431 116.794 91.3784 117.252 90.5307C117.705 89.6705 118.185 88.8855 118.693 88.1757C119.213 87.4613 119.72 86.8654 120.213 86.3879C120.702 85.8979 121.128 85.5868 121.491 85.4546C121.779 85.3497 122.048 85.3086 122.298 85.3313C122.56 85.3495 122.808 85.4861 123.043 85.7412C123.273 85.9838 123.491 86.3869 123.696 86.9508C124.266 88.5169 124.761 90.0535 125.182 91.5604C125.598 93.0549 125.869 94.4816 125.995 95.8405C126.121 97.1995 126.039 98.4566 125.75 99.6117C125.474 100.762 124.928 101.777 124.112 102.655C123.297 103.534 122.144 104.245 120.653 104.787ZM117.961 96.5725C117.993 96.6602 118.046 96.6904 118.121 96.663C118.372 96.5718 118.662 96.3171 118.993 95.899C119.318 95.4683 119.643 94.9385 119.968 94.3096C120.3 93.6636 120.602 92.972 120.873 92.2349C121.139 91.4853 121.342 90.7374 121.482 89.9912C121.635 89.2405 121.687 88.5473 121.64 87.9117C121.126 88.5247 120.609 89.2095 120.09 89.966C119.578 90.7055 119.118 91.4688 118.71 92.2561C118.313 93.0388 118.033 93.8078 117.868 94.5631C117.711 95.3013 117.742 95.9711 117.961 96.5725Z" fill="white"/>
</svg>
