<svg width="190" height="190" viewBox="0 0 190 190" fill="none" xmlns="http://www.w3.org/2000/svg">
<g clip-path="url(#clip0_4339_864)">
<path d="M90.9511 89.9411C87.8636 87.3286 87.8636 85.4286 79.2344 85.5077C76.0265 85.9839 73.0333 87.4057 70.6374 89.5914C68.2416 91.7772 66.5518 94.6276 65.784 97.7786C65.0682 100.148 65.0859 102.679 65.8347 105.039C66.5835 107.398 68.0285 109.476 69.9799 110.999C72.7099 112.544 75.8273 113.268 78.9585 113.085C82.0898 112.903 85.1019 111.821 87.634 109.97C90.3271 108.436 92.4242 106.039 93.5864 103.166C94.7486 100.293 94.9079 97.1118 94.0386 94.1369C93.3684 92.5066 92.3082 91.0658 90.9511 89.9411ZM83.0344 103.479C81.8286 104.378 80.3914 104.915 78.8912 105.028C77.3909 105.14 75.8898 104.822 74.5636 104.112C72.5844 102.845 72.9011 100.154 73.6928 97.7786C74.4844 95.4036 76.6219 91.6036 79.3136 91.1286C80.5683 90.9767 81.841 91.1275 83.0255 91.5682C84.21 92.0089 85.2717 92.7268 86.1219 93.6619C86.9136 94.3506 87.4678 95.2611 87.7053 96.2744C88.8136 99.3619 86.2011 101.895 83.3511 103.479H83.0344ZM44.1003 131.416C41.0128 128.804 41.0128 126.904 32.3044 126.983C29.1108 127.474 26.1349 128.902 23.7542 131.087C21.3736 133.271 19.6957 136.114 18.9332 139.254C18.1483 141.666 18.1303 144.262 18.8817 146.685C19.6331 149.108 21.1169 151.239 23.129 152.784C25.859 154.328 28.9765 155.052 32.1077 154.87C35.2389 154.687 38.2511 153.605 40.7832 151.754C43.4763 150.221 45.5734 147.823 46.7356 144.95C47.8978 142.077 48.0571 138.896 47.1878 135.921C46.564 134.176 45.5006 132.63 44.1003 131.416ZM36.1836 144.938C34.9777 145.838 33.5405 146.375 32.0403 146.487C30.5401 146.599 29.039 146.282 27.7128 145.571C25.7336 144.305 26.0503 141.613 26.8419 139.238C27.6336 136.863 29.6919 133.063 32.4628 132.588C33.7048 132.449 34.962 132.606 36.1315 133.047C37.3011 133.487 38.3499 134.198 39.1919 135.121C40.0012 135.801 40.5816 136.713 40.8544 137.734C41.9628 140.821 39.5878 143.355 36.5003 144.938H36.1836ZM132.735 88.9119C129.489 86.1411 129.489 84.3994 120.939 84.3994C117.736 84.8957 114.752 86.3356 112.371 88.5354C109.989 90.7352 108.317 93.5949 107.568 96.7494C106.788 99.151 106.772 101.736 107.524 104.146C108.275 106.557 109.757 108.675 111.764 110.208C114.475 111.812 117.603 112.571 120.748 112.388C123.893 112.204 126.912 111.087 129.418 109.179C132.113 107.646 134.211 105.249 135.375 102.376C136.539 99.5027 136.699 96.321 135.831 93.3452C135.215 91.6189 134.141 90.0884 132.735 88.9119ZM124.827 102.449C123.621 103.347 122.186 103.884 120.687 103.996C119.188 104.108 117.689 103.791 116.364 103.083C114.384 101.816 114.701 99.0452 115.493 96.6702C116.284 94.2952 118.343 90.4952 121.114 90.0994C122.928 89.8015 124.789 90.1442 126.378 91.0686C127.967 91.9931 129.184 93.4418 129.822 95.1661C130.614 98.3327 128.001 100.787 125.151 102.449H124.827ZM85.8923 130.387C82.8048 127.775 82.8048 125.875 74.0965 125.875C70.8666 126.306 67.8486 127.724 65.4541 129.934C63.0597 132.145 61.4055 135.04 60.7174 138.225C59.9266 140.624 59.906 143.211 60.6583 145.623C61.4107 148.035 62.8984 150.151 64.9132 151.675C67.6321 153.268 70.7645 154.014 73.9095 153.816C77.0545 153.619 80.069 152.487 82.5674 150.567C85.2619 149.034 87.3606 146.637 88.5243 143.764C89.688 140.891 89.8485 137.709 88.9798 134.734C88.3515 133.036 87.2865 131.542 85.8923 130.387ZM77.9757 143.917C76.7698 144.816 75.3326 145.354 73.8324 145.466C72.3322 145.578 70.8311 145.26 69.5048 144.55C67.4465 143.284 67.8424 140.513 68.634 138.138C69.4257 135.763 71.484 131.963 74.2549 131.567C75.4905 131.418 76.7437 131.563 77.9129 131.989C79.082 132.416 80.1342 133.112 80.984 134.021C81.7933 134.701 82.3737 135.613 82.6465 136.634C83.6757 139.8 81.1424 142.65 78.2924 143.917H77.9757ZM168.59 89.7036C165.502 87.0119 165.423 85.1911 156.794 85.1911C153.564 85.6226 150.546 87.0403 148.152 89.2505C145.757 91.4608 144.103 94.356 143.415 97.5411C142.622 99.9416 142.601 102.53 143.353 104.944C144.106 107.357 145.594 109.475 147.611 110.999C150.322 112.604 153.45 113.363 156.595 113.179C159.74 112.996 162.758 111.879 165.265 109.97C167.959 108.438 170.058 106.041 171.222 103.168C172.385 100.294 172.546 97.1126 171.677 94.1369C171.061 92.4105 169.995 90.88 168.59 89.7036ZM160.673 103.241C159.467 104.141 158.03 104.678 156.53 104.79C155.03 104.902 153.529 104.585 152.202 103.874C150.144 102.608 150.54 99.8369 151.332 97.4619C152.123 95.0869 154.182 91.2869 156.952 90.8911C158.717 90.6704 160.504 91.0502 162.027 91.9693C163.549 92.8885 164.718 94.2934 165.344 95.9577C166.215 99.1244 163.84 101.579 160.99 103.083L160.673 103.241ZM115.168 126.825C111.973 127.314 108.995 128.742 106.613 130.926C104.231 133.111 102.552 135.955 101.789 139.096C101.004 141.508 100.986 144.104 101.738 146.527C102.489 148.95 103.973 151.08 105.985 152.625C108.721 154.151 111.835 154.864 114.962 154.682C118.089 154.499 121.099 153.429 123.639 151.596C126.334 150.063 128.432 147.667 129.596 144.793C130.76 141.92 130.92 138.738 130.052 135.763C128.819 132.902 126.72 130.499 124.05 128.894C121.38 127.289 118.273 126.563 115.168 126.817M119.364 144.788C118.157 145.686 116.72 146.222 115.22 146.333C113.719 146.443 112.219 146.124 110.893 145.413C108.914 144.146 109.231 141.455 110.022 139.001C110.814 136.546 112.952 132.905 115.643 132.43C116.879 132.281 118.132 132.426 119.301 132.852C120.47 133.279 121.523 133.975 122.372 134.884C123.164 135.579 123.74 136.485 124.035 137.496C124.827 140.426 122.214 142.642 119.364 144.542V144.788ZM124.747 30.8273C123.853 36.8297 124.507 42.9611 126.647 48.6398C128.079 51.4209 130.478 53.5827 133.393 54.7185C136.307 55.8543 139.537 55.8857 142.473 54.8069C144.471 54.3227 146.316 53.344 147.838 51.9607C149.36 50.5774 150.509 48.8338 151.181 46.8902C152.469 42.4465 152.952 37.8081 152.606 33.1944V21.6519C152.724 19.899 152.46 18.1414 151.831 16.501C151.202 14.8606 150.224 13.3765 148.964 12.1519C144.744 9.28884 139.596 8.12921 134.556 8.90606C134.217 8.89545 133.879 8.95314 133.562 9.07569C133.246 9.19825 132.957 9.38317 132.713 9.61948C132.47 9.85578 132.276 10.1387 132.144 10.4513C132.011 10.7639 131.943 11.0999 131.944 11.4394C131.749 10.9512 131.388 10.5479 130.924 10.3014C130.46 10.0549 129.924 9.98127 129.41 10.0936C128.893 10.2385 128.419 10.5096 128.032 10.8827C127.645 11.2558 127.357 11.7191 127.194 12.2311C126.711 15.0007 126.526 17.8138 126.639 20.6227L125.531 25.4519C125.125 27.2199 124.861 29.0144 124.739 30.8352M131.31 27.5894C131.31 27.5894 132.577 12.8644 132.577 12.3102C132.777 12.7761 133.107 13.1738 133.529 13.4549C133.951 13.7361 134.445 13.8885 134.952 13.8936C142.069 13.8936 145.077 15.2394 145.869 18.0102C146.126 23.0472 145.781 28.0969 144.84 33.0519C144.861 36.1236 144.518 39.1583 143.811 42.1561C143.257 44.0561 142.544 45.9561 140.565 46.4311C139.792 46.7809 138.952 46.9541 138.104 46.9378C137.256 46.9216 136.422 46.7163 135.664 46.3371C134.905 45.9579 134.241 45.4142 133.719 44.7456C133.198 44.0771 132.832 43.3006 132.648 42.4727C131.39 37.6184 130.943 32.5907 131.31 27.5894Z" fill="#606060"/>
<path d="M67.6865 28.3729C67.6865 29.1646 68.2407 29.9562 71.3282 30.2729C75.7615 30.2729 77.6615 31.6979 83.7574 32.0146H103.62C109.083 32.0146 112.408 31.5396 117.942 31.1437C120.554 31.1437 122.612 26.0771 119.129 25.2062C113.112 24.9687 108.996 23.9396 102.9 23.9396H87.0824C82.1871 23.9277 77.2958 24.2185 72.4365 24.8104C69.1194 25.0479 67.6074 27.1854 67.6865 28.3729Z" fill="#020202"/>
<path d="M182.042 32.4098C179.371 29.5035 175.854 27.5097 171.988 26.7098C168.326 25.7457 164.534 25.3716 160.754 25.6015C155.134 26.3932 156.638 30.2723 159.567 30.2723C162.227 30.2407 164.866 30.4518 167.484 30.9057C171.433 31.1876 175.133 32.9388 177.854 35.814C179.691 39.5111 180.744 43.5565 180.942 47.689C181.734 53.8561 182.367 61.844 182.763 70.6315C171.125 70.6315 147.771 69.6815 121.583 69.2065H67.9236C39.5899 69.444 14.977 70.394 7.22656 70.7107C7.17923 58.7718 8.39997 46.8617 10.8682 35.1807C11.6463 33.7521 12.7869 32.5537 14.1753 31.706C15.5636 30.8582 17.1508 30.3911 18.777 30.3515C22.0644 29.5481 25.4514 29.2281 28.8311 29.4015C29.2786 29.3245 29.69 29.107 30.0056 28.7805C30.3211 28.454 30.5245 28.0355 30.5863 27.5856C30.648 27.1358 30.5649 26.6779 30.349 26.2785C30.133 25.879 29.7955 25.5587 29.3853 25.364C24.4821 24.2918 19.4051 24.2918 14.502 25.364C12.5594 25.8314 10.7499 26.7381 9.21277 28.0145C7.67561 29.2909 6.45174 30.9029 5.63531 32.7265C2.54781 40.0098 -0.618858 80.2107 0.0936421 115.82C0.647809 141.707 3.73531 164.887 9.43531 171.854C13.6311 176.921 24.5561 179.771 38.3311 180.879C59.7695 182.304 88.2616 179.929 102.979 179.929C121.466 180.521 139.971 179.913 158.379 178.108C166.681 177.391 174.756 175.023 182.129 171.141C184.275 169.319 185.703 166.794 186.159 164.016C188.977 147.764 190.252 131.281 189.959 114.791C189.959 79.3398 187.03 38.2603 182.042 32.4098ZM180.063 154.762C179.619 158.235 178.741 161.64 177.451 164.895C168.594 168.591 159.117 170.577 149.521 170.746C130.996 172.25 110.579 171.537 102.987 171.537C88.4199 171.537 60.1653 173.991 38.8774 172.725C27.9524 172.091 18.9353 170.983 15.6103 167.025C10.227 160.771 7.93114 139.483 7.21864 115.978C6.66448 102.441 6.66448 88.1194 7.06031 75.3815C14.977 75.3815 39.1228 76.6482 67.9236 77.2023H121.583C147.937 76.7273 171.363 76.0148 182.913 75.6982C182.913 83.6148 183.309 92.5607 182.913 101.261C183.072 119.137 182.122 137.005 180.063 154.762Z" fill="#020202"/>
<path d="M35.4769 30.5892C34.8754 36.9284 35.4935 43.3242 37.2977 49.4309C38.7298 52.2137 41.1301 54.3769 44.0465 55.5128C46.9628 56.6487 50.1939 56.679 53.131 55.598C55.1472 55.1325 57.0118 54.1616 58.5491 52.7766C60.0864 51.3916 61.246 49.6382 61.9185 47.6813C63.2644 43.2005 63.7394 38.498 63.3435 33.8271V22.2846C63.4512 20.5328 63.1819 18.7783 62.5537 17.1394C61.9254 15.5006 60.953 14.0156 59.7019 12.7846C55.4957 9.88653 50.3443 8.69774 45.2935 9.45963C44.6006 9.45963 43.9361 9.73488 43.4462 10.2248C42.9563 10.7148 42.681 11.3793 42.681 12.0721C42.4867 11.584 42.1254 11.1807 41.6614 10.9342C41.1974 10.6877 40.661 10.614 40.1477 10.7263C39.6301 10.8712 39.1566 11.1424 38.7697 11.5154C38.3828 11.8885 38.0946 12.3518 37.931 12.8638C37.3371 15.464 36.9925 18.1149 36.9019 20.7805L36.031 24.9763V27.0346L35.4769 30.5892ZM41.9685 28.2934C41.9685 28.2934 43.2352 13.6476 43.2352 13.0142C43.4134 13.501 43.7367 13.9215 44.1614 14.2188C44.5861 14.5161 45.0918 14.6759 45.6102 14.6767C52.7352 14.6767 55.7435 16.0226 56.5352 18.7934C56.7662 23.8335 56.3941 28.8832 55.4269 33.8351C55.4269 36.9067 55.0838 39.9414 54.3977 42.9392C53.9227 44.76 53.2102 46.66 51.231 47.1351C50.4586 47.4849 49.6178 47.6581 48.7699 47.6418C47.9221 47.6255 47.0886 47.4203 46.3301 47.0411C45.5716 46.6618 44.9073 46.1182 44.3856 45.4496C43.8639 44.7811 43.4979 44.0046 43.3144 43.1767C42.0417 38.3249 41.5868 33.2948 41.9685 28.2934Z" fill="#606060"/>
</g>
<defs>
<clipPath id="clip0_4339_864">
<rect width="190" height="190" fill="white"/>
</clipPath>
</defs>
</svg>
