<svg width="190" height="190" viewBox="0 0 190 190" fill="none" xmlns="http://www.w3.org/2000/svg">
<g clip-path="url(#clip0_4339_822)">
<path fill-rule="evenodd" clip-rule="evenodd" d="M180.444 93.4008C176.348 90.0102 171.233 88.0922 165.917 87.9541C163.877 88.0515 161.87 88.5071 159.988 89.2999C157.444 90.5138 155.129 92.0655 153.045 93.9549C152.482 94.3938 152.11 95.0332 152.006 95.7397C151.903 96.4462 152.077 97.1653 152.491 97.747C152.943 98.3157 153.596 98.6898 154.316 98.7928C155.036 98.8958 155.768 98.72 156.362 98.3012C157.908 97.0662 159.539 95.9578 161.254 94.9762C162.822 94.2716 164.508 93.8678 166.226 93.7887C170.168 94.0262 173.905 95.6253 176.811 98.3012C178.248 99.3934 179.43 100.786 180.275 102.381C181.12 103.977 181.607 105.737 181.703 107.54C181.477 110.318 180.641 113.013 179.257 115.433C177.747 118.035 175.905 120.378 173.731 122.463C167.255 128.78 157.304 139.278 147.907 149.546C138.51 159.814 129.746 169.607 125.321 174.024C118.729 177.572 111.519 179.824 104.08 180.658C104.08 152.475 105.663 156.18 108.031 153.021C115.923 142.437 135.668 119.534 144.669 109.115L149.253 103.748C149.462 103.382 149.597 102.979 149.648 102.56C149.732 102.033 149.635 101.493 149.373 101.028C149.111 100.563 148.699 100.201 148.205 99.9989C147.711 99.7972 147.163 99.7684 146.65 99.9172C146.138 100.066 145.691 100.384 145.381 100.819L140.647 105.957C131.171 116.066 110.326 138.257 101.792 148.517C99.8333 150.624 98.3033 153.092 97.2876 155.784C97.2876 158.159 95.0789 174.816 94.9206 181.687C94.7385 183.762 95.2372 185.844 96.3456 187.609C97.5925 188.586 99.032 189.289 100.57 189.671C102.107 190.053 103.708 190.106 105.268 189.826C112.583 188.559 119.768 186.767 126.825 184.45C129.651 182.701 132.184 180.516 134.33 177.975C144.748 166.685 167.493 139.911 178.94 127.989C181.553 125.218 183.738 122.083 185.416 118.671C187.181 115.243 188.179 111.467 188.345 107.611C188.162 104.806 187.358 102.076 185.992 99.6181C184.625 97.1608 182.731 95.0372 180.444 93.4008ZM78.256 163.922C65.621 163.922 50.5476 163.922 37.8255 163.368C30.7692 163.273 23.7418 162.798 16.7435 161.943C15.3976 161.943 14.131 160.914 13.656 161.152C13.2326 159.985 12.9949 158.758 12.9514 157.518V150.812C12.4764 145.049 11.9222 120.65 10.9722 96.4803C9.47596 70.6562 7.97971 44.9903 7.97971 42.4649V39.702C10.2993 38.0316 13.0226 37.0183 15.8726 36.7728C18.406 36.7728 21.0897 36.7728 23.7735 36.3058C23.2985 37.678 22.9026 39.0739 22.586 40.4937C22.4155 41.6459 22.4155 42.8169 22.586 43.9691C22.586 46.257 23.2193 49.2574 23.2193 49.2574C23.3451 50.2881 23.8225 51.2438 24.571 51.9635C25.3195 52.6831 26.2932 53.1226 27.328 53.2078H66.1751C76.6806 53.2078 86.6318 53.2078 92.2368 52.5745C92.855 52.6418 93.475 52.4639 93.9635 52.079C94.452 51.6941 94.77 51.133 94.8493 50.5162C94.8172 50.0471 94.6466 49.598 94.3591 49.226C94.0716 48.8539 93.6802 48.5755 93.2343 48.4262C92.9389 48.3267 92.6269 48.2864 92.316 48.3074C87.8906 48.3074 80.9397 48.3074 73.126 47.7533C57.4906 47.0408 39.5593 45.7028 31.6664 45.0695V42.7024C31.9565 41.4166 32.3267 40.1501 32.7747 38.9103C33.1178 37.9023 33.5928 36.9549 34.1997 36.0683C35.4189 34.3662 37.0814 33.0203 39.013 32.197C42.6311 30.6295 46.4198 29.4897 50.3022 28.8008L52.598 28.2466C53.7304 27.9522 54.7142 27.2503 55.361 26.2753C56.0086 25.2112 56.2345 23.9431 55.9943 22.7208L54.9651 17.4324C54.9774 16.4319 55.2101 15.4464 55.6466 14.5461C56.0831 13.6457 56.7127 12.8526 57.4905 12.2233C59.5489 10.4974 61.9872 9.27826 64.5997 8.66076C65.8851 8.27193 67.2568 8.27193 68.5422 8.66076C69.9435 9.08826 71.2181 9.84826 72.2631 10.8774C73.6247 12.3024 74.5589 14.0758 74.9389 16.0153C75.3853 18.3543 75.5448 20.739 75.4139 23.1166C75.4061 23.9846 75.7156 24.8256 76.2841 25.4816C76.8526 26.1375 77.6411 26.5634 78.5014 26.6791C81.1719 26.9008 83.8029 27.3731 86.3943 28.0962C88.888 28.8376 91.275 29.8994 93.4956 31.2549C95.1501 32.387 96.3456 34.0653 96.8997 35.9891C97.5489 38.343 97.8919 40.7391 97.9289 43.1774C98.0522 43.8081 98.3908 44.3764 98.8869 44.7849C99.383 45.1934 100.006 45.4167 100.648 45.4167C101.291 45.4167 101.914 45.1934 102.41 44.7849C102.906 44.3764 103.244 43.8081 103.368 43.1774C103.538 39.5859 103.028 35.9946 101.863 32.5928C100.924 29.9895 99.2186 27.7317 96.971 26.117C94.3375 24.3133 91.4685 22.8802 88.4447 21.8578C86.5188 21.1646 84.5379 20.6349 82.523 20.2745C82.7147 17.6223 82.4741 14.9566 81.8105 12.3816C80.9531 10.057 79.6668 7.91399 78.0185 6.06409C76.1284 3.9735 73.7788 2.3502 71.1547 1.32201C68.4314 0.0980409 65.4055 -0.287779 62.4622 0.213673C57.633 1.21117 53.1997 3.62576 49.748 7.16451C47.1761 9.96719 45.742 13.6285 45.7264 17.4324V20.2033C41.8657 21.035 38.1051 22.2771 34.5085 23.9083C31.3418 25.5391 28.6343 27.9299 26.6155 30.8591V31.4924C21.9546 31.2051 17.2778 31.311 12.6347 31.8091C9.80055 32.2841 7.10096 33.3924 4.7418 35.0391C3.89653 35.6686 3.23951 36.5173 2.8418 37.4933C2.40163 38.8511 2.10966 40.2526 1.97096 41.6733C1.97096 44.2066 1.25846 70.4187 1.97096 96.9553C2.44596 121.275 3.63346 145.833 4.10846 151.675C4.28263 155.201 4.78402 158.676 5.61263 162.102C6.08763 164.192 7.09305 166.123 8.53388 167.707C9.84805 168.775 11.4314 169.456 13.1097 169.686C16.9097 170.266 20.7255 170.583 24.5572 170.636C38.6172 170.636 61.1243 170.082 78.731 169.607C79.4392 169.569 80.1059 169.261 80.5939 168.746C81.0818 168.231 81.3538 167.549 81.3538 166.84C81.3538 166.13 81.0818 165.448 80.5939 164.934C80.1059 164.419 79.4392 164.111 78.731 164.073L78.256 163.922ZM110.635 33.8595C112.298 34.2553 113.852 34.9151 115.298 35.8387C116.332 36.5459 117.253 37.3851 118.061 38.3562L118.536 39.702C118.536 43.6524 118.536 51.7828 119.248 61.4174C119.248 64.8928 119.644 68.6058 119.961 72.3187C120.745 81.1616 121.853 90.1628 122.162 97.6678C122.197 98.2936 122.471 98.882 122.927 99.3124C123.382 99.7429 123.985 99.9827 124.612 99.9827C125.239 99.9827 125.842 99.7429 126.297 99.3124C126.753 98.882 127.027 98.2936 127.062 97.6678C127.854 89.767 128.646 80.8449 128.725 71.8437V60.7841C128.091 53.4374 127.062 46.1462 125.637 38.9103C125.437 37.4628 124.953 36.0691 124.212 34.8095C122.612 33.0146 120.686 31.5398 118.536 30.4633C116.44 29.3935 114.164 28.7224 111.823 28.4841C111.469 28.4159 111.104 28.4196 110.752 28.4948C110.399 28.57 110.065 28.7153 109.77 28.9221C109.475 29.1288 109.224 29.3928 109.033 29.6984C108.841 30.0039 108.713 30.3448 108.656 30.7008C108.514 31.3809 108.641 32.0895 109.01 32.6782C109.379 33.2669 109.961 33.6902 110.635 33.8595Z" fill="#020202"/>
<path fill-rule="evenodd" clip-rule="evenodd" d="M98.8705 121.988C99.4937 121.757 100.062 121.399 100.537 120.935C101.013 120.471 101.387 119.913 101.633 119.296C101.938 118.655 101.984 117.921 101.763 117.246C101.542 116.572 101.071 116.007 100.446 115.67C100.446 114.404 99.4167 112.662 99.1001 111.641C99.0308 111.08 98.8509 110.538 98.5708 110.047C98.2907 109.556 97.916 109.125 97.4684 108.78C97.0207 108.434 96.509 108.181 95.9629 108.035C95.4168 107.889 94.8471 107.852 94.2867 107.928C93.24 108.253 92.2722 108.792 91.4447 109.511C90.178 110.54 88.9192 112.037 88.1276 112.67C85.8395 114.959 83.1682 116.829 80.2347 118.196C79.1624 118.742 77.9593 118.979 76.7598 118.882C75.5604 118.784 74.4117 118.354 73.4422 117.641V117.008C73.3269 116.091 73.3269 115.163 73.4422 114.245C74.4476 109.851 75.8172 105.537 77.5509 101.373C77.5394 100.458 77.2446 99.5689 76.7071 98.8284C76.1695 98.0879 75.4156 97.5323 74.5492 97.238C73.6828 96.9437 72.7464 96.9252 71.8691 97.185C70.9917 97.4449 70.2165 97.9703 69.6501 98.689C65.2552 106.513 59.5364 113.514 52.748 119.383C48.4888 122.779 44.2217 124.909 40.4297 122.463C37.9042 120.959 37.5084 117.483 37.4292 113.849C37.6351 107.437 38.7513 101.08 40.7542 94.9761C41.0445 94.0789 41.4113 93.2107 41.8547 92.3715C42.4088 91.5007 43.0158 90.6589 43.6755 89.8461C44.8287 88.2964 46.2432 86.9596 47.8555 85.8957C48.4916 85.4508 49.2202 85.1556 49.9865 85.0322C50.7529 84.9089 51.5373 84.9605 52.2809 85.1832C52.8788 85.4164 53.5444 85.4062 54.1348 85.1546C54.7253 84.903 55.1937 84.4302 55.4397 83.8373C55.6661 83.2304 55.6433 82.5585 55.3764 81.9683C55.1094 81.3781 54.6199 80.9173 54.0147 80.6865C52.8881 80.2183 51.6801 79.9773 50.4601 79.9773C49.2401 79.9773 48.0321 80.2183 46.9055 80.6865C43.8417 81.8582 41.1263 83.7819 39.0126 86.2915C37.9834 87.479 37.2709 88.2707 36.6376 89.1415C35.8924 90.2869 35.2588 91.501 34.7455 92.7673C31.3254 100.624 29.4751 109.074 29.2988 117.641C29.3361 119.986 29.8938 122.293 30.9316 124.396C31.9694 126.499 33.4613 128.346 35.2997 129.801C37.9922 131.546 41.1321 132.475 44.3405 132.475C47.5489 132.475 50.6888 131.546 53.3813 129.801C58.0676 127.043 62.2167 123.46 65.6284 119.225C66.0629 121.224 67.2545 122.977 68.9534 124.117C70.6098 125.213 72.4907 125.924 74.458 126.198C76.4252 126.472 78.4289 126.302 80.3217 125.701C84.8503 123.973 88.9465 121.277 92.3234 117.8L93.1942 116.771C93.7484 118.127 94.3791 119.446 95.0863 120.729C95.4667 121.354 96.0568 121.824 96.7513 122.054C97.4458 122.285 98.1918 122.261 98.8705 121.988Z" fill="#606060"/>
</g>
<defs>
<clipPath id="clip0_4339_822">
<rect width="190" height="190" fill="white"/>
</clipPath>
</defs>
</svg>
