<svg width="225" height="190" viewBox="0 0 225 190" fill="none" xmlns="http://www.w3.org/2000/svg">
<path fill-rule="evenodd" clip-rule="evenodd" d="M63.5959 161.404C85.1009 164.691 87.9446 155.939 90.3287 142.355C93.3433 125.178 82.1449 95.0757 62.2677 93.2525C49.6277 92.093 46.2721 106.211 38.6814 113.989C27.8613 125.077 20.1298 130.098 7.20827 138.276C-1.92952 144.059 3.39591 161.2 13.1208 165.788C18.4051 168.281 24.8439 165.391 30.109 164.398C41.1599 162.313 52.3041 159.678 63.5959 161.404V161.404Z" stroke="#161616" stroke-width="5" stroke-miterlimit="1.5" stroke-linecap="round" stroke-linejoin="round"/>
<path d="M86.0933 137.457C85.4293 122.931 78.9867 101.414 62.2353 98.5267C52.8034 97.552 49.6677 111.247 49.253 118.309C48.3905 132.998 57.2271 154.366 73.9403 156.261C83.8539 157.385 86.4305 144.835 86.0933 137.457Z" stroke="#161616" stroke-width="5" stroke-miterlimit="1.5" stroke-linecap="round" stroke-linejoin="round"/>
<path fill-rule="evenodd" clip-rule="evenodd" d="M67.3256 120.458C63.7823 122.07 65.6629 128.338 67.1173 132.12C67.7536 133.775 70.0824 137.002 71.5652 136.36C76.2024 134.355 71.385 119.191 67.3256 120.458Z" stroke="#161616" stroke-width="5" stroke-miterlimit="1.5" stroke-linecap="round" stroke-linejoin="round"/>
<path d="M34.7139 163.516C27.3696 159.562 22.1244 148.79 19.959 141.261C18.9731 137.833 18.4197 134.028 19.1942 130.498" stroke="#161616" stroke-width="5" stroke-miterlimit="1.5" stroke-linecap="round" stroke-linejoin="round"/>
<path d="M8.83887 149.839C9.30535 152.38 10.2594 154.886 11.9203 156.885" stroke="#161616" stroke-width="5" stroke-miterlimit="1.5" stroke-linecap="round" stroke-linejoin="round"/>
<path d="M14.2344 146.774C14.8694 149.488 16.0863 151.946 17.9833 153.997" stroke="#161616" stroke-width="5" stroke-miterlimit="1.5" stroke-linecap="round" stroke-linejoin="round"/>
<path d="M40.1824 162.494C37.9292 162.838 35.2273 163.399 32.6709 163.898C33.7253 165.984 35.1779 168.568 36.7735 170.298C37.4578 171.04 38.1839 171.813 39.1927 172.086C39.5937 172.195 40.0332 172.202 40.4453 172.167C41.6686 172.065 44.7393 171.7 44.8569 170.024C44.9331 168.935 44.0814 167.832 43.4685 167.013C42.3619 165.533 41.3186 164.004 40.2936 162.467" stroke="#161616" stroke-width="5" stroke-miterlimit="1.5" stroke-linecap="round" stroke-linejoin="round"/>
<path d="M93.2314 157.81C99.2277 159.477 105.275 160.986 111.214 162.866C109.39 159.542 108.58 155.093 107.45 151.514C114.698 150.714 122.104 149.986 129.279 148.746C124.78 144.608 120.715 139.087 117.057 134.272C123.962 132.353 130.753 129.955 137.511 127.582C130.626 122.871 123.762 117.906 116.568 113.696C121.308 107.233 125.722 100.506 130.718 94.2398C122.371 94.1662 114.021 93.6602 105.674 93.643C108.02 86.7424 111.046 80.0066 113.626 73.1911C104.355 76.0782 95.4326 79.9224 86.0589 82.5306C85.9018 76.9479 85.8961 71.3644 85.425 65.7964C80.7106 70.4203 76.0564 75.0732 71.0638 79.4006C69.7774 76.3057 68.4657 73.2356 67.0419 70.2C65.2615 74.9533 63.9462 79.863 62.6592 84.7686" stroke="#606060" stroke-width="5" stroke-miterlimit="1.5" stroke-linecap="round" stroke-linejoin="round"/>
<path d="M32.673 163.901C33.7272 165.986 35.1793 168.569 36.7741 170.299C37.4585 171.041 38.1846 171.813 39.1934 172.086C39.5943 172.195 40.0338 172.202 40.446 172.168C41.3315 172.093 43.1852 171.881 44.1859 171.134C44.6836 171.657 45.2341 172.203 45.8041 172.769C48.3759 175.32 51.3444 178.266 51.6443 181.194C51.8659 183.355 49.9037 185.185 48.0936 186.02C44.1709 187.83 40.1824 187.372 36.551 185.109C30.1582 181.126 26.5861 173.509 23.918 166.791C23.9099 166.771 23.901 166.748 23.8915 166.725C23.8088 166.518 23.6787 166.192 23.6182 165.975C26.2958 165.202 29.6964 164.484 32.673 163.901Z" stroke="#161616" stroke-width="5" stroke-miterlimit="1.5" stroke-linecap="round" stroke-linejoin="round"/>
<path d="M67.248 120.494C63.8094 122.161 65.6731 128.364 67.1169 132.119C67.7107 133.664 69.7789 136.577 71.2575 136.438C71.2626 136.451 71.2677 136.463 71.2728 136.476C68.1785 138.083 65.7019 139.622 63.3271 141.097C61.1927 142.424 59.1406 143.699 56.7963 144.926C54.5725 141.871 52.2221 136.507 51.7334 134.846C51.631 134.498 51.5307 134.161 51.4325 133.831C50.6546 131.218 50.0081 129.046 49.5121 125.416C51.7736 124.752 54.1785 124.132 56.6083 123.505C60.2299 122.572 63.907 121.624 67.248 120.494Z" stroke="#161616" stroke-width="5" stroke-miterlimit="1.5" stroke-linecap="round" stroke-linejoin="round"/>
<path fill-rule="evenodd" clip-rule="evenodd" d="M167.893 7.88565C147.192 -5.64706 125.422 8.64803 121.777 25.1029C119.343 36.0918 122.475 47.1094 131.698 55.6993C130.393 61.3829 130.002 64.5106 128.958 69.0512C133.681 67.0208 139.262 63.6055 142.615 62.0105C142.818 61.9142 157.594 68.5782 171.041 56.4929C185.56 43.4445 183.898 18.3486 167.893 7.88565V7.88565Z" stroke="#161616" stroke-width="5" stroke-miterlimit="1.5" stroke-linecap="round" stroke-linejoin="round"/>
<path fill-rule="evenodd" clip-rule="evenodd" d="M169.854 41.7707C168.207 43.9321 165.356 46.5526 162.648 47.4535C158.373 48.8759 154.559 47.7521 149.45 44.2487C141.249 38.6249 132.585 31.1509 137.341 21.7342C137.931 20.566 138.592 19.4299 139.468 18.4509C141.551 20.071 145.227 23.2541 147.205 25.0053C146.743 26.2327 146.041 27.2892 146.722 29.4717C147.195 30.9903 148.621 32.0289 149.768 33.066C152.78 35.7927 157.718 39.9296 161.037 35.4267C163.973 37.5898 166.796 39.7847 169.854 41.7707Z" stroke="#606060" stroke-width="5" stroke-miterlimit="1.5" stroke-linecap="round" stroke-linejoin="round"/>
<g clip-path="url(#clip0_4339_846)">
<path d="M167.669 143.582C165.723 144.063 163.755 144.448 161.771 144.736C155.056 138.406 156.423 131.607 156.423 131.607C162.161 125.357 169.245 120.492 177.139 117.381C181.399 117.652 185.471 119.241 188.788 121.929L187.802 124.916C189.299 125.919 190.73 127.019 192.083 128.209C193.431 129.418 194.699 130.714 195.876 132.089L198.73 130.763C201.779 133.759 203.82 137.629 204.57 141.837C202.387 150.025 198.374 157.611 192.833 164.023C192.833 164.023 186.238 166.168 179.173 160.23C179.239 158.245 179.404 156.264 179.67 154.296M188.112 156.958C182.91 155.582 177.825 154.31 172.816 149.85C167.807 145.391 165.956 140.487 163.987 135.479" stroke="black" stroke-width="5" stroke-linecap="round" stroke-linejoin="round"/>
<path d="M171.382 133.595C172.121 132.765 173.159 132.263 174.267 132.199C175.376 132.134 176.465 132.513 177.295 133.252C178.124 133.99 178.626 135.028 178.691 136.137C178.755 137.245 178.376 138.334 177.638 139.164M182.871 143.823C183.61 142.994 184.648 142.492 185.756 142.427C186.865 142.363 187.954 142.742 188.783 143.48C189.613 144.219 190.115 145.257 190.179 146.365C190.244 147.474 189.865 148.563 189.127 149.392" stroke="#606060" stroke-width="4" stroke-linecap="round" stroke-linejoin="round"/>
</g>
<defs>
<clipPath id="clip0_4339_846">
<rect width="60" height="60" fill="white" transform="translate(179.651 97.0571) rotate(41.6791)"/>
</clipPath>
</defs>
</svg>
