<svg width="596" height="197" viewBox="0 0 596 197" fill="none" xmlns="http://www.w3.org/2000/svg">
<path d="M593.521 191.003H381.552V152.321H406.308V3.78809H593.521V191.003ZM475.937 62.583L470.521 53.2998L468.2 57.9414H462.012L459.691 53.2998L457.37 56.3945H444.992V81.1504L443.444 105.905L438.804 143.812V167.795H441.898L445.766 164.7L448.087 167.795H452.729L456.597 164.7L458.918 166.247V146.133L486.768 138.397H491.409L508.429 155.417L509.976 146.133H514.618V144.586H516.164V139.944H517.712V136.851L506.882 126.02V118.283L503.787 112.095H497.598L488.314 88.8867L475.163 53.2998L475.937 62.583ZM540.91 48.6592H528.532L529.307 53.3008L530.08 70.3203L530.854 82.6973L531.627 93.5283L532.4 105.906L533.174 116.737V130.662L533.947 135.304L534.722 153.87L537.815 153.097L540.91 150.775H544.005L545.552 153.097H550.193L551.741 150.775H556.382V143.039L555.608 135.304L554.836 127.567V93.5283L554.062 81.1514L553.288 78.0557L552.515 68.7725V64.1309L551.741 50.2061L549.42 48.6592L548.646 54.8477H547.1V47.1113L545.552 45.5645H543.231L540.91 48.6592Z" fill="white"/>
<path d="M468.205 121.377C468.205 121.377 465.583 122.905 462.017 122.924H460.469V121.377L462.017 118.283L462.79 110.547V93.5274H463.564V82.6963H466.658V88.8856H468.205V93.5274L471.3 104.358L477.489 116.736V118.283L475.941 119.83L468.205 121.377Z" fill="white"/>
<path d="M250.033 81.1477L253.127 191H285.619V156.962L301.091 145.357L328.942 191H366.075L326.621 126.017L376.905 78.0527H342.867L288.714 126.017H285.619V81.1477H250.033Z" fill="white"/>
<path d="M138.639 192.547V167.792L211.358 166.244V150.772L137.092 152.32L133.998 81.1473L236.114 74.958L239.208 104.356L166.489 108.997V124.469L239.208 121.375L242.303 191L138.639 192.547Z" fill="white"/>
<path d="M5.57345 79.6016L2.479 191.002H39.6124L41.1596 116.735L93.7651 191.002H126.257L127.804 79.6016H96.86V139.943L51.9902 79.6016H5.57345Z" fill="white"/>
</svg>
