<svg width="780" height="257" viewBox="0 0 780 257" fill="none" xmlns="http://www.w3.org/2000/svg">
<path d="M776.757 249.968H499.346V199.345H531.745V4.9559H776.757V249.968ZM622.87 81.9051L615.783 69.7557L612.746 75.8299H604.646L601.609 69.7557L598.571 73.8055H582.372V106.204L580.347 138.601L574.273 188.212V219.598H578.323L583.385 215.548L586.422 219.598H592.497L597.559 215.548L600.596 217.572V191.249L637.045 181.124H643.119L665.392 203.398L667.418 191.249H673.493V189.224H675.517V183.149H677.543V179.1L663.369 164.925V154.801L659.318 146.702H651.219L639.069 116.328L621.858 69.7557L622.87 81.9051ZM707.902 63.6795H691.703L692.716 69.7538L693.728 92.0272L694.74 108.226L695.754 122.4L696.765 138.599L697.778 152.774V170.998L698.79 177.073L699.802 201.372L703.852 200.359L707.902 197.322H711.952L713.977 200.359H720.052L722.077 197.322H728.151V187.197L727.138 177.073L726.127 166.949V122.4L725.113 106.202L724.101 102.152L723.09 90.0028V83.9276L722.077 65.7039L719.04 63.6795L718.026 71.7791H716.003V61.6541L713.977 59.6297H710.939L707.902 63.6795Z" fill="#FE0000"/>
<path d="M612.752 158.85C612.752 158.85 609.32 160.848 604.653 160.874H602.628V158.85L604.653 154.8L605.665 144.676V122.402H606.677V108.227H610.727V116.327H612.752V122.402L616.802 136.575L624.902 152.775V154.8L622.876 156.824L612.752 158.85Z" fill="#FE0000"/>
<path d="M327.226 106.201L331.276 249.968H373.799V205.421L394.048 190.234L430.496 249.968H479.093L427.458 164.922L493.267 102.151H448.72L377.848 164.922H373.799V106.201H327.226Z" fill="#FE0000"/>
<path d="M181.44 251.993V219.594L276.61 217.569V197.32L179.415 199.345L175.366 106.201L309.008 98.1004L313.058 136.574L217.888 142.649V162.897L313.058 158.848L317.107 249.967L181.44 251.993Z" fill="#FE0000"/>
<path d="M7.29276 104.176L3.24298 249.969H51.8404L53.8653 152.773L122.711 249.969H165.234L167.259 104.176H126.762V183.147L68.0395 104.176H7.29276Z" fill="#FE0000"/>
</svg>
