<svg width="279" height="209" viewBox="0 0 279 209" fill="none" xmlns="http://www.w3.org/2000/svg">
<path fill-rule="evenodd" clip-rule="evenodd" d="M101.266 52.9224C101.073 56.0607 100.881 59.1984 100.689 62.3367C101.925 61.981 109.782 59.6692 109.297 62.0131C108.948 63.6944 106.739 65.5131 105.614 66.6835C104.578 67.7612 103.511 68.8108 102.418 69.8297C104.428 69.0601 106.455 68.3313 108.496 67.6496C110.041 67.1336 111.598 66.6302 113.181 66.2435C113.768 66.0998 115.355 65.5139 115.91 65.9134C117.369 66.9633 109.454 74.6955 108.37 75.7854C109.903 75.0724 111.473 74.4247 113.069 73.869C114.222 73.4679 117.783 71.9344 118.803 73.2439C119.895 74.6448 117.19 77.8618 116.44 78.8817C115.365 80.3434 114.2 81.7454 112.978 83.0862C118.058 87.6483 124.027 91.7091 130.379 94.2329C135.037 96.0837 139.612 96.5547 144.527 95.5391C149.576 94.4958 154.419 92.4947 159.022 90.2069C161.725 88.8631 164.393 87.4091 166.934 85.7757C165.887 84.5013 164.869 83.2002 163.881 81.8793C162.47 79.9934 160.737 77.9328 159.933 75.6877C159.145 73.4904 162.098 73.9193 163.515 74.0388C165.566 74.2116 167.612 74.5782 169.622 75.0169C168.201 74.0282 166.805 73.0001 165.438 71.9385C163.655 70.5549 161.278 68.9907 160.111 67.0003C159.085 65.2502 161.337 65.6921 162.378 65.9213C164.86 66.4683 167.276 67.4001 169.643 68.309C171.377 68.9746 173.101 69.6718 174.807 70.4061C173.748 69.4852 172.724 68.5202 171.74 67.5198C170.417 66.1752 168.634 64.5328 168.041 62.6812C166.834 58.91 174.956 61.7546 176.343 62.3367C176.087 58.4302 175.831 54.5237 175.575 50.6172C164.82 53.479 154.064 56.3413 143.309 59.2033C142.146 59.5127 140.692 60.1863 139.479 60.2222C138.382 60.2551 137.055 59.7607 135.985 59.5563L116.522 55.8376C111.436 54.8658 106.351 53.8942 101.266 52.9224Z" fill="#FFC2AC"/>
<path fill-rule="evenodd" clip-rule="evenodd" d="M216.863 187.288C215.702 187.952 214.342 188.465 213.052 188.809C212.294 189.012 211.043 189.636 210.377 189.064C210.057 188.789 209.984 188.165 209.796 187.803C209.497 187.23 209.073 186.736 208.676 186.23C207.713 185.003 206.711 183.82 205.662 182.666C205.165 182.119 204.258 180.842 203.382 180.926C202.291 181.031 202.317 182.541 202.591 183.313C203.461 185.77 206.097 187.911 207.819 189.762C207.381 190.436 204.977 190.356 204.309 190.198C203.29 189.958 203.187 189.232 202.722 188.402C201.634 186.462 199.426 185.376 197.612 184.235C196.951 183.819 195.545 182.666 194.683 182.957C193.866 183.232 193.901 184.275 194.161 184.957C194.554 185.987 195.672 186.701 196.499 187.352C197.602 188.22 198.61 189.164 199.529 190.226C198.205 190.334 196.885 190.521 195.564 190.63C193.966 190.762 192.635 189.885 191.164 189.388C189.797 188.926 188.435 188.536 187.092 188.004C185.583 187.406 184.002 187.198 182.48 186.674C176.507 184.617 170.655 182.029 164.899 179.421C162.156 178.178 159.47 176.935 156.612 175.962C154.529 175.253 151.257 173.84 150.759 171.36C150.496 170.049 151.453 168.639 151.595 167.33C151.76 165.789 151.63 164.094 151.16 162.615C150.747 161.313 150.061 160.107 149.521 158.857C148.891 157.4 149.455 157.423 150.678 157.258C152.141 157.059 153.849 156.235 155.225 155.699C156.809 155.08 158.381 154.216 159.832 153.328C161.145 152.525 162.287 151.489 163.332 150.364C164.395 149.22 165.083 147.864 166.111 146.692C169.904 151.357 173.51 156.093 177.541 160.557C179.443 162.664 181.512 164.406 183.856 166.008C184.835 166.677 185.806 167.441 186.873 167.97C188.207 168.632 189.698 169.042 191.068 169.647C196.324 171.962 201.341 174.494 206.244 177.482C208.616 178.928 210.607 180.585 212.696 182.398C213.346 182.963 218.672 186.253 216.863 187.288ZM155.206 149.069C154.357 149.454 153.547 149.953 152.641 150.201C152.898 148.637 154.357 146.28 156.227 146.539C156.941 146.638 157.48 147.193 157.167 147.958C156.881 148.653 155.812 148.795 155.206 149.069ZM96.0841 106.672C95.1213 107.204 94.224 107.513 93.6594 106.372C94.0776 106.288 95.9774 106.035 96.0841 106.672ZM94.4809 103.446C93.7366 103.22 94.3318 102.983 94.5879 102.711C94.7874 102.499 95.4478 101.756 95.6789 101.633C96.6997 101.092 97.4886 103.104 97.9768 103.757C96.8213 103.654 95.6057 103.787 94.4809 103.446ZM102.437 110.412C101.027 110.651 101.183 108.887 101.226 107.993C101.523 108.356 103.537 110.226 102.437 110.412ZM107.112 107.364C105.392 107.654 104.256 104.683 104.564 103.384C104.835 102.239 106.168 101.6 107.229 101.431C108.257 101.267 109.689 101.491 109.994 102.677C110.264 103.725 108.258 107.171 107.112 107.364ZM147.816 152.213C146.58 152.593 145.369 152.641 144.127 153.013C142.718 153.436 141.414 153.399 140.002 153.687C139.427 153.803 137.878 154.64 137.317 154.454C136.762 154.268 135.959 152.546 135.64 152.098C138.138 151.059 140.269 149.719 141.916 147.53C143.225 145.79 144.63 143.184 143.806 140.938C142.877 138.406 139.674 137.856 137.539 138.913C136.529 139.414 135.528 140.036 134.695 140.798C133.742 141.669 133.368 142.62 132.751 143.695C132.127 144.782 131.689 144.177 131.066 143.254C130.533 142.465 130.603 141.669 129.937 140.89C129.598 140.493 129.072 140.11 128.894 139.597C128.782 139.272 129.019 138.695 128.806 138.439C128.506 138.079 128.141 138.502 127.89 138.181C127.708 137.947 127.767 137.415 127.579 137.123C127.416 136.957 127.234 136.816 127.033 136.698C126.789 136.578 126.745 136.427 126.899 136.246C126.706 135.887 126.892 135.766 126.477 135.329C125.83 134.649 125.24 133.997 124.779 133.193C124.569 132.826 124.59 132.281 124.328 131.963C123.969 131.526 123.371 131.591 123.063 131.05C122.788 130.568 122.972 129.726 122.519 129.288C122.28 129.22 122.04 129.153 121.801 129.087C121.621 128.912 121.516 128.7 121.486 128.45C121.235 128.063 121.185 127.607 120.867 127.198C120.258 126.415 119.44 125.691 118.902 124.865C118.337 123.997 118.637 123.851 119.618 123.541C120.503 123.26 121.312 123 122.132 122.523C125.925 120.315 129.521 114.46 123.5 112.671C121.266 112.007 119.431 110.223 116.954 110.924C115.88 111.228 114.861 111.876 114.06 112.645C113.507 113.176 112.994 114.597 112.315 114.869C111.093 115.358 111.609 114.136 111.262 113.574C111.097 113.306 110.43 112.997 110.183 112.753C109.893 112.467 109.613 112.106 109.412 111.752C109.038 111.096 108.809 110.73 108.271 110.195C108.068 109.993 107.053 108.95 107.968 109.086C107.598 107.957 108.138 107.787 108.885 106.963C109.763 105.994 110.669 104.648 110.674 103.291C110.684 100.685 107.596 99.5178 105.657 101.064C105.262 101.379 102.929 104.417 103.406 102.48C103.664 101.435 106.048 98.7069 107.153 99.4128C105.914 97.6077 103.069 101.99 102.405 102.887C101.839 101.846 101.799 101.032 100.864 100.226C100.102 101.448 100.504 100.112 100.336 99.8408C99.9737 99.2549 100.173 99.9252 99.9762 99.717C99.7312 99.4577 99.3456 99.2533 99.0849 98.9099C98.6384 99.5156 98.8169 98.8639 98.68 98.6377C98.3602 98.1084 98.4838 97.802 97.9357 97.3418C97.5368 97.0071 96.7508 96.4876 96.2139 96.4402C95.5948 96.3853 95.4233 96.6226 94.7925 96.447C93.99 96.2239 92.9801 95.881 93.3684 97.2232C93.6507 98.1988 94.7974 98.7531 95.0486 99.7497C95.3014 100.753 94.3095 101.764 93.8284 102.586C93.2103 103.641 92.705 103.555 91.5854 103.793C90.87 103.945 89.915 104.27 90.5287 105.138C90.9669 105.758 91.9939 105.628 92.5722 105.995C93.3831 106.51 93.372 107.78 94.4075 108.001C95.5477 108.244 96.2008 106.975 97.1623 106.668C97.8459 106.45 99.9636 106.474 100.502 106.987C101.235 107.687 100.601 109.023 100.786 109.892C101.06 111.18 101.932 111.259 103.034 111.3C104.392 111.351 104.869 112.654 105.598 113.688C107.308 116.109 108.794 118.69 110.545 121.079C111.32 122.136 112.454 123.077 113.089 124.225C113.873 125.643 112.785 126.461 111.846 127.478C110.619 128.808 109.703 130.321 108.638 131.774C107.693 133.066 106.517 132.744 105.006 132.744C105.343 132.05 105.748 131.617 106.577 131.701C105.71 130.643 105.017 131.853 104.455 132.523C103.642 133.493 102.582 133.727 101.538 134.364C101.168 134.59 99.1557 136.052 99.7672 136.551C99.8366 136.607 103.168 134.416 103.547 134.215C103.547 135.024 103.371 135.865 103.484 136.669C103.567 137.259 103.982 137.874 103.893 138.488C103.726 139.646 102.229 140.557 101.587 141.46C101.104 142.139 101.22 142.674 100.974 143.403C100.75 144.068 100.868 143.867 100.308 144.072C99.1698 144.491 97.2532 144.265 96.2221 143.67C95.582 143.301 95.0913 142.718 94.5713 142.204C94.1797 141.816 93.1946 141.154 93.0857 140.611C92.899 139.677 94.7531 137.942 95.1199 136.979C96.1562 134.26 94.3792 132.147 91.6137 131.993C92.466 131.335 93.5225 131.831 94.4208 132.082C92.8851 129.953 90.262 131.705 88.9593 133.151C88.0692 130.901 87.64 128.527 87.0963 126.181C86.7259 124.583 85.316 121.731 85.9449 120.086C86.2488 119.291 87.1072 118.847 87.7007 118.296C88.3753 117.669 88.9531 116.92 89.4462 116.144C90.6079 114.317 91.279 112.01 89.6791 110.21C90.1651 110.13 90.6514 110.05 91.1375 109.97C90.3469 109.227 89.0995 109.589 88.0735 109.369C87.4226 109.229 85.5492 109.32 85.1146 108.951C84.5918 108.508 84.9268 106.47 84.9456 105.866C84.9886 104.457 85.1064 103.101 85.2621 101.7C85.4096 100.376 85.3799 98.9458 85.6534 97.6453C85.8755 96.5899 86.5852 96.2682 87.4041 95.6464C89.3613 94.1592 90.9562 92.3503 90.2879 89.7873C90.5246 89.7498 90.7614 89.7122 90.9981 89.6747C90.2324 89.1209 89.2415 89.3223 88.3897 89.0294C89.1719 86.8279 90.9018 82.9576 93.7108 82.7491C93.8074 83.7334 93.7413 84.9039 94.4053 85.7186C95.1613 86.6461 96.4882 86.7397 97.5123 86.249C98.4416 85.8033 99.3138 84.859 99.7421 83.9261C100.032 83.2945 99.9797 82.2266 100.488 81.7259C101.17 81.0545 105.873 81.4597 105.729 82.5929C105.644 83.2591 104.387 84.3789 104.035 84.9695C103.392 86.0501 102.877 87.2189 102.641 88.4601C102.283 90.3449 102.49 92.8331 104.404 93.8239C106.581 94.9511 109.234 93.5181 111.019 92.2798C111.999 91.6 112.949 90.8498 113.844 90.0617C114.321 89.6426 114.8 89.2104 115.221 88.7336C115.531 88.3815 115.779 87.8141 116.161 87.5504C117.064 86.9277 117.949 87.9842 118.712 88.5178C119.957 89.3873 121.195 90.2127 122.53 90.9363C125.24 92.4042 127.718 94.3489 130.114 96.2797C132.524 98.2219 135.009 100.22 136.962 102.639C135.779 103.367 135.99 103.556 135.464 104.853C135.091 105.774 134.576 106.558 134.517 107.581C134.414 109.347 135.548 110.851 137.268 111.242C138.231 111.461 139.147 111.286 140.038 110.893C140.731 110.587 141.422 109.834 142.145 109.647C143.491 109.3 144.567 111.842 145.322 112.737C148.671 116.714 152.211 120.533 155.366 124.671C155.715 125.13 156.752 126.025 156.837 126.632C156.958 127.503 155.587 128.334 155.018 128.834C154.719 129.096 151.553 132.074 152.616 132.548C152.919 132.683 153.806 130.855 154.028 130.699C154.859 130.114 154.231 131.261 154.181 131.841C154.057 133.282 155.047 134.067 156.439 133.884C157.924 133.69 159.246 132.517 160.165 131.41C161.316 132.744 163.116 134.76 163.449 136.542C163.662 137.68 162.677 140.466 164.516 140.698C164.796 140.733 165.812 139.98 166.001 140.408C166.159 140.765 165.061 141.375 164.903 141.493C164.226 141.998 163.818 142.539 163.271 143.151C162.63 143.869 161.754 144.474 161.032 145.162C160.272 145.887 158.769 147.855 157.766 146.904C157.262 146.426 157.395 145.802 156.587 145.521C155.852 145.265 154.92 145.589 154.237 145.873C153.468 146.191 150.935 147.355 150.653 148.313C150.266 149.635 152.36 148.046 152.732 147.814C152.307 148.892 152.073 150.452 150.991 151.081C150.093 151.603 148.801 151.91 147.816 152.213ZM133.455 144.061C134.174 141.751 138.414 137.631 141.094 138.919C137.971 139.574 135.493 141.711 133.455 144.061ZM135.041 150.679C133.996 150.097 134.052 148.405 133.687 147.415C133.478 146.848 133.059 146.433 133.182 145.803C133.326 145.064 134.269 144.242 134.77 143.71C136.349 142.033 139.127 139.741 141.667 140.125C144.901 140.615 142.709 144.957 141.608 146.452C140.669 147.726 137.053 151.8 135.041 150.679ZM127.497 147.853C123.999 147.619 120.514 147.307 117.065 146.665C115.842 146.437 114.817 146.471 115.517 145.065C115.748 144.601 117.141 141.692 117.455 141.775C117.642 141.825 117.599 143.824 117.654 144.053C117.901 145.082 118.595 146.041 119.764 145.976C121.677 145.869 122.909 143.396 123.916 142.069C124.723 143.153 125.307 144.358 126.118 145.425C126.506 145.935 127.856 147.121 127.497 147.853ZM106.993 134.125C106.407 135.471 105.227 136.752 104.406 137.972C103.942 136.99 103.616 134.735 104.716 134.008C105.133 133.734 107.364 133.273 106.993 134.125ZM119.123 138.134C119.284 137.616 119.463 137.102 119.662 136.597C120.005 137.674 120.18 137.706 119.123 138.134ZM122.116 139.237C122.541 139.957 123.248 140.664 123.137 141.568C123.053 142.252 122.434 142.954 121.992 143.431C121.261 144.22 119.641 145.735 118.581 144.687C117.696 143.812 118.004 141.405 118.416 140.42C119.004 139.012 121.104 137.523 122.116 139.237ZM120.039 137.763C120.283 137.666 119.772 136.096 120.246 135.939C120.66 136.883 121.05 137.138 120.039 137.763ZM113.357 116.628C113.199 116.048 112.838 116.073 112.968 115.356C113.053 114.887 113.426 114.385 113.709 114.013C114.273 113.271 115.016 112.66 115.82 112.197C117.517 111.22 119.848 110.814 121.367 112.344C119.947 112.568 115.592 113.97 115.564 115.913C117.144 115.609 118.386 114.022 119.971 113.522C121.271 113.112 122.681 113.14 123.975 113.574C127.516 114.76 126.044 117.821 124.045 119.809C122.858 120.989 121.436 121.87 119.88 122.478C119.161 122.76 118.719 122.791 118.011 122.65C117.879 122.623 117.724 122.377 117.565 122.325C117.17 122.194 117.285 122.637 116.96 122.438C116.676 122.265 116.071 121.144 115.878 120.824C115.57 120.314 115.427 119.817 115.05 119.352C114.673 118.885 114.489 118.261 114.14 117.839C113.972 117.636 113.512 117.644 113.389 117.446C113.204 117.149 113.44 116.932 113.357 116.628ZM107.918 139.455C108.723 138.057 110.1 136.869 111.166 135.647C111.231 137.656 109.79 139.032 107.918 139.455ZM109.006 140.101C110.668 139.516 111.584 138.117 111.753 136.42C111.969 134.271 113.318 133.143 114.13 131.213C114.442 130.473 114.805 128.038 116.012 128.735C116.426 128.974 116.672 129.873 116.888 130.279C117.41 131.261 118.004 132.214 118.558 133.179C119.009 133.964 119.685 134.754 119.486 135.7C119.312 136.524 118.754 137.402 118.427 138.18C117.655 140.016 116.641 141.707 115.793 143.503C115.451 144.227 115.047 145.943 114.003 145.934C113.177 145.927 113.269 145.024 112.725 144.714C112.038 144.323 111.258 145.067 110.693 145.375C111.343 144.278 112.479 143.657 113.755 143.864C112.227 142.342 111.194 144.396 109.882 144.853C108.639 145.286 106.434 143.242 105.388 142.663C105.788 141.985 106.15 141.156 106.839 140.71C107.491 140.287 108.293 140.352 109.006 140.101ZM95.4922 154.01C95.6743 153.134 96.1886 152.616 96.5146 151.82C96.8926 152.785 96.0074 153.354 95.4922 154.01ZM121.901 159.388C121.811 162.34 121.57 165.283 121.483 168.235C121.443 169.597 121.202 170.895 121.042 172.241C120.907 173.379 120.976 174.497 120.26 175.469C119.13 177.002 116.934 177.442 115.23 178.01C113.978 178.427 112.712 178.806 111.475 179.269C110.363 179.686 109.466 180.317 108.409 180.813C107.462 181.256 106.441 181.519 105.499 181.991C104.525 182.48 103.755 183.075 102.754 183.51C101.556 184.031 100.569 184.957 99.504 185.692C98.5662 186.34 97.574 186.84 96.7672 187.654C96.0106 188.418 95.053 188.752 94.1957 189.431C93.2893 190.148 92.3403 190.615 91.3389 191.177C89.2872 192.33 86.5193 194.299 84.0503 193.179C84.7564 192.277 86.2018 191.411 86.3117 190.168C86.4546 188.549 85.0457 189.145 84.2299 189.662C82.9941 190.445 82.3105 191.39 81.3697 192.434C80.27 193.653 78.8808 192.833 77.5351 192.49C78.4552 191.661 79.3679 190.825 80.2864 189.995C81.0617 189.295 82.2482 188.538 82.7203 187.569C83.0578 186.877 83.0412 185.928 82.227 185.568C81.3158 185.166 80.2855 186.014 79.6106 186.519C77.8194 187.859 76.6397 189.559 75.4636 191.424C74.8379 192.416 74.5497 192.34 73.3986 192.141C72.1789 191.931 70.9592 191.707 69.7294 191.56C71.3584 189.887 73.179 188.074 74.4656 186.117C74.8826 185.482 75.4263 183.811 74.1562 183.657C73.6329 183.594 72.5909 184.664 72.1873 184.952C70.4231 186.213 68.7269 187.804 67.5578 189.645C67.1716 190.252 67.0505 190.928 66.303 190.979C65.3257 191.045 63.51 190.112 62.5673 189.824C64.3689 187.553 66.1579 185.265 68.2629 183.262C70.1969 181.422 72.1261 180.085 74.3881 178.673C76.8123 177.16 79.0705 175.418 81.296 173.63C83.4265 171.919 85.6521 170.305 87.6131 168.394C91.5304 164.578 95.0195 160.189 97.9088 155.548C98.5847 154.462 99.2213 153.348 99.7713 152.192C100.288 151.107 100.526 149.809 101.224 148.822C101.464 148.481 101.804 148.228 102.019 147.872C102.221 147.537 102.153 147.132 102.462 146.835C103.176 146.149 104.477 146.563 105.144 147.044C106.218 147.816 107.087 148.755 108.267 149.402C109.454 150.053 110.738 150.526 112.052 150.846C115.124 151.593 118.17 152.205 121.299 152.659C120.977 153.853 121.768 154.042 122.03 155.116C122.348 156.42 121.941 158.06 121.901 159.388ZM92.3213 139.473C91.6249 138.438 91.0033 137.356 90.3186 136.314C89.9017 135.68 89.3849 134.999 89.7414 134.223C90.3415 132.915 92.459 132.682 93.6079 133.252C96.2202 134.549 93.7935 138.255 92.3213 139.473ZM85.4071 115.806C85.1666 113.783 85.94 112.348 87.7698 111.288C89.0739 110.532 90.124 111.565 89.9458 112.943C89.675 115.042 87.4318 117.377 85.7198 118.472C85.608 117.584 85.513 116.694 85.4071 115.806ZM85.1282 110.019C85.6678 109.59 87.1134 110.137 87.7388 110.174C86.8788 110.925 86.0186 111.677 85.1584 112.428C85.1021 111.913 84.6302 110.414 85.1282 110.019ZM88.0302 90.4854C92.3822 89.9196 87.3725 94.59 86.1111 95.322C86.3163 94.3282 86.8206 90.6429 88.0302 90.4854ZM99.6161 82.3085C99.0319 84.7022 94.4888 87.3136 94.4412 83.3927C94.4238 81.9316 95.2443 82.0497 96.4422 81.9096C97.1256 81.8298 99.9503 80.9402 99.6161 82.3085ZM83.924 86.0155C83.414 87.3542 83.005 88.7274 82.5051 90.0676C82.2836 90.6609 82.0231 91.0688 81.6106 91.5391C81.2652 91.9323 80.8543 92.0314 80.8679 92.6529C81.3006 92.5694 81.6391 92.3114 81.9886 92.0629C81.9039 93.2949 81.4685 94.6207 81.2576 95.8486C81.0051 97.3211 80.7947 98.7942 80.7166 100.287C80.5473 103.535 80.546 106.77 80.6173 110.019C80.6537 111.674 80.6701 113.331 80.7593 114.984C80.804 115.807 80.8543 116.633 80.9561 117.45C80.9974 117.781 81.2369 118.483 81.0889 118.793C80.5076 120.007 77.9327 116.671 76.8145 117.161C76.9753 116.237 76.6044 116.439 75.9847 115.984C75.6845 115.764 75.4892 115.389 75.1762 115.193C75.0815 115.091 74.9773 115 74.8635 114.92C74.7342 114.744 74.5976 114.763 74.4542 114.977C73.1942 114.224 72.8688 112.619 72.1925 111.539C71.8447 110.984 71.5086 110.897 71.4493 110.13C71.3979 109.461 71.4986 108.779 71.4713 108.108C71.4406 107.35 71.3962 106.515 71.1837 105.781C70.9371 104.929 70.5978 104.999 69.9368 104.545C70.1403 104.456 70.2748 104.306 70.3398 104.096C70.1286 104.134 69.4872 104.395 69.3277 104.207C69.0142 103.838 69.7539 103.789 69.9482 103.641C69.119 103.273 69.2975 102.97 69.5969 102.296C69.6815 102.105 69.7623 101.82 69.8345 101.658C69.9917 101.307 70.0824 101.53 70.1343 101.093C70.1836 100.676 69.8143 99.8569 69.7055 99.413C69.5231 98.6685 69.4222 98.0252 69.586 97.2493C69.7188 96.6212 70.0761 96.0524 70.1009 95.4067C70.1079 95.2252 69.8317 95.165 69.8279 94.99C69.8225 94.7339 70.0614 94.6216 70.1235 94.3851C70.2821 93.7798 70.2105 93.1398 70.4819 92.5656C70.726 92.0496 71.2191 91.3821 71.568 90.9319C71.8099 90.6201 72.4034 90.2685 72.4684 89.8567C72.5114 89.5838 72.0866 89.6151 72.1054 89.4096C72.1313 89.1312 72.3648 89.0411 72.4287 88.8343C72.6053 88.2666 72.6497 87.7213 73.1061 87.2861C73.6811 86.7389 73.9306 86.968 73.9546 86.0651C73.966 85.6245 73.6136 85.5567 73.8025 85.0487C73.9051 84.773 74.2077 84.61 74.4012 84.4146C74.9759 83.8349 75.3634 83.32 75.7727 82.6035C76.1347 81.9705 76.7119 81.6023 77.0828 81.0559C77.5655 80.3434 76.8436 79.9902 77.8235 79.7891C77.6842 79.3469 77.5362 78.9893 77.9027 78.6148C78.134 78.3786 78.7205 78.5231 78.9251 78.2499C79.1597 77.9364 78.813 77.1932 79.1665 76.9896C79.4539 76.8244 79.8841 77.3339 80.3359 77.0816C80.6799 76.8895 81.1996 75.8276 81.0889 75.4371C81.9788 75.9378 81.757 75.593 82.1829 74.9508C82.2784 74.8068 82.5677 74.775 82.6499 74.6294C82.8142 74.339 82.7767 74.0429 83.0137 73.8067C83.4083 73.4138 84.0541 73.5147 84.4884 73.2339C84.8473 73.002 84.8283 72.7519 85.1146 72.5331C85.3592 72.3462 85.7612 72.3103 85.999 72.1165C86.4649 71.7369 86.4695 71.3363 87.0525 71.0092C87.7429 70.6225 88.3544 70.2932 88.9824 69.7802C89.3917 69.446 89.7803 68.8531 90.2593 68.6326C90.9217 68.3276 91.4376 68.3061 92.0856 67.8706C92.5539 67.5561 92.9967 67.0368 93.4564 66.7715C93.8033 66.5717 94.0466 66.6147 94.4837 66.4909C95.2704 66.2678 95.462 65.5265 96.1037 65.2247C96.5443 65.0176 97.1857 65.2073 97.6696 65.0984C99.175 64.7604 100.662 64.0314 102.173 63.6275C104.017 63.1349 105.874 62.7033 107.733 62.2676C106.025 64.5822 103.85 66.6705 101.644 68.5088C100.92 69.1121 96.9522 71.8631 99.0909 73.038C99.9495 73.5093 101.814 71.9864 102.508 71.6141C103.903 70.8644 105.349 70.2643 106.811 69.658C109.175 68.6775 112.253 66.9337 114.88 67.0741C113.281 69.0359 111.285 70.6108 109.456 72.3437C107.775 73.9365 105.243 75.4303 106.035 78.0374C103.674 77.4368 101.554 76.7267 99.0991 76.884C97.9997 76.9545 96.8994 76.822 95.8049 76.9763C94.6148 77.1445 93.4942 77.5426 92.3504 77.8923C91.4455 78.1685 90.4457 78.1903 89.6133 78.6499C89.211 78.8723 88.7136 79.1896 88.3522 79.4652C87.8702 79.8329 87.7608 80.0765 87.3823 80.5609C86.0325 82.2895 84.7262 83.9098 83.924 86.0155ZM76.5401 118.731C76.4664 118.432 76.3994 118.159 76.3148 117.818C77.0662 118.28 77.0662 118.28 76.5401 118.731ZM70.8615 109.203C70.769 109.331 70.3798 109.372 70.2669 109.262C70.1262 109.124 70.496 108.589 70.5553 108.475C70.702 108.588 71.0395 108.956 70.8615 109.203ZM69.2529 105.735C69.3522 105.37 69.4521 105.005 69.5514 104.639C69.6736 104.978 70.2244 105.352 70.2367 105.675C70.2443 105.889 69.3618 105.782 69.2529 105.735ZM69.5721 106.236C70.4342 106.804 70.5246 107.474 70.5502 108.453C69.5185 108.112 69.6665 107.113 69.5721 106.236ZM84.5654 67.5767C84.4786 67.8124 84.109 68.5464 83.8385 68.0331C83.752 67.8687 84.3855 67.6445 84.5654 67.5767ZM84.318 66.7769C84.5311 66.5848 84.9606 66.8237 85.2017 66.6686C85.3707 66.5595 85.3146 66.4493 85.3941 66.3848C85.4099 66.3717 85.6395 65.9069 85.7337 65.8013C85.9 65.616 86.2624 65.5003 86.4644 65.3327C87.0291 64.8646 87.3477 64.2493 87.7031 63.6234C88.1268 62.8761 88.2621 62.7896 88.9457 62.4473C89.417 62.2113 89.7822 61.9226 90.1657 61.5217C90.6076 61.0599 90.5752 60.7293 90.938 60.2245C91.1173 59.9752 91.3753 59.9444 91.5841 59.7436C91.8344 59.5033 91.9615 59.1669 92.1931 58.9245C92.293 58.8194 92.6141 58.8197 92.6745 58.7299C92.7518 58.6161 92.8119 58.1614 92.8843 58.0776C93.0223 58.2643 93.1608 58.4509 93.2988 58.6376C93.8436 57.6794 94.2412 56.8878 95.1523 56.2502C96.1091 55.5805 96.9351 54.6008 97.924 54.0013C98.1463 53.8666 98.5992 53.8097 98.769 53.6113C99.0561 53.2752 98.8074 52.9764 99.0169 52.6909C99.2545 52.3674 99.7149 52.6294 100.017 52.4898C100.399 52.3135 100.509 51.7978 101.001 51.8547C99.3824 53.7697 99.4025 56.749 99.3168 59.1408C99.2795 60.1714 99.9286 60.6909 98.9704 61.4469C98.1553 62.0905 97.0061 61.8994 96.0425 62.3229C94.8323 62.8546 93.538 63.1374 92.3036 63.6008C91.0265 64.0801 89.9997 64.9191 88.7707 65.4742C87.6868 65.9635 86.9469 66.6591 85.9555 67.2632C85.587 67.4877 85.0163 67.8138 84.5768 67.5454C84.3017 67.3773 83.9588 67.1008 84.318 66.7769ZM102.599 50.7209C102.669 50.4488 104.051 49.7339 104.39 49.5007C104.9 49.1499 105.656 48.2938 106.225 48.6339C106.422 47.8437 107.192 46.9644 107.872 46.797C108.627 46.6109 109.921 45.964 110.663 45.3991C110.88 45.2341 110.952 44.993 111.207 44.8382C111.651 44.5688 112.092 44.7157 112.52 44.3486C112.585 44.2926 113.177 43.3148 113.201 43.324C113.231 43.4291 113.259 43.5352 113.283 43.6419C113.732 43.3926 114.132 43.1942 114.412 42.8764C114.476 42.8042 114.064 42.6167 114.194 42.4741C114.353 42.2992 114.708 42.4946 114.869 42.3286C114.369 44.8118 114.741 48.0077 117.261 49.2664C114.265 49.5902 111.339 48.6894 108.306 49.2427C106.855 49.5078 105.379 49.9424 104.058 50.6102C103.249 51.0195 102.215 52.4849 101.41 51.7733C101.729 51.3471 102.217 51.0823 102.599 50.7209ZM117.134 43.5777C118.254 42.2075 119.954 41.6651 121.665 42.1557C123.668 42.7305 122.823 44.1304 122.521 45.6848C121.943 44.8371 120.69 43.9965 119.624 43.9709C118.112 43.935 118.683 45.1947 119.591 45.6459C120.417 46.056 121.832 46.1703 122.423 46.9162C122.998 47.6417 122.778 48.8285 122.87 49.6841C122.423 49.6177 121.976 49.5513 121.529 49.4849C121.904 47.4877 120.253 47.3908 118.713 46.8278C117.157 46.259 115.859 45.137 117.134 43.5777ZM122.152 38.6596V40.5131C121.529 40.1577 120.906 39.8029 120.283 39.4477C120.906 39.1851 121.529 38.9222 122.152 38.6596ZM127.16 53.4698C129.239 54.0334 131.305 54.6299 133.305 55.4077C134.031 55.6901 134.826 55.79 135.538 56.1089C136.216 56.4124 136.317 56.3808 136.076 56.9746C135.401 58.6384 133.802 58.3511 132.401 58.0966C130.207 57.6982 128.059 57.1458 125.893 56.626C123.776 56.1185 121.614 55.7854 119.529 55.1491C117.389 54.4965 115.304 53.8783 113.103 53.4472C112.461 53.3215 107.38 52.8553 107.418 52.3241C110.618 51.9085 113.913 52.3181 117.128 52.3614C120.468 52.4063 123.919 52.5916 127.16 53.4698ZM124.336 47.034C124.376 45.89 124.392 44.7424 124.534 43.6051C125.486 44.7802 126.345 45.1321 127.545 44.0305C128.694 42.9762 128.95 42.4265 130.407 43.4176C131.67 44.2776 132.865 44.2379 134.206 43.4854C135.024 43.0263 136.339 41.1508 137.199 41.5369C137.608 41.7209 137.909 42.4627 138.322 42.7357C138.841 43.0775 139.64 43.3148 140.245 43.4476C141.674 43.7605 142.525 42.8415 143.422 41.8583C144.723 40.4329 144.685 41.2607 145.891 42.2491C147.236 43.3518 148.36 42.8132 149.579 41.8722C150.32 44.0463 150.598 46.4204 150.808 48.6995C150.878 49.4691 151.143 50.5617 150.451 51.106C149.964 51.4897 148.93 51.5047 148.343 51.7167C146.247 52.4748 144.232 53.5506 142.478 54.9273C141.795 55.464 141.199 56.1209 140.265 55.9987C139.375 55.8823 138.511 55.1374 137.795 54.6454C137.018 54.112 136.232 53.5062 135.325 53.2091C134.793 53.0349 133.942 53.098 133.477 52.7786C132.612 52.185 133.63 50.6279 133.414 49.5826C133.251 48.7891 132.795 47.1345 131.702 47.5995C130.075 48.2916 131.022 50.9933 131.916 51.8367C130.086 51.5118 128.061 51.0372 126.296 50.4341C124.933 49.9685 124.287 48.4293 124.336 47.034ZM155.023 52.606C158.78 51.5512 162.294 50.8401 166.203 50.648C167.934 50.5628 169.609 50.6167 171.32 50.6322C172.305 50.6412 173.055 49.8468 172.269 48.933C171.18 47.6679 167.857 48.1495 166.385 48.0927C162.44 47.9403 158.822 48.3887 155.086 49.6893C155.481 48.9613 156.43 48.8669 157.081 48.4905C157.879 48.0284 158.421 47.2673 158.762 46.4226C159.649 44.2256 158.757 42.1555 157.829 40.1487C159.651 40.6391 161.537 41.713 163.37 41.9857C163.754 42.0428 164 42.0061 164.34 42.146C164.549 42.2317 164.615 42.5283 164.873 42.5931C164.998 42.6244 165.298 42.3422 165.44 42.3822C165.998 42.54 165.556 42.5819 165.909 42.8102C166.189 42.9915 166.167 43.225 166.68 43.1392C166.908 43.1017 167.155 42.7493 167.275 42.7395C167.428 42.7272 167.393 42.5411 167.627 42.5952C168.052 42.6943 168.015 43.2427 168.157 43.5126C168.308 43.7997 168.093 44.1818 168.552 44.3391C168.896 44.4569 168.982 44.0942 169.274 44.1203C169.451 44.1361 169.819 44.3913 169.975 44.547C170.48 45.0483 171.17 45.6015 171.848 45.9275C171.782 45.8606 172.168 45.6992 172.076 45.6614C172.014 45.6361 172.419 45.7341 172.413 45.7324C172.805 45.8217 173.012 46.4228 173.209 46.6422C173.574 47.0438 174.139 47.4681 174.649 47.6455C175.531 47.9522 175.504 47.5854 175.826 48.6337C176.453 47.6477 176.694 49.2988 177.471 49.4805C177.874 49.5747 177.827 49.4022 178.193 49.6131C178.444 49.7576 178.612 50.2001 178.801 50.4137C178.882 50.1056 178.963 49.7973 179.045 49.4895C179.605 50.5509 180.814 52.2335 182.14 51.9292C182.14 52.2188 182.02 52.5649 182.244 52.812C182.401 52.9848 182.654 52.7886 182.777 52.889C182.884 52.9767 183.14 53.3255 183.222 53.383C183.383 53.4962 183.676 53.5786 183.816 53.6916C183.939 53.7909 184.001 54.2652 184.138 54.4364C184.395 54.7586 184.84 54.8226 185.051 55.2087C185.099 54.828 185.147 54.4467 185.195 54.0658C185.612 54.3885 185.648 54.6389 185.751 55.111C185.897 55.7832 185.703 55.6256 186.167 55.9095C186.622 56.1884 186.86 56.1571 187.277 56.6412C187.687 57.1159 187.691 57.4081 188.281 56.9139C188.391 57.2797 188.427 57.7526 188.72 58.0329C188.942 58.2447 189.859 58.2539 189.947 58.7541C188.223 57.2995 189.357 59.5087 189.948 58.7579C190.072 59.5615 190.66 59.8211 191.332 60.3934C191.959 60.9268 192.061 60.8882 192.275 61.7843C192.27 61.7647 192.59 61.9629 192.613 62.0026C192.003 62.0897 192.949 62.7716 193.109 62.8963C193.226 62.9874 193.378 62.77 193.572 62.9172C193.793 63.086 193.974 63.4691 194.155 63.7002C194.644 64.3266 195.006 64.8646 195.521 65.3741C196.076 65.9238 196.346 66.6188 196.88 67.2613C197.472 67.9749 197.792 68.7951 198.287 69.5699C198.757 70.3065 199.382 70.8979 199.927 71.5725C200.795 72.6458 201.091 75.0101 202.709 75.0724C202.614 75.1704 202.746 75.9033 202.762 76.0385C202.838 76.7039 202.788 77.3442 203.181 77.9467C203.271 77.2593 203.631 77.5244 203.944 77.8855C204.463 78.4864 204.007 78.3351 204.035 78.9441C204.068 79.6821 204.152 79.1112 204.433 79.7556C204.653 80.2604 204.774 80.5881 204.892 81.1481C203.977 81.2205 203.559 80.4735 203.221 79.7494C203.079 79.4465 203.03 78.9487 202.78 78.7122C202.514 78.4603 202.148 78.4404 201.875 78.1593C201.35 77.6191 201.122 76.7768 200.504 76.2511C199.804 75.6573 199.65 75.3767 199.072 74.6667C198.432 73.8813 197.549 73.3297 196.879 72.5702C196.207 71.809 196.262 72.2245 195.418 71.9491C194.521 71.6558 193.07 68.8348 191.94 69.9215C191.984 69.2106 190.92 68.542 190.382 68.2846C190.149 68.1733 189.879 68.2739 189.646 68.1071C189.393 67.9262 189.375 67.5773 189.121 67.3598C189.121 67.3598 188.73 67.4548 188.651 67.4148C188.49 67.3332 188.489 67.0442 188.346 66.9489C187.953 66.6858 187.483 66.4098 187.065 66.1856C186.049 65.6405 185.151 64.9694 184.17 64.3133C183.33 63.7511 182.313 62.7357 181.342 62.4394C180.495 62.1806 179.961 62.3123 179.267 61.7941C178.889 61.5117 179 61.417 178.392 61.2414C177.813 61.0743 177.488 61.1603 177.182 60.5467C176.645 59.4728 176.984 57.3768 176.88 56.1726C176.77 54.8947 176.639 53.5849 176.306 52.3423C175.912 50.8736 175.391 50.1059 173.816 50.4518C170.695 51.1379 167.611 51.7904 164.476 52.3929C158.227 53.5931 152.086 55.5519 145.975 57.2908C145.51 57.4236 142.913 58.018 143.444 56.6753C143.688 56.0559 145.332 55.8251 145.882 55.6305C148.902 54.5616 151.936 53.4725 155.023 52.606ZM153.974 49.873C153.517 50.0469 153.061 50.2208 152.605 50.3949V49.126C153.061 49.3747 153.517 49.6237 153.974 49.873ZM152.077 43.1632C152.474 43.4873 153.28 42.7074 153.617 42.5493C154.193 42.2796 154.926 42.0477 155.57 42.1032C156.756 42.2058 157.624 43.3741 157.407 44.5587C157.039 46.5627 154.184 47.5103 152.609 48.2938C152.559 47.5835 152.329 46.7298 152.827 46.1156C153.259 45.5822 154.098 45.6208 154.497 45.0534C155.501 43.6277 152.78 43.4985 152.172 44.6322C151.932 43.9075 151.692 43.1831 151.452 42.4584C152.031 42.3626 151.777 42.9177 152.077 43.1632ZM154.886 39.2406C154.319 39.6069 153.753 39.9732 153.186 40.3395C152.905 39.0716 153.863 38.9048 154.886 39.2406ZM206.507 83.3677C205.765 83.7217 205.579 82.8762 205.046 82.8397C205.676 82.4522 205.676 82.4522 206.507 83.3677ZM209.524 101.83C209.616 103.046 209.544 104.275 209.706 105.485C209.829 106.406 210.202 107.263 210.242 108.195C210.329 110.234 209.64 112.311 208.249 113.806C206.934 115.221 205.051 116.438 203.275 117.032C202.475 117.3 201.639 117.894 200.862 118.113C200.002 118.356 199.185 117.828 198.476 118.775C198.003 114.709 198.348 110.46 198.311 106.369C198.274 102.268 198.318 98.1656 197.624 94.1091C197.007 90.4963 195.789 86.4325 193.544 83.4768C192.632 82.2767 191.509 81.2937 190.325 80.3734C189.711 79.896 189.096 79.3855 188.412 79.0086C187.359 78.4281 186.462 78.5084 185.316 78.343C183.677 78.1065 182.154 77.9065 180.508 78.368C178.977 78.7977 177.29 79.2873 175.918 80.034C174.552 80.778 172.965 81.0847 171.546 81.7509C170.581 82.2043 168.576 83.7187 167.505 83.446C166.469 83.1818 164.935 81.4227 164.273 80.6349C163.427 79.628 162.728 78.4608 161.977 77.3772C161.714 76.997 161.177 76.4089 161.108 75.9204C160.989 75.0727 161.329 75.3497 162.139 75.4444C164.222 75.6888 166.18 76.0753 168.176 76.7308C169.169 77.0568 171.112 78.3764 172.105 77.5856C173.621 76.3784 171.317 74.3034 170.473 73.6064C169.035 72.4186 167.363 71.5366 165.83 70.481C164.201 69.3595 162.048 68.1654 161 66.4384C164.06 67.3419 167.118 68.3765 170.089 69.5416C171.449 70.0744 172.793 70.6374 174.069 71.3461C174.786 71.7439 176.236 72.8205 177.099 72.3048C178.977 71.1842 174.665 67.9292 174.042 67.2641C173.076 66.2305 172.128 65.2067 171.066 64.2689C170.349 63.6362 169.223 63.1913 168.89 62.2581C170.079 62.6889 171.041 63.5325 172.155 64.1057C172.739 64.4061 173.271 64.5789 173.915 64.6709C174.602 64.7691 174.684 64.8785 175.225 65.1515C175.646 65.3645 176.079 65.6489 176.552 65.7937C176.889 65.8971 177.478 65.9148 177.773 66.1061C177.924 66.3208 178.079 66.5323 178.24 66.7397C178.419 66.7927 178.596 66.8534 178.771 66.9228C179.032 67.1557 179.187 67.4771 179.441 67.7174C181.287 69.4624 183.755 70.7112 185.823 72.1731C187.781 73.5561 189.858 74.8071 191.738 76.3164C193.901 78.0537 196.146 79.9208 197.986 82.004C199.026 83.1813 199.88 84.5161 200.754 85.818C201.386 86.7607 202.306 87.5425 202.853 88.5146C204.045 90.6337 205.034 92.9242 206.317 95.0091C207.624 97.1336 209.328 99.2446 209.524 101.83ZM191.94 114.126C192.296 112.655 194.307 110.938 195.593 110.289C194.945 111.892 193.219 112.985 191.94 114.126ZM195.256 119.256C194.16 121.53 189.34 121.79 189.994 118.425C190.314 116.776 191.674 115.764 192.842 114.685C193.381 114.186 194.703 112.402 195.538 112.689C195.499 113.972 195.424 115.26 195.427 116.543C195.428 117.399 195.644 118.451 195.256 119.256ZM193.863 93.0426C194.308 94.0414 194.751 94.8733 193.925 95.7667C193.553 96.17 192.34 97.0525 191.791 96.8566C190.029 96.228 193.388 93.4919 193.863 93.0426ZM183.206 84.155C183.631 84.1318 184.043 84.195 184.462 84.1691C184.88 84.1432 184.924 84.069 185.311 84.122C185.352 84.1814 185.393 84.2407 185.433 84.3C185.486 84.6987 185.696 84.742 186.061 84.4301C186.57 84.5433 186.9 84.6189 187.386 84.8935C186.074 85.8395 184.477 86.9392 182.869 87.2568C180.327 87.7586 181.029 84.275 183.206 84.155ZM144.234 105.428C143.97 105.959 143.212 104.634 143.024 104.387C143.374 104.386 144.5 104.893 144.234 105.428ZM164.66 91.4694C166.635 90.3169 168.981 89.3046 171.102 88.4465C171.475 90.244 169.656 92.5639 168.536 93.7937C167.63 94.7884 166.537 95.8198 165.309 96.3921C163.981 97.0109 162.529 96.739 162.593 95.0025C162.617 94.3679 162.762 93.3472 163.02 92.767C163.353 92.0194 163.983 91.864 164.66 91.4694ZM137.961 58.7778C138.254 58.7606 141.448 58.3478 141.431 58.7451C141.381 59.9393 138.281 59.0015 137.961 58.7778ZM115.378 81.838C117.065 79.7567 119.788 77.5105 119.828 74.6019C119.886 70.3218 115.137 72.4572 112.749 72.6352C114.011 71.3945 120.357 66.1894 116.603 64.3408C115.525 63.8093 113.991 64.3285 112.909 64.6069C110.988 65.1008 109.202 65.9564 107.315 66.5516C108.664 65.1164 110.993 63.4852 110.917 61.3116C110.823 58.6657 108.652 59.3055 106.774 59.6935C106.052 59.8429 102.828 61.1255 102.222 60.2547C102 59.9357 102.359 59.5305 102.435 59.2464C102.57 58.744 102.528 58.5685 102.533 58.0553C102.542 57.0198 103.23 55.6899 102.669 54.7268C102.541 54.9456 102.431 55.1733 102.339 55.4098C102.154 54.8495 102.278 54.2549 102.093 53.6943C106.782 54.8936 111.552 55.55 116.27 56.5735C118.658 57.0916 120.906 57.9837 123.327 58.3854C125.769 58.79 128.169 59.4097 130.615 59.7958C132.847 60.1477 134.985 60.7342 137.196 61.1837C139.35 61.6221 141.56 60.6615 143.663 60.1749C148.374 59.0856 153.082 57.9695 157.799 56.9126C163.242 55.692 168.903 54.6489 174.113 52.6139C174.214 55.3263 174.431 58.0335 174.763 60.7274C172.462 59.6396 169.047 58.2213 166.721 60.1676C165.79 60.9462 165.504 62.2905 165.872 63.434C166.272 64.6788 167.499 65.2568 168.308 66.1937C165.845 65.5621 159.49 61.11 158.359 65.6103C157.56 68.7888 161.457 70.8418 163.362 72.6308C161.47 72.2605 158.936 70.7477 157.825 73.1789C156.865 75.2809 158.022 77.5679 159.206 79.3014C159.848 80.2408 160.57 81.1247 161.253 82.0348C161.614 82.5162 161.966 83.0044 162.345 83.4716C162.726 83.94 163.443 84.4309 163.71 84.9349C164.246 85.9519 163.163 86.0142 162.321 86.3816C161.27 86.8404 160.367 87.6105 159.405 88.2247C157.204 89.6306 155.279 90.9363 152.677 91.3856C149.998 91.848 147.419 92.331 144.775 92.9762C142.14 93.6193 139.989 94.237 137.295 93.4059C136.066 93.0271 135.066 92.6902 133.763 92.7615C132.395 92.8363 131.595 92.7653 130.47 91.9179C125.629 88.2718 120.375 85.28 115.378 81.838ZM106.651 78.1775C108.522 77.2389 110.405 76.2954 112.338 75.4891C113.938 74.821 116.367 74.0429 118.118 74.3358C117.624 75.6039 116.723 76.6443 115.757 77.578C114.903 78.4039 113.835 79.6503 112.801 80.2267C111.862 80.7497 110.77 79.9211 109.844 79.5738C108.826 79.1926 107.426 79.0149 106.651 78.1775ZM107.121 82.9135C108.053 82.526 110.057 83.8262 110.905 84.1642C112.572 84.8288 114.247 85.5227 115.716 86.571C113.923 88.6436 111.892 90.5382 109.478 91.8695C107.891 92.7452 105.215 93.7499 103.717 92.1596C101.835 90.1613 104.097 86.0896 105.429 84.377C105.473 84.6701 105.518 84.9627 105.562 85.2557C105.987 84.5754 106.311 83.2501 107.121 82.9135ZM141.349 100.651C140.186 100.896 139.791 100.675 139.023 99.7829C138.504 99.1801 137.994 98.5539 137.408 98.0118C136.811 97.4586 135.336 96.1246 137.215 96.8928C138.929 97.5927 140.396 97.9427 142.281 97.6684C144.436 97.3552 146.445 96.4438 148.57 95.9825C147.405 97.0019 146.248 98.0311 145.082 99.0476C143.848 100.121 142.916 100.321 141.349 100.651ZM141.615 108.849C139.066 110.767 133.934 110.559 135.662 106.339C135.924 105.698 136.291 105.094 136.716 104.548C136.857 104.366 137.109 103.988 137.311 103.865C137.875 103.524 137.719 103.482 138.261 104.052C138.728 104.544 142.383 108.563 141.615 108.849ZM140.859 101.515C141.093 101.439 142.077 100.869 142.301 101.184C142.528 101.504 140.599 102.609 140.859 101.515ZM159.416 130.77C158.843 132.142 154.256 134.127 155.111 131.363C155.489 130.138 155.846 129.211 157.274 129.118C158.098 129.065 159.921 129.563 159.416 130.77ZM167.644 112.186C168.399 111.087 170.893 109.6 171.957 111.24C172.47 112.03 171.226 112.434 170.473 112.231C170.069 112.122 169.738 111.88 169.299 111.862C168.734 111.839 168.181 112.282 167.644 112.186ZM169.646 113.278C169.132 113.798 166.036 116.403 165.534 116.001C166.545 114.556 167.707 112.941 169.646 113.278ZM164.588 139.647C163.513 139.708 164.05 138.087 164.154 137.439C164.414 137.891 165.783 139.579 164.588 139.647ZM167.32 136.742C166.973 136.124 166.035 135.202 166.247 134.406C166.409 133.797 167.872 132.978 168.485 133.327C169.299 133.792 168.119 136.845 167.32 136.742ZM192.836 130.251C192.376 131.836 191.9 131.427 190.457 131.735C189.01 132.043 188.01 133.271 186.736 133.93C187.178 132.995 187.453 131.855 188.194 131.096C188.365 130.92 189.415 130.574 188.817 130.168C188.294 129.813 187.542 130.965 187.317 131.279C186.214 132.824 185.442 134.711 184.805 136.488C184.492 137.361 184.241 138.251 184.092 139.168C183.96 139.985 184.103 140.839 183.968 141.635C183.751 142.917 182.01 142.923 180.963 143.254C180.016 143.553 179.072 143.878 178.088 144.039C177.235 144.178 176.35 143.924 175.524 144.092C174.629 144.274 174.227 144.805 173.209 144.685C172.38 144.587 171.604 144.205 170.763 144.167C169.977 144.132 169.192 144.404 168.41 144.183C167.621 143.959 167.659 143.872 167.839 143.097C167.951 143.306 168.063 143.516 168.175 143.725C168.49 143.478 168.708 142.726 168.9 142.373C169.2 141.826 169.443 141.636 169.332 140.955C169.169 139.949 168.262 139.233 168.056 138.276C167.841 137.278 168.58 136.461 169.016 135.627C169.613 134.486 169.605 133.64 169.105 132.46C169.482 132.559 169.859 132.659 170.236 132.759C169.719 131.637 167.966 132.092 167.088 132.424C166.646 132.591 165.946 133.247 165.471 133.23C164.818 133.208 164.477 132.349 164.197 131.876C163.384 130.508 162.457 129.157 161.496 127.887C161.232 127.538 160.886 127.313 160.977 126.915C161.055 126.578 161.812 126.098 162.058 125.89C162.98 125.111 164.153 124.679 165.018 123.859C166.326 122.62 167.834 121.732 169.172 120.517C170.565 119.251 172.001 118.089 173.452 116.893C174.923 115.682 176.197 114.254 177.657 113.031C178.035 113.716 178.768 116.171 179.606 116.361C180.583 116.582 180.554 115.426 180.506 114.73C180.436 113.739 179.886 112.775 179.825 111.829C179.759 110.817 180.733 110.365 181.467 109.779C182.603 108.875 185.115 106.815 183.764 105.119C182.601 103.659 178.818 106.459 177.775 107.301C176.889 108.016 176.204 108.663 175.207 109.228C174.505 109.624 173.328 111.15 172.496 111.009C171.507 110.842 171.121 109.761 169.91 109.797C168.728 109.831 167.723 110.683 166.99 111.538C165.332 113.471 164.762 116.058 163.251 118.073C162.507 119.066 161.541 119.887 160.733 120.827C159.845 121.858 159.657 123.047 158.782 124.057C156.278 120.721 153.55 117.563 150.91 114.337C149.592 112.726 148.301 111.096 147.01 109.463C146.527 108.85 145.981 108.276 145.539 107.633C144.932 106.752 145.041 106.045 144.803 105.063C144.698 104.627 144.203 104.106 144.336 103.69C144.514 103.131 145.763 102.692 146.214 102.463C148.055 101.529 149.724 100.361 151.441 99.2198C154.619 97.1064 157.834 95.1245 161.214 93.3194C161.155 94.0972 160.649 94.9032 160.989 95.6834C161.148 95.2347 161.398 93.2348 161.997 93.1488C161.883 93.1654 161.977 95.7134 162.07 96.0769C162.346 97.1628 163.149 97.9051 164.297 97.8978C166.484 97.8837 168.445 95.5046 169.659 93.9287C170.48 92.8617 171.27 91.6207 171.559 90.2851C171.82 89.0861 171.533 88.252 172.78 87.6432C175.337 86.3941 177.915 85.3763 180.651 84.7139C180.528 85.8925 180.186 87.3436 181.258 88.1915C182.441 89.1274 183.988 88.2933 185.101 87.6742C186.204 87.0611 187.905 85.3768 189.2 85.8661C190.474 86.3473 191.361 87.9453 192.074 89.0063C192.703 89.9416 193.387 90.616 192.659 91.6585C191.843 92.8268 191.312 93.9671 190.658 95.236C190.407 95.7237 190.168 96.0421 190.345 96.5417C190.403 96.7039 191.058 97.6697 191.236 97.8083C192.37 98.6913 193.903 97.0115 194.713 96.3738C194.999 99.1197 195.063 101.854 195.178 104.608C195.262 106.626 196.044 108.612 194.388 110.087C192.733 111.561 191.351 113.075 190.342 115.071C189.803 116.137 189.32 117.232 188.737 118.276C188.348 118.974 187.526 119.997 188.029 120.818C188.56 120.315 188.717 119.55 189.159 118.982C189.424 120.16 189.691 121.467 190.937 121.966C192.37 122.54 193.795 121.547 195.065 120.994C194.609 124.143 193.721 127.202 192.836 130.251ZM191.371 133.871C190.387 135.974 189.499 138.509 187.682 140.058C187.283 140.397 185.588 141.725 184.943 141.502C184.395 141.313 184.697 140.207 184.792 139.733C185.276 137.327 186.114 135.813 188.065 134.278C188.872 133.642 189.909 132.83 190.951 132.673C192.071 132.504 191.749 133.063 191.371 133.871ZM219.122 183.782C216.571 180.314 212.966 177.618 209.559 175.012C208.015 173.832 206.315 172.947 204.755 171.766C202.993 170.431 201.202 169.143 199.228 168.138C195.484 166.23 191.4 164.9 187.867 162.645C186.145 161.545 184.26 160.481 182.64 159.246C181.928 158.704 181.3 158.01 180.657 157.389C180.06 156.811 178.777 155.973 178.539 155.128C179.534 154.965 180.099 154 180.986 153.902C181.279 153.87 183.11 154.354 182.86 153.466C183.524 153.449 183.601 153.439 184.158 153.294C184.388 153.234 184.662 153.328 184.895 153.245C185.252 153.119 185.494 152.756 185.854 152.616C186.111 152.517 187.061 152.628 187.206 152.504C187.599 152.168 187.181 152.198 186.946 151.778C187.711 151.759 188.236 152.145 189.003 151.734C189.237 151.609 189.434 151.32 189.661 151.171C190.062 150.906 190.207 151.317 190.482 150.766C190.739 151.526 190.732 151.316 191.352 151.092C191.969 150.87 192.415 150.709 193.119 150.653C194.799 150.521 196.485 150.724 198.157 150.605C198.769 150.561 199.292 150.422 199.9 150.502C200.435 150.573 200.274 150.945 200.719 150.444C200.822 150.327 200.488 150.008 200.648 149.841C200.719 149.767 200.949 149.819 201.036 149.781C201.818 149.439 201.821 149.916 201.96 150.537C202.419 150.43 202.887 150.333 203.285 150.064C203.084 149.884 202.747 149.686 202.941 149.358C203.603 149.608 204.035 149.493 203.704 150.219C204.37 150.439 204.494 150.152 205.092 150.089C205.445 150.052 205.939 150.272 206.233 149.989C206.555 149.681 206.047 149.346 206.638 149.081C206.759 149.143 206.849 149.236 206.908 149.36C207.227 149.457 207.169 149.582 206.736 149.737C207.897 150.339 207.624 149.666 208.112 148.954C208.225 148.79 208.729 148.28 208.959 148.526C209.308 148.9 208.596 149.018 208.749 149.39C209.013 150.033 209.936 149.208 210.219 148.882C210.434 148.636 210.521 148.164 210.752 147.98C211.073 147.724 211.535 148.119 211.936 148.048C213.772 147.726 215.505 145.259 214.123 143.607C213.751 143.163 213.436 143.251 212.994 142.971C212.556 142.694 212.31 142.215 211.959 141.819C211.157 140.916 210.175 140.24 209.054 139.807C206.453 138.804 203.65 138.072 200.919 137.534C199.654 137.284 198.308 136.903 197.013 136.905C196.25 136.907 195.101 137.5 194.388 137.216C193.001 136.663 195.037 133.835 195.373 132.921C196.36 130.237 197.104 127.375 197.592 124.557C197.688 124.005 197.651 123.291 197.85 122.766C198.078 122.162 198.127 122.247 198.615 122.198C199.497 122.109 200.461 122.571 201.379 122.411C202.397 122.234 203.496 122.317 204.524 122.002C204.996 121.857 205.434 121.7 205.744 121.301C205.842 121.177 205.733 121.068 205.795 120.98C205.814 120.953 206.166 120.574 206.177 120.552C206.173 120.356 206.19 120.161 206.228 119.969C206.584 120.264 206.409 120.884 207.009 120.899C207.116 120.238 207.117 120.105 207.55 119.733C207.518 119.761 207.877 119.456 207.831 119.488C207.853 119.37 207.896 119.26 207.961 119.159C208.163 119.061 208.378 119.009 208.603 119.003C209.072 118.521 208.877 118.264 208.877 117.615C209.256 117.811 209.634 118.008 210.012 118.204C210.104 116.281 211.275 115.228 212.053 113.67C212.384 113.006 212.722 112.487 212.801 111.686C212.847 111.224 212.728 110.817 212.919 110.381C213.092 109.986 213.481 109.773 213.643 109.343C213.962 108.496 213.724 107.415 213.741 106.535C213.766 105.315 213.887 104.099 213.927 102.88C214.006 100.487 213.765 98.0273 213.407 95.6617C213.236 94.5301 212.949 93.4323 212.724 92.3125C212.539 91.3924 212.096 90.5292 211.938 89.673C211.872 89.3174 211.974 88.9981 211.867 88.6046C211.725 88.0876 211.489 87.579 211.313 87.0712C210.903 85.8846 210.497 84.7 210.036 83.532C209.141 81.2684 208.094 79.0728 207.1 76.8527C206.143 74.7178 205.35 72.5165 204.111 70.5231C202.89 68.5597 201.576 66.6292 200.231 64.7495C198.829 62.7923 197.057 61.1105 195.698 59.1351C193.147 55.4262 189.588 52.3698 185.864 49.846C178.18 44.6379 169.877 39.4379 160.663 37.6522C159.274 37.3833 157.868 37.1966 156.453 37.1618C155.575 37.14 154.12 37.5646 153.289 37.2674C152.357 36.9343 152.443 35.8885 152.21 35.0683C151.91 34.0135 151.234 33.3228 150.466 32.5771C149.657 31.7923 148.924 30.8757 147.916 30.3421C146.894 29.8016 145.689 29.5994 144.558 29.4361C143.547 29.2897 142.037 29.4263 141.114 28.986C140.273 28.5849 140.689 28.1672 141.476 28.5106C141.534 28.1634 141.58 27.9391 141.803 27.6708C141.914 27.5358 142.442 27.3467 142.455 27.2207C142.47 27.0735 142.027 26.6538 141.964 26.4637C141.828 26.0545 141.905 25.4878 142.067 25.1037C142.861 25.8093 143.091 26.1218 143.977 25.4473C144.351 25.1625 144.466 25.037 144.899 24.8933C145.017 24.8543 145.281 24.9747 145.383 24.9072C145.775 24.6492 145.415 24.71 145.601 24.4052C145.554 24.4821 145.883 23.6719 145.867 23.8413C145.907 23.4097 146.035 23.5423 145.774 23.0121C145.264 21.9747 143.964 21.9323 144.627 20.7485C144.887 20.2827 145.117 20.3291 145.19 19.6537C145.23 19.2906 145.181 18.8743 145.179 18.505C145.176 17.7496 145.318 17.2207 144.61 16.8361C143.93 16.4662 143.302 16.8721 143.026 15.9546C142.737 14.992 143.028 13.7578 141.985 13.0985C141.223 12.6169 140.123 13.0287 139.281 12.7931C138.437 12.5572 137.661 11.6938 136.805 12.3567C136.196 12.8279 135.873 13.9863 134.727 13.3598C134.209 13.0773 133.925 12.1288 133.598 11.5968C133.078 10.749 132.661 10.4427 131.861 11.2685C131.368 11.7778 130.328 13.0177 130.265 13.7227C130.195 14.501 130.874 14.8262 130.021 15.2866C129.173 15.7448 128.698 15.4088 128.009 16.3387C127.326 17.2612 127.855 17.7708 127.064 18.6535C126.075 19.7567 125.549 20.2329 125.563 21.7194C125.572 22.7389 124.672 23.6195 125.197 24.5867C125.786 25.6707 127.505 26.1215 128.547 26.5627C128.199 27.2056 127.722 27.6177 128.128 28.2793C128.496 28.8785 129.536 29.0032 130.18 28.8943C130.614 28.8211 130.629 28.887 130.97 28.5819C131.194 28.3824 130.887 28.1332 131.348 28.0227C131.838 27.9043 132.62 28.8647 132.939 29.1049C132.227 30.0278 130.275 30.2003 129.241 30.6678C128.612 30.9533 128.033 31.3754 127.392 31.6304C126.81 31.8617 126.103 31.8081 125.575 32.1659C124.665 32.7842 124.285 34.3158 123.727 35.2163C123.095 36.2357 122.483 36.709 121.271 36.9207C119.758 37.1844 118.54 37.2905 117.13 37.9491C115.408 38.7535 113.71 39.6026 112.018 40.4699C109.29 41.8684 106.755 43.3039 104.221 44.9952C101.571 46.7652 98.9927 48.6124 96.4351 50.4616C93.9054 52.2906 91.7816 54.5406 89.5841 56.7523C87.8079 58.5402 86.2491 60.4702 84.4797 62.2576C82.3908 64.3683 80.8543 67.0319 78.9175 69.2708C77.8578 70.4957 76.8438 71.7001 76.179 73.143C75.6402 74.3129 74.703 75.4605 74.0773 76.6876C73.2781 78.2564 72.5215 79.8002 71.624 81.3174C71.2558 81.9398 70.8182 82.474 70.4296 83.0683C69.9316 83.8292 69.961 84.5642 69.8271 85.4416C69.6872 85.2274 69.5476 85.0133 69.4077 84.7996C69.1541 85.3532 68.8477 85.898 68.6281 86.4651C68.4879 86.8268 68.51 87.3403 68.3693 87.6568C68.1927 88.0541 67.9777 88.0013 67.7575 88.3322C67.5221 88.686 67.4462 89.1612 67.1983 89.5408C66.1258 91.1812 65.7132 93.2625 65.1622 95.1343C64.423 97.6453 64.5395 100.531 64.5798 103.12C64.6225 105.855 64.7719 108.59 65.1831 111.296C65.5557 113.746 66.3519 116.097 67.5986 118.245C68.6849 120.118 70.1828 121.209 72.1016 122.168C72.9828 122.608 73.8006 122.472 74.7253 122.542C75.7384 122.619 76.4294 122.895 77.5013 122.653C78.0154 122.536 78.2589 122.162 78.6674 122.037C78.9202 121.96 79.0566 122.086 79.2993 122.057C79.6466 122.014 80.3688 121.844 80.7455 121.885C81.9175 122.013 81.7208 123.785 81.8362 124.689C82.0136 126.083 82.1434 127.491 82.3829 128.876C82.8861 131.788 83.9727 134.509 84.6147 137.371C81.6386 137.734 79.0857 138.289 76.2963 139.416C73.4979 140.546 70.6685 140.929 67.7235 141.491C64.9684 142.016 62.3183 142.998 60.113 144.777C59.0794 145.61 58.0055 146.586 58.7645 147.958C59.25 148.836 60.1249 149.059 60.8801 149.57C61.0328 149.376 60.5914 148.967 60.5105 148.854C61.1454 148.984 61.1261 149.281 61.5898 149.538C61.995 149.764 62.3268 149.756 62.7704 149.915C63.8535 150.304 64.3858 151.275 65.4563 151.548C65.7932 151.633 66.2338 151.839 66.5781 151.897C66.992 151.966 67.3017 151.786 67.721 151.862C67.9472 152.011 68.1921 152.118 68.455 152.182C68.6275 152.102 68.7979 152.017 68.9658 151.928C69.5683 151.991 69.9403 152.37 70.4299 152.681C70.4625 152.289 70.4155 151.881 70.7867 151.625C70.9317 152.007 70.6974 152.248 71.0931 152.511C71.5944 152.844 72.2527 152.428 72.7014 152.218C72.8285 153.486 75.764 153.411 76.6944 153.393C77.983 153.368 79.2702 152.857 80.5702 153.142C81.2334 153.287 81.9412 153.439 82.6014 153.628C83.3963 153.855 84.3572 154.058 85.1396 154.345C85.4509 154.459 85.8319 154.824 86.1631 154.799C86.4268 154.779 86.4976 154.391 86.8045 154.402C87.1518 154.414 87.2685 154.801 87.569 154.918C88.0191 155.092 88.4327 154.761 88.8603 154.928C89.014 154.988 89.2222 155.245 89.419 155.33C89.7175 155.457 90.3086 155.459 90.6408 155.52C91.1119 155.607 91.5337 155.548 91.9373 155.577C92.2628 155.601 92.2557 155.82 92.4113 155.834C92.5901 155.85 92.9012 155.236 93.1412 155.146C93.4906 155.014 94.125 155.327 94.4815 155.382C91.8992 158.882 88.7857 161.976 85.4107 164.684C81.7703 167.607 78.0423 170.525 74.1385 173.088C70.594 175.415 67.1629 177.428 64.4149 180.713C62.0976 183.483 58.4091 186.447 58.9776 190.462C59.5458 194.474 63.9019 196.106 67.3923 196.872C71.7824 197.835 76.3015 197.448 80.7033 197.989C82.5805 198.22 84.6661 198.097 86.5558 197.9C88.7876 197.668 90.7004 196.211 92.6193 195.158C96.0705 193.264 99.021 190.729 102.42 188.775C106.677 186.329 110.889 183.737 115.555 182.099C117.726 181.336 119.96 180.466 121.712 178.899C121.972 178.666 122.166 178.314 122.461 178.121C122.961 177.795 123.095 178.126 123.386 178.027C123.609 177.951 123.826 177.709 124.019 177.637C124.509 177.453 124.727 177.529 125.276 177.529C124.805 177.258 124.374 176.558 124.863 175.988C125.699 175.012 125.843 176.572 126.157 176.934C126.424 176.591 126.322 176.287 126.254 175.898C126.478 176.047 126.704 176.195 126.929 176.344C126.774 175.591 126.921 174.898 127.32 174.242C127.687 173.638 127.778 173.723 127.88 172.885C129.022 173.928 129.245 171.397 129.348 170.475C129.447 169.58 129.349 168.938 129.937 168.156C130.569 167.316 131.529 166.785 132.331 166.133C133.597 165.102 134.991 163.799 136.742 164.788C138.125 165.569 138.877 167.483 140.175 168.466C140.961 169.063 141.792 169.123 142.294 170.048C142.699 170.796 142.831 171.691 143.214 172.459C144.141 174.32 145.476 176.45 146.999 177.877C148.417 179.206 150.237 179.2 151.896 180.024C153.539 180.84 155.245 181.724 156.984 182.315C158.883 182.961 160.93 183.236 162.779 184.018C163.73 184.421 164.58 185.027 165.539 185.412C166.574 185.828 167.664 186.121 168.712 186.502C172.866 188.01 176.931 189.861 181.295 190.697C183.23 191.067 185.022 192.075 186.971 192.287C187.808 192.378 188.49 192.493 189.308 192.703C190.592 193.031 190.32 193.205 190.793 194.276C191.571 196.038 193.471 194.994 194.936 195.038C197.28 195.109 199.589 194.73 201.93 194.712C206.023 194.681 209.964 194.219 213.924 192.876C217.9 191.526 222.426 188.275 219.122 183.782Z" fill="#101213"/>
<path fill-rule="evenodd" clip-rule="evenodd" d="M171.805 46.0992C171.861 46.156 171.994 46.1904 171.805 46.0992V46.0992Z" fill="#101213"/>
<path fill-rule="evenodd" clip-rule="evenodd" d="M99.6999 121.154C100.589 120.253 104.372 120.435 104.658 122.047C104.976 123.845 101.596 126.563 100.359 127.324C98.7676 128.305 96.8246 128.489 97.1068 126.027C97.3201 124.168 98.434 122.437 99.6999 121.154ZM102.824 119.299C102.939 119.797 102.089 119.628 101.855 119.509C101.744 119.283 102.708 118.799 102.824 119.299ZM96.3007 122.598C97.0551 122.666 97.9196 121.455 98.4889 121.043C98.7404 121.432 97.0814 123.569 96.8988 124.057C96.443 125.276 96.1894 126.815 96.8109 128.031C98.6272 131.583 103.275 126.511 104.438 124.739C105.251 123.5 105.814 121.963 104.665 120.749C104.256 120.316 103.581 120.196 103.201 119.785C102.7 119.244 103.094 118.546 102.088 118.664C101.395 118.746 100.562 119.372 99.8869 119.598C99.0737 119.871 98.3428 120.154 97.6331 120.66C97.4731 120.774 95.3686 122.514 96.3007 122.598Z" fill="#FF9393"/>
<path fill-rule="evenodd" clip-rule="evenodd" d="M149.625 123.79C149.15 126.231 146.732 128.734 144.188 128.831C141.653 128.928 140.833 126.273 141.28 124.157C141.662 122.352 143.222 119.217 145.447 119.562C147.197 119.833 150.031 121.698 149.625 123.79ZM148.011 119.711C146.404 118.468 144.185 117.893 142.322 118.879C141.712 119.202 139.274 120.629 140.016 121.595C141.016 120.82 141.879 119.744 143.179 119.487C142.96 120.494 141.712 121.4 141.272 122.381C140.758 123.527 140.477 124.839 140.561 126.098C140.711 128.34 142.213 130.081 144.537 129.773C146.665 129.491 148.525 127.86 149.54 126.026C150.896 123.578 150.132 121.352 148.011 119.711Z" fill="#101213"/>
<path fill-rule="evenodd" clip-rule="evenodd" d="M133.091 129.338C131.947 131.032 130.202 132.625 128.185 133.148C125.574 133.825 126.308 131.668 127.088 130.119C127.778 128.75 128.962 126.395 130.764 126.408C131.376 126.412 132.515 126.707 133.051 127.034C134.108 127.679 133.693 128.447 133.091 129.338ZM130.654 125.615C131.064 125.158 132.882 123.197 133.126 124.725C133.648 124.12 133.236 123.618 132.568 123.554C131.762 123.477 130.88 124.375 130.298 124.821C129.101 125.739 128.179 126.678 127.386 127.965C126.511 129.383 124.28 132.589 126.232 133.996C128.342 135.517 131.414 132.708 132.735 131.259C133.58 130.332 134.7 128.971 134.378 127.612C133.984 125.943 132.042 125.768 130.654 125.615Z" fill="#FF9393"/>
<path fill-rule="evenodd" clip-rule="evenodd" d="M121.65 98.3169C120.469 99.6642 118.071 101.627 116.094 101.396C114.292 101.185 114.995 99.1616 115.633 98.1824C116.592 96.7107 117.876 95.3291 119.731 95.2485C120.532 95.214 121.57 95.2303 122.19 95.8366C123.037 96.665 122.274 97.6052 121.65 98.3169ZM121.525 94.5736C120.141 94.0958 119.598 93.9137 118.254 94.6735C117.174 95.2836 116.217 96.146 115.476 97.1252C114.367 98.5909 113.249 101.888 116.096 102.3C119.219 102.753 126.647 96.3447 121.525 94.5736Z" fill="#FF9393"/>
<path fill-rule="evenodd" clip-rule="evenodd" d="M125.78 102.985C124.882 103.903 123.761 104.652 122.48 104.907C123.022 103.699 124.231 101.059 125.665 100.691C126.325 100.522 127.078 100.744 127.024 101.496C126.985 102.04 126.135 102.623 125.78 102.985ZM126.937 99.7915C126.193 99.4186 126.428 99.1639 125.562 99.4565C124.88 99.6867 124.02 100.086 123.452 100.547C123.142 100.798 122.178 101.689 122.296 102.143C122.51 102.967 123.229 101.704 123.418 101.461C123.742 101.726 122.085 104.097 121.986 104.488C121.619 105.941 122.76 106.095 123.878 105.619C125.386 104.978 129.851 101.252 126.937 99.7915Z" fill="#FF9393"/>
<path fill-rule="evenodd" clip-rule="evenodd" d="M149.047 138.906C149.158 137.942 149.316 136.923 150.2 136.382C150.997 135.894 151.823 135.965 151.94 136.965C152.05 137.894 151.14 139.544 150.404 140.051C149.379 140.757 149.181 139.877 149.047 138.906ZM150.364 141.098C152.469 139.867 153.795 134.218 149.915 135.801C147.71 136.701 148.521 142.176 150.364 141.098Z" fill="#FF9393"/>
<path fill-rule="evenodd" clip-rule="evenodd" d="M132.386 117.674C132.718 116.994 133.098 116.768 133.771 116.47C133.323 116.894 132.864 117.286 132.386 117.674ZM132.872 115.998C132.395 116.476 131.303 117.205 131.456 118.027C131.596 118.777 132.168 118.734 132.688 118.5C133.777 118.01 134.384 115.866 135.523 115.665C134.259 114.864 133.964 114.902 132.872 115.998Z" fill="#FF9393"/>
<path fill-rule="evenodd" clip-rule="evenodd" d="M133.039 73.4137C133.1 75.6972 133.153 77.9804 133.204 80.2639C133.221 81.0665 133.03 82.2105 133.271 82.9793C133.377 83.3178 134.339 84.7857 134.68 84.8807C135.874 85.213 135.447 82.2198 135.456 81.4828C135.485 78.9963 135.448 76.5071 135.438 74.0206C135.433 72.7391 135.794 61.9947 134.132 62.0472C133.845 62.0562 133.14 63.2846 133.034 63.5309C132.699 64.3043 132.822 65.4508 132.83 66.2754C132.853 68.6538 132.976 71.0356 133.039 73.4137Z" fill="#FF9393"/>
<path fill-rule="evenodd" clip-rule="evenodd" d="M143.106 80.0701C143.2 80.7015 143.151 81.7541 143.862 82.0815C144.48 82.3661 144.717 82.0276 144.948 81.4986C145.48 80.2816 145.288 78.421 145.278 77.1626C145.259 74.6688 144.978 72.1856 144.784 69.7012C144.698 68.6111 144.876 67.5162 144.74 66.3755C144.68 65.875 144.62 63.8612 143.692 63.9551C142.853 64.0397 142.929 66.1501 142.883 66.6939C142.503 71.2206 142.437 75.5516 143.106 80.0701Z" fill="#FF9393"/>
<path fill-rule="evenodd" clip-rule="evenodd" d="M182.708 132.051C182.352 133.869 176.55 140.199 175.09 136.659C174.223 134.558 176.102 132.271 177.567 131.055C178.473 130.303 179.606 129.564 180.842 129.792C181.891 129.986 182.933 130.896 182.708 132.051ZM179.712 128.79C179.302 128.887 175.877 131.292 175.846 131.26C175.548 130.962 177.708 127.741 177.931 127.46C179.762 125.139 180.978 126.896 182.123 128.72C181.879 127.631 181.208 126.049 180.087 125.589C178.671 125.007 177.567 126.443 176.885 127.475C175.923 128.934 175.392 130.518 174.857 132.164C174.602 132.949 174.311 133.661 173.879 134.369C173.453 135.068 172.706 135.838 172.817 136.721C173.423 136.385 173.745 135.725 174.127 135.181C174.553 135.354 174.406 136.712 174.493 137.058C174.71 137.927 175.304 138.607 176.222 138.757C177.934 139.035 179.781 137.452 180.926 136.376C182.132 135.243 183.429 133.69 183.419 131.946C183.408 130.123 181.616 128.339 179.712 128.79Z" fill="#FF9393"/>
<path fill-rule="evenodd" clip-rule="evenodd" d="M184.351 99.5779C183.38 101.064 181.676 102.845 179.874 103.191C178.55 103.444 177.677 102.463 178.209 101.139C178.658 100.02 180.188 99.3137 181.191 98.8214C181.986 98.4309 185.695 97.5214 184.351 99.5779ZM183.637 97.1472C181.648 97.0721 180.043 98.51 178.56 99.6579C178.895 98.3394 179.653 96.905 180.72 96.0469C182.172 94.8789 183.548 95.6042 185.077 96.1882C184.7 94.9981 183.007 94.5701 181.928 94.7383C180.565 94.9511 179.584 96.115 178.895 97.2411C178.073 98.5843 177.791 100.167 176.823 101.427C176.38 102.004 173.636 104.162 174.257 105.044C175.282 103.956 176.307 102.868 177.333 101.78C177.598 103.066 177.891 104.531 179.533 104.405C180.845 104.305 182.34 103.191 183.299 102.338C184.538 101.238 186.975 97.2735 183.637 97.1472Z" fill="#FF9393"/>
<path fill-rule="evenodd" clip-rule="evenodd" d="M155.773 109.837C154.931 110.224 153.076 110.751 152.605 109.587C151.95 107.97 154.056 105.134 155.058 104.057C155.675 103.394 156.093 103.051 156.953 103.48C157.639 103.823 158.648 104.796 158.911 105.545C159.476 107.151 157.091 109.231 155.773 109.837ZM157.706 102.072C158.393 102.227 158.477 103.098 157.619 102.764C156.976 102.513 156.826 101.874 157.706 102.072ZM158.568 103.299C158.312 102.518 158.833 101.292 157.571 101.236C156.856 101.204 155.546 101.931 154.922 102.226C154.057 102.635 153.242 103.26 152.791 104.141C152.372 104.956 152.671 105.171 153.309 104.495C153.387 104.548 151.866 108.47 151.853 108.863C151.793 110.659 153.065 111.842 154.85 111.524C156.492 111.231 157.971 109.889 158.874 108.534C159.331 107.849 159.706 107.064 159.74 106.224C159.793 104.936 158.934 104.418 158.568 103.299Z" fill="#FF9393"/>
<path fill-rule="evenodd" clip-rule="evenodd" d="M168.789 99.7191C167.353 99.0627 165.748 101.307 166.441 102.64C167.349 104.389 171.781 101.086 168.789 99.7191ZM167.076 102.228C166.777 101.696 168.807 100.913 169.128 100.9C168.967 101.193 167.486 102.957 167.076 102.228Z" fill="#FF9393"/>
<path fill-rule="evenodd" clip-rule="evenodd" d="M71.012 98.4349C70.9318 97.8667 69.6587 98.6915 69.666 99.0572C69.8767 98.636 71.1791 99.6184 71.012 98.4349Z" fill="#101213"/>
<path fill-rule="evenodd" clip-rule="evenodd" d="M140.641 55.5143C142.262 55.3951 140.197 47.218 139.015 47.941C137.735 48.7248 139.153 55.6234 140.641 55.5143Z" fill="#FF9393"/>
<path fill-rule="evenodd" clip-rule="evenodd" d="M143.668 51.6959C145.186 51.9133 144.945 48.4264 144.128 47.8024C142.621 46.6505 141.824 51.4319 143.668 51.6959Z" fill="#FF9393"/>
</svg>
