<svg width="428" height="321" viewBox="0 0 428 321" fill="none" xmlns="http://www.w3.org/2000/svg">
<path fill-rule="evenodd" clip-rule="evenodd" d="M153.473 106.76C157.034 115.861 160.595 124.961 164.156 134.062C165.473 137.428 164.716 141.505 164.834 145.074C165.072 152.341 165.411 159.567 168.988 166.044C172.328 172.091 176.438 177.773 180.641 183.248C186.344 175.149 195.185 168.816 203.688 164.035C209.547 160.742 215.948 157.815 222.664 156.866C224.751 156.571 227.054 156.371 229.125 156.916C228.845 153.714 228.793 150.461 229.035 147.256C229.413 142.233 230.725 138.822 234.539 135.468C236.479 133.762 238.568 132.224 240.697 130.764C241.456 130.243 243.694 129.319 244.151 128.507C244.553 127.793 244.189 125.738 244.243 124.894C244.431 121.937 244.889 118.973 245.756 116.136C247.394 110.772 250.298 105.818 252.113 100.49C249.411 100.104 246.708 99.7182 244.006 99.332C242.176 99.0704 240.964 98.2996 239.791 99.6384C235.728 104.273 232.261 109.611 228.547 114.529C226.098 117.772 223.715 121.031 220.942 124.012C216.511 128.776 208.536 136.49 201.998 130.487C198.64 127.404 198.13 122.111 198.063 117.838C197.973 112.021 198.859 106.203 199.867 100.49C189.977 99.5481 179.786 101.166 170.087 102.998C164.511 104.051 158.95 105.271 153.473 106.76Z" fill="#FE0000"/>
<path fill-rule="evenodd" clip-rule="evenodd" d="M208.473 72.2854C201.191 72.2854 198.032 81.9192 206.808 81.8285C213.655 81.7575 217.265 72.2854 208.473 72.2854ZM205.686 83.6705C194.757 83.6705 198.765 70.5108 208.514 70.4765C220.542 70.4338 215.227 83.6688 205.686 83.6705ZM324.606 253.015C320.173 253.932 315.72 254.885 311.407 256.273C308.76 257.125 305.759 259.564 304.328 255.996C303.735 254.519 303.495 252.953 302.778 251.519C301.953 249.867 300.869 248.353 299.72 246.914C297.105 243.638 294.369 240.193 291.394 237.252C285.619 231.542 280.204 225.244 273.193 221.109C271.391 220.047 269.895 218.345 268.159 217.12C266.292 215.805 264.419 214.501 262.505 213.256C258.586 210.705 254.592 208.267 250.541 205.931C252.58 203.459 255.394 201.794 258.004 200.005C260.797 198.09 263.544 196.088 266.3 194.124C267.508 193.263 268.095 193.042 269.442 193.781C270.682 194.462 271.896 195.316 273.08 196.091C275.985 197.991 278.566 200.23 280.879 202.818C285.86 208.391 291.689 212.891 297.235 217.864C302.862 222.91 308.47 228.213 313.251 234.083C315.812 237.228 318.335 240.508 320.556 243.904C321.73 245.699 322.726 247.592 323.749 249.472C324.147 250.204 326.26 252.672 324.606 253.015ZM247.898 201.086C247.763 201.411 247.459 201.697 247.109 201.458C247.014 201.393 247.283 199.862 247.297 199.678C247.403 198.358 247.424 197.032 247.404 195.709C247.366 193.213 247.153 190.724 246.992 188.233C246.666 183.188 246.612 178.124 246.026 173.098C247.278 173.717 248.985 174.617 249.859 175.755C250.576 176.689 250.468 177.506 250.481 178.652C250.519 182.115 251.06 185.56 251.309 189.011C251.41 190.405 251.471 191.796 251.836 193.149C252.143 194.294 252.84 195.565 252.535 196.778C252.013 198.848 249.367 199.819 247.898 201.086ZM254.774 179.439C256.292 180.476 258.028 181.078 258.34 183.091C258.642 185.041 258.227 186.829 258.9 188.745C259.299 189.881 260.154 191.271 259.456 192.381C258.727 193.539 256.9 194.13 255.838 194.937C255.627 192.41 255.805 189.87 255.621 187.343C255.428 184.699 254.774 182.097 254.774 179.439ZM262.317 185.251C263.639 186.312 264.961 187.372 266.282 188.433C264.96 189.153 263.639 189.873 262.317 190.593V185.251ZM242.721 205.541C241.747 206.331 240.075 205.402 239.239 204.828C237.938 203.933 237.709 203.131 237.833 201.581C238.14 197.745 237.437 194.042 236.805 190.256C235.386 181.759 234.233 173.199 233.547 164.61C236.014 165.795 239.273 167.124 240.816 169.522C241.813 171.07 241.521 173.05 241.473 174.81C241.408 177.211 241.207 179.609 241.212 182.011C241.222 186.738 241.752 191.462 241.885 196.187C241.941 198.169 241.934 200.203 242.882 202.001C243.095 202.406 244.199 203.606 244.229 203.938C244.285 204.556 243.179 205.164 242.721 205.541ZM230.718 199.734C227.579 198.101 227.185 193.904 226.444 190.835C225.411 186.556 224.419 182.189 223.821 177.826C223.232 173.536 223.341 169.189 222.671 164.906C222.524 163.966 221.588 161.877 221.982 160.943C222.48 159.763 224.341 159.793 225.389 159.614C226.349 159.449 228.15 158.425 228.769 159.289C229.284 160.008 228.788 161.65 228.666 162.421C228.102 166.013 228.666 169.637 229.076 173.23C230.123 182.415 230.978 191.602 232.538 200.721C231.932 200.392 231.33 200.052 230.718 199.734ZM225.363 209.079C225.272 207.446 225.181 205.813 225.089 204.18C226.043 204.539 226.997 204.898 227.951 205.258C227.2 206.599 226.529 208.035 225.363 209.079ZM222.031 213.145C221.141 214.07 220.353 215.284 219.124 215.795V202.629C220.166 202.783 221.338 202.507 221.764 203.651C222.09 204.525 221.653 205.881 221.779 206.838C221.986 208.417 223.34 211.784 222.031 213.145ZM215.913 193.779C214.999 186.421 214.732 178.999 213.54 171.673C213.27 170.014 212.962 168.406 212.557 166.776C212.3 165.745 211.767 164.491 212.431 163.523C213.453 162.033 216.321 162.076 217.887 161.706C217.698 173.243 218.24 185.009 222.275 195.942C220.945 195.789 216.138 195.592 215.913 193.779ZM215.399 219.017C213.691 220.254 212.144 222.046 210.046 222.623C209.915 217.389 209.838 212.152 209.635 206.921C209.588 205.704 209.556 204.475 209.431 203.263C209.379 202.746 209.032 201.684 209.281 201.166C209.919 199.838 212.259 200.744 213.225 201.345C214.558 202.173 214.409 203.537 214.388 204.999C214.362 206.864 214.391 208.657 214.529 210.523C214.651 212.178 214.805 213.78 215.096 215.41C215.194 215.956 215.973 218.601 215.399 219.017ZM207.199 224.69C205.127 225.825 204.361 223.658 203.412 222.231C202.76 221.251 201.719 220.321 201.457 219.133C201.192 217.938 201.784 216.728 201.884 215.548C202.126 212.713 201.207 209.789 200.85 206.995C200.444 203.821 200.296 200.601 200.296 197.403C201.862 198.114 204.664 198.143 205.227 200.071C205.477 200.927 205.143 202.031 205.091 202.905C205.004 204.376 205.053 205.861 205.035 207.335C204.963 213.178 205.202 218.882 208.449 223.958C208.036 224.208 207.619 224.452 207.199 224.69ZM200.552 228.243C197.046 229.728 193.674 231.621 189.972 232.598C186.27 233.575 182.495 234.458 178.741 235.219C170.886 236.811 162.817 237.743 154.795 237.487C150.868 237.361 147.004 236.845 143.124 236.251C139.196 235.649 135.795 234.235 132.077 232.934C124.85 230.405 117.442 228.765 110.591 225.234C108.937 224.381 107.328 223.449 105.686 222.577C104.814 222.113 103.742 221.915 103.695 220.811C103.646 219.668 104.88 217.569 105.369 216.545C106.128 214.959 107.298 213.698 108.485 212.419C110.498 210.25 112.388 207.024 114.83 205.352C116.177 204.43 116.731 204.994 117.913 205.816C119.469 206.898 121.326 207.668 123.068 208.407C130.235 211.445 138.38 213.286 146.09 214.185C153.68 215.071 161.184 215.932 168.742 214.126C173.019 213.104 177.033 211.385 181.076 209.691C182.413 209.131 183.915 207.9 185.137 208.862C186.445 209.892 187.224 212.019 188.292 213.322C190.85 216.443 194.025 218.871 196.583 221.983C197.204 222.74 202.351 227.482 200.552 228.243ZM100.062 213.311C98.9272 214.984 97.9056 216.793 97.5817 218.816C95.4028 217.068 93.9157 216.476 95.6683 213.715C97.3059 211.133 98.7616 208.503 100.253 205.83C100.862 204.738 101.766 203.458 101.569 202.135C101.343 200.627 99.9997 199.949 98.6927 200.63C97.7644 201.113 97.0655 202.39 96.4532 203.209C95.3493 204.684 94.3884 206.252 93.4505 207.836C92.7542 209.013 92.095 210.919 91.122 211.821C90.4671 212.428 89.6395 212.461 89.4656 211.273C89.311 210.216 90.8787 208.354 91.346 207.514C92.108 206.144 92.9464 204.807 93.5446 203.354C94.1652 201.848 94.5711 196.86 91.5801 199.34C90.5477 200.195 89.6788 201.848 88.9009 202.931C87.7051 204.598 86.582 206.317 85.5476 208.088C83.7215 206.868 81.9835 204.94 79.78 204.415C77.6856 203.916 75.8047 205.816 74.0171 206.693C71.2338 208.056 68.606 209.711 65.9557 211.31C63.5904 212.738 61.0747 213.855 58.7545 215.365C54.7186 217.993 49.8033 221.454 44.7342 219.893C42.7258 219.275 40.508 218.002 39.4167 216.141C37.9421 213.625 38.3187 210.273 37.3699 207.55C40.0571 209.036 42.8892 207.32 45.2591 206.04C47.9149 204.604 50.6697 203.378 53.4568 202.22C59.2176 199.827 65.1912 197.738 70.861 195.157C81.9401 190.113 91.28 181.979 102.397 177.048C105.012 184.63 109.332 191.615 115.056 197.244C109.59 202.135 104.199 207.209 100.062 213.311ZM187.58 183.106C186.097 182.406 184.292 182.259 185.321 180.324C186.052 178.95 187.641 177.994 188.645 176.825L189.883 184.293C189.116 183.896 188.361 183.475 187.58 183.106ZM195.978 187.221C195.789 183.498 195.323 179.66 193.951 176.174C193.548 175.151 192.859 173.947 193.434 172.883C194.022 171.797 195.753 171.202 196.82 170.748C197.634 177.091 198.026 183.545 199.913 189.692C198.522 189.31 196.075 189.124 195.978 187.221ZM197.132 212.744C197.14 212.857 197.146 212.969 197.154 213.081C195.725 212.376 194.128 211.286 193.385 209.821C192.606 208.285 193.022 206.519 193.032 204.877C193.043 202.981 192.72 201.147 192.369 199.292C191.973 197.2 192.22 195.239 192.354 193.136C193.501 193.911 195.224 194.458 195.98 195.693C196.771 196.985 196.316 198.67 196.16 200.073C195.695 204.247 196.04 208.689 197.132 212.744ZM210.497 193.444C207.74 193.058 206.273 192.5 205.788 189.635C205.192 186.117 204.565 182.62 204.083 179.084C203.636 175.8 202.096 172.395 201.943 169.12C201.835 166.814 205.707 165.993 207.461 165.135C208.398 174.578 208.864 184.083 210.497 193.444ZM182.338 178.149C182.032 178.852 181.777 179.576 181.499 180.29C179.552 177.401 177.634 174.574 175.367 171.922C173.267 169.465 171.517 166.957 170.442 163.89C169.275 160.565 168.206 157.037 167.854 153.521C167.499 149.975 167.825 146.339 167.907 142.784C167.954 140.719 169.111 135.505 167.491 133.822C166.896 133.204 165.956 133.413 165.283 132.841C164.361 132.058 164.063 130.451 163.683 129.374C161.282 122.588 159.166 115.595 155.63 109.286C160.346 107.268 165.681 106.254 170.649 105.02C175.865 103.724 181.283 102.923 186.637 102.478C189.223 102.263 191.812 102.172 194.406 102.191C196.511 102.207 198.616 101.855 197.903 104.536C196.825 108.588 196.045 112.738 196.096 116.95C196.17 123.1 197.744 131.263 204.011 134.065C213.772 138.431 221.471 127.941 226.469 121.291C229.962 116.643 233.331 112.047 236.347 107.058C237.333 105.427 238.176 102.912 240.054 102.098C242.385 101.089 245.748 101.789 248.211 101.789C248.024 104.759 247.835 107.246 246.547 109.979C245.299 112.627 244.277 115.293 243.438 118.097C242.634 120.78 242.27 123.285 241.937 126.025C241.64 128.459 239.148 127.599 237.365 128.297C233.185 129.935 230.932 134.894 229.278 138.719C228.221 141.163 227.13 143.664 226.679 146.306C226.14 149.466 226.528 152.682 226.65 155.86C225.929 156.013 225.138 155.43 224.458 155.269C223.421 155.024 222.289 155.017 221.232 155.085C218.904 155.238 216.544 155.654 214.272 156.172C209.36 157.293 204.715 159.315 200.267 161.648C193.057 165.428 185.702 170.426 182.338 178.149ZM158.161 129.529C150.788 132.067 143.304 134.432 135.614 135.806C131.831 136.482 128.047 136.338 124.226 136.224C122.47 136.172 120.945 135.882 119.243 135.521C117.948 135.246 115.787 134.575 114.585 135.349C113.884 133.041 110.183 132.999 108.285 132.627C106.742 132.325 105.382 131.546 103.865 131.181C103.296 131.044 102.742 131.067 102.238 130.779C101.754 130.503 101.481 129.877 100.978 129.632C100.255 129.281 99.3769 129.258 98.844 128.758C97.6085 127.6 96.2262 126.569 95.0028 125.392C93.7673 124.204 93.1813 122.669 92.3387 121.197C91.354 119.474 89.8246 117.778 89.0986 115.945C89.4175 116.164 89.7344 116.385 90.0495 116.61C89.8769 114.453 89.2855 112.557 89.4355 110.322C89.5099 109.219 89.3979 108.512 89.2583 107.468C89.1517 106.672 89.2554 106.016 89.2671 105.124C89.2988 102.742 90.0854 100.561 90.4595 98.2359C90.5841 97.4635 90.6497 96.6346 90.6836 95.8702C90.7141 95.1717 90.2794 94.2422 90.3617 93.4894C90.6882 93.6554 90.9824 93.8664 91.2441 94.1231C90.5109 92.3304 92.8645 90.1988 93.1253 88.4872C93.5178 85.9129 91.0668 85.26 88.9945 85.5681C86.2054 85.9827 83.6291 87.6308 81.1326 88.8366C77.7144 90.4884 74.3147 92.1477 70.965 93.9362C67.0357 96.034 63.605 98.8164 59.7372 100.958C59.2473 101.229 57.4438 102.4 57.1169 101.423C56.8268 100.557 58.8419 98.9895 59.3313 98.5389C61.845 96.2242 64.6642 94.1732 67.4846 92.2485C69.4328 90.9185 71.4741 89.7294 73.4687 88.4713C75.6116 87.1196 78.6151 85.5948 79.4561 83.0122C80.1482 80.8872 79.3445 78.9562 76.9487 79.5665C73.8482 80.3564 70.7431 82.529 67.8967 83.9723C65.0533 85.4147 62.1664 86.7777 59.3405 88.2535C58.7102 88.5825 56.2906 90.2844 56.6981 88.9248C57.0275 87.8251 58.9296 86.4985 59.7501 85.747C60.9651 84.6331 62.2454 83.5919 63.5637 82.6026C66.3498 80.5115 69.3103 78.6599 72.3168 76.9057C74.1608 75.8298 76.1462 74.6946 76.244 72.3018C76.4108 68.1969 72.6837 70.3753 70.5333 71.1895C67.6564 72.2779 64.6755 73.0616 61.7915 74.132C59.162 75.1076 56.5067 76.1671 53.7029 76.5237C52.2685 76.7063 50.1343 76.7611 50.4796 74.7577C50.8503 72.611 53.9161 71.1369 55.5909 70.1793C58.4569 68.5405 61.394 67.9164 64.5768 67.2021C68.0422 66.4243 71.4599 65.5871 74.9646 64.9844C82.0659 63.7626 88.9009 63.3309 96.0749 63.9833C99.3631 64.2822 102.705 63.962 105.957 64.263C108.119 64.4627 109.741 65.8086 110.917 67.5499C113.78 71.7939 114.983 77.5807 114.522 82.5955C113.855 89.8606 110.685 95.9839 107.976 102.599C105.915 107.631 104.377 114.623 109.904 118.05C112.514 119.668 115.46 119.555 118.383 119.13C122.327 118.555 126.211 117.642 130.065 116.64C137.679 114.659 145.219 112.434 152.736 110.116C153.067 111.426 160.247 128.812 158.161 129.529ZM199.051 118.075C199.33 114.181 199.468 110.341 200.153 106.489C200.377 105.235 200.476 103.843 201.569 103.013C202.649 102.194 204.253 102.167 205.482 101.662C208.746 100.318 211.413 97.2315 213.88 94.7993C216.427 92.2882 218.083 89.4272 219.283 86.0722C220.244 83.3888 221.768 79.1514 219.989 76.5124C218.604 74.4581 216.347 73.7366 217.057 70.7774C217.665 68.2479 220.181 66.8239 222.365 68.5258C223.731 69.5891 225.265 72.1718 225.265 68.6608C231.088 69.9498 237.104 67.9131 242.191 65.1499C243.186 64.6095 244.405 63.7518 245.416 64.6032C246.084 65.1658 246.301 66.2738 247.033 66.8982C247.798 67.5507 248.998 67.9131 249.234 69.0048C249.416 69.8462 248.885 71.1569 248.658 71.9348C248.079 73.9168 247.299 75.9431 245.713 77.3295C245.027 77.9297 242.671 79.9598 241.788 79.1008C240.769 78.109 242.981 74.8927 240.17 76.7343C239.164 77.3934 238.852 77.4252 238.423 78.629C237.919 80.043 237.69 81.5439 237.49 83.0243C236.397 82.667 234.661 81.5038 233.544 82.3493C232.486 83.1506 233.045 84.827 233.915 85.5238C234.809 86.2389 236.63 86.3727 237.675 85.9129C239.345 85.1777 239.353 83.2985 239.71 81.755C240.654 82.4392 241.286 83.6529 242.642 83.4201C238.52 88.3074 233.092 91.6922 226.645 91.703C223.731 91.708 222.63 92.8286 222.048 95.6704C221.455 98.5732 221.471 101.738 221.467 104.683C221.464 107.086 221.551 109.544 222.285 111.853C222.771 113.383 223.72 114.874 224.319 112.372C224.642 111.029 224.413 109.486 224.4 108.111C224.392 107.247 224.101 105.669 224.667 104.957C225.295 104.166 226.753 104.602 227.627 104.594C229.463 104.576 231.22 103.891 233.057 103.891C230.342 107.889 227.268 111.628 224.669 115.707C222.013 119.877 218.783 123.795 214.87 126.857C211.601 129.415 207.049 130.735 203.337 128.244C200.153 126.107 198.788 121.757 199.051 118.075ZM249.632 81.4248C250.817 83.1159 246.993 86.445 245.525 86.4195C245.9 85.8172 248.891 80.3669 249.632 81.4248ZM252.237 104.575C252.672 103.325 255.132 103.428 256.152 103.395C258.378 103.322 260.608 103.316 262.836 103.248C268.926 103.061 275.012 102.622 281.108 102.719C287.419 102.82 293.735 102.22 300.034 102.439C306.019 102.647 311.982 103.204 317.865 104.331C328.644 106.397 339.85 109.342 348.465 116.579C356.204 123.08 361.97 132.488 360.75 142.885C359.998 149.297 359.724 156.031 357.295 162.093C355.231 167.244 350.898 170.436 346.423 173.403C346.364 172.169 349.653 164.177 346.143 165.399C345.01 165.793 344.354 167.352 343.736 168.286C342.654 169.925 341.494 171.53 340.32 173.106C338.19 175.967 335.744 178.672 332.601 180.44C331.384 181.125 327.511 183.14 326.823 180.93C326.253 179.099 329.95 175.39 330.821 173.989C331.592 172.746 332.21 171.546 331.92 170.067C331.808 169.497 331.465 168.974 331.336 168.404C331.233 167.942 331.353 167.236 331.144 166.815C329.748 163.996 328.26 168.878 327.819 169.759C326.292 172.809 322.735 174.794 319.968 176.543C316.527 178.718 313.122 181.075 309.126 182.103C311.626 177.821 314.182 173.567 316.453 169.156C318.567 165.049 319.904 160.298 322.374 156.487C322.791 155.843 323.075 155.146 323.405 154.375C323.611 153.895 323.921 152.258 324.194 151.972C324.348 151.809 325.212 151.747 325.551 151.417C325.969 151.012 326.204 150.369 326.416 149.842C326.668 149.215 327.634 147.032 327.381 146.322C327.327 146.174 326.637 146.238 326.517 145.965C326.377 145.644 326.479 145.41 326.464 145.082C326.431 144.327 326.909 143.757 326.345 143.035C329.198 143.035 326.539 135.363 326.051 133.968C325.509 132.418 324.601 131.305 324.182 129.793C323.672 127.948 322.253 126.33 320.987 124.937C319.72 123.543 318.398 121.881 316.972 120.668C315.496 119.412 313.502 118.701 311.824 117.75C311.076 117.325 310.276 116.762 309.417 116.59C309.138 116.672 308.86 116.759 308.584 116.848C308.261 116.68 307.975 116.463 307.725 116.198C306.121 115.364 304.549 115.063 302.744 114.845C293.821 113.767 284.256 113.572 275.298 114.329C270.643 114.722 265.912 115.17 261.327 116.083C256.58 117.029 251.909 118.236 247.11 118.931C248.193 113.941 250.566 109.372 252.237 104.575ZM278.063 43.3549C278.887 43.2454 278.541 44.3676 278.275 44.7054C277.929 44.3079 277.858 43.8577 278.063 43.3549ZM393.675 280.687C393 277.439 390.688 274.09 388.022 272.149C384.733 269.753 381.018 269.726 377.153 269.921C372.723 270.145 368.421 270.918 364.059 271.66C359.626 272.414 355.263 273.063 350.96 274.412C349.237 274.952 347.485 275.407 345.785 276.017C344.517 276.472 343.052 277.343 342.417 275.688C341.263 272.68 345.701 271.372 347.468 270.103C348.43 269.412 349.709 268.413 348.502 267.343C347.075 266.078 344.656 267.295 343.201 267.818C341.858 268.302 340.496 268.47 340.837 266.324C341.064 264.899 342.913 263.976 343.948 263.143C345.222 262.12 349.691 259.105 346.824 257.576C343.771 255.949 342.057 260.008 339.45 260.217C337.154 260.401 337.169 254.756 336.527 253.21C334.906 249.304 330.848 253.577 329.024 251.222C328.272 250.252 328.532 248.504 328.251 247.366C327.789 245.492 326.717 243.653 325.851 241.935C323.934 238.135 321.72 234.485 319.243 231.025C316.769 227.568 314.027 224.596 310.908 221.721C307.779 218.839 305.051 215.563 301.974 212.628C295.849 206.786 288.789 201.979 282.513 196.28C281.064 194.964 279.683 193.592 277.991 192.583C276.438 191.656 273.87 191.157 272.632 189.839C271.828 188.983 271.96 187.778 271.57 186.724C270.908 184.938 269.319 183.729 267.959 182.48C261.633 176.677 255.015 170.911 247.587 166.547C243.985 164.43 240.335 161.795 236.47 160.201C235.221 159.686 233.533 159.473 232.505 158.53C231.428 157.541 231.225 155.812 230.817 154.476C228.29 146.185 233.496 137.599 239.816 132.447C240.941 131.531 242.561 130.775 243.284 129.492C244.076 128.087 244.113 126.285 244.958 124.856C246.522 122.21 250.779 122.575 253.467 121.974C269.695 118.343 288.954 116.937 304.86 122.729C311.545 125.162 317.286 129.258 319.842 136.08C320.996 139.159 321.604 142.498 321.508 145.789C321.401 149.455 320.059 152.856 318.831 156.271C317.356 160.377 315.704 164.423 313.792 168.346C312.067 171.888 309.879 175.076 307.974 178.503C306.791 180.631 304.914 184.556 307.622 186.318C309.781 187.723 313.209 186.902 315.339 185.874C318.525 184.337 320.88 181.579 323.669 179.478C323.681 181.56 321.829 183.424 322.673 185.529C323.511 187.621 325.784 187.35 327.58 186.84C329.631 186.257 331.757 185.351 333.634 184.345C336.005 183.074 337.711 181.125 339.726 179.397C343.265 176.36 347.968 175.343 351.759 172.71C355.677 169.989 358.383 165.869 360.035 161.449C361.948 156.331 362.73 150.842 363.389 145.444C364.041 140.104 364.36 134.841 362.591 129.669C359.228 119.834 352.404 112.078 343.232 107.213C323.878 96.9473 302.016 97.3673 280.76 97.9308C274.934 98.0854 269.103 98.1636 263.286 98.5452C260.612 98.7207 257.932 98.9389 255.275 99.2992C254.465 99.4091 252.652 100.029 251.93 99.3648C251.374 98.8532 251.7 97.7765 251.195 97.1592C249.994 95.6913 247.314 96.0687 245.714 96.2643C243.693 96.5105 241.313 96.554 239.496 97.5387C237.749 98.4854 237.141 100.469 234.977 100.498C232.57 100.531 230.054 99.9587 227.629 99.8668C225.722 99.7945 224.029 99.1374 225.856 97.048C227.249 95.4547 229.583 95.4643 231.477 95.1036C234.979 94.437 242.94 88.5808 245.564 92.6414C246.284 93.7557 246.232 94.1599 247.616 94.6472C248.896 95.0982 250.348 95.3172 251.688 95.5371C254.182 95.9458 257.083 96.2748 259.523 95.4046C263.316 94.0516 264.1 89.7908 264.985 86.343C269.035 88.4947 275.152 89.4941 279.152 86.6811C282.512 84.3171 283.721 79.3612 283.576 75.4712C283.533 74.3143 283.38 73.1277 282.968 72.0389C282.586 71.0295 281.557 69.9799 281.595 68.8573C281.629 67.8796 282.551 67.0303 282.975 66.2107C283.603 64.9944 283.905 63.5499 284.029 62.194C284.484 57.2164 280.765 54.439 276.899 52.149C279.17 49.4455 281.709 46.7476 281.511 42.9603C281.327 39.4263 278.534 36.9669 275.654 35.3093C273.078 33.8267 270.479 33.2529 267.589 32.8934C266.329 32.7367 265.848 32.8658 266.049 31.5668C266.208 30.5352 266.95 29.6186 267.178 28.5975C268.51 22.6477 262.63 20.3832 257.872 19.8649C250.037 19.0114 242.772 20.6068 236.408 25.2304C231.757 15.4374 216.249 20.2691 211.927 27.8586C211.36 28.8537 210.942 29.935 210.746 31.066C210.616 31.823 211.025 33.6077 210.647 34.1828C209.911 35.3042 206.976 34.2426 205.941 34.2961C204.046 34.3935 202.017 35.3757 200.486 36.4474C194.019 40.9765 194.346 50.2827 195.899 57.1186C191.742 57.6825 187.54 61.1211 187.456 65.5419C187.414 67.7605 188.218 70.2633 189.516 72.0568C190.844 73.8934 193.267 75.1205 193.516 77.5623C193.777 80.1311 193.235 81.6379 195.383 83.5748C196.957 84.995 199.039 86.1424 201.028 86.8617C205.683 88.5453 210.98 87.9484 215.502 86.1323C213.203 89.7607 209.525 92.995 205.943 95.3239C204.336 96.3688 202.448 97.7113 200.637 98.3613C198.672 99.0668 196.239 97.8359 194.208 97.6658C185.082 96.9021 175.684 98.5627 166.901 100.831C157.396 103.285 147.999 105.981 138.564 108.708C133.894 110.058 129.23 111.484 124.511 112.658C120.968 113.54 117.021 114.315 113.36 113.691C110.239 113.158 108.708 111.053 109.713 107.895C111.038 103.735 113.623 99.8551 115.225 95.769C118.189 88.2109 119.657 79.5276 117.066 71.6585C116.016 68.4719 114.523 64.7725 111.666 62.7879C110.155 61.7388 108.265 61.1203 106.626 60.2914C104.543 59.2381 102.306 58.4758 100.053 57.876C91.0037 55.4664 81.4565 56.5928 72.4187 58.449C64.2554 60.1259 51.5734 62.5037 47.9274 71.251C46.6806 74.242 46.2276 79.2981 49.3272 81.3846C51.9951 83.1798 56.0227 82.0183 58.6174 80.6628C56.0887 83.5714 52.9485 86.3443 51.7285 90.1198C51.2992 91.4489 50.9686 93.2834 51.8359 94.5155C53.0965 96.3061 55.2398 95.2533 56.933 94.8332C54.9468 97.3949 52.0867 101.479 54.1142 104.753C56.3575 108.375 60.8795 105.947 63.6711 104.435C67.8131 102.191 72.1324 100.299 76.2824 98.0679C78.5056 96.8733 80.6857 95.6056 82.6247 93.9797C84.2301 92.6334 85.5919 91.2044 87.8075 91.0418C84.916 96.5001 82.0659 102.177 82.1185 108.506C82.1679 114.4 84.4817 121.406 87.6081 126.398C90.8796 131.62 96.161 134.835 101.735 137.145C107.804 139.66 113.995 141.359 120.588 141.631C133.438 142.164 147.292 139.17 158.382 132.6C159.212 132.108 159.241 131.937 160.018 132.506C161.013 133.235 161.812 135.861 162.434 136.963C164.259 140.196 163.719 142.913 163.375 146.457C162.763 152.751 164.138 159.11 166.074 165.068C168.008 171.022 171.223 175.734 175.248 180.47C177.054 182.595 178.932 184.272 181.371 185.635C184.024 187.117 186.286 188.409 187.315 191.426C188.173 193.942 188.034 196.091 186.841 198.459C186.533 199.071 185.941 200.944 185.376 201.371C184.838 201.778 184.695 201.414 184.196 201.546C183.285 201.788 183.025 201.923 182.289 202.621C180.321 204.49 177.407 204.984 174.857 205.747C171.349 206.796 167.738 207.815 164.064 208C157.736 208.32 150.505 208.284 144.413 206.461C138.277 204.624 131.918 203.567 126.015 201.002C123.331 199.835 122.093 199.238 121.524 196.317C121.221 194.767 120.788 194.646 119.489 194.201C117.998 193.688 117.401 192.984 116.522 191.628C114.949 189.203 113.451 186.74 111.99 184.248C110.158 181.126 107.867 178.26 106.144 175.084C105.114 173.186 104.332 169.85 101.65 169.776C100.058 169.732 98.324 170.89 96.8937 171.479C95.15 172.197 93.392 172.88 91.652 173.607C84.954 176.407 78.9729 180.614 72.8522 184.471C66.1718 188.68 58.5317 191.656 51.4589 195.202C48.1586 196.856 45.0071 198.756 41.9906 200.885C40.0399 202.261 36.2318 203.763 36.5169 206.496C35.5518 205.969 34.3443 205.049 33.421 206.145C32.6586 207.049 33.1815 208.711 33.3733 209.74C34.004 213.124 34.7543 216.572 36.8165 219.408C40.083 223.902 46.3087 227.587 51.9817 226.778C58.9167 225.789 64.4786 220.856 70.438 217.615C72.6148 216.432 74.7999 215.329 76.8618 213.955C78.0768 213.146 80.2168 211.399 81.813 211.609C84.2481 211.93 82.2122 214.811 81.5451 215.934C80.8391 217.124 80.2494 218.377 79.6191 219.609C78.9123 220.989 77.7374 222.529 77.3324 224.024C77.0762 224.971 77.2011 226.406 78.379 226.643C79.5769 226.884 80.6022 225.333 81.2099 224.564C82.2113 223.297 83.0452 221.91 83.9049 220.546C84.4755 219.64 85.1797 217.913 86.1432 217.347C88.6389 215.88 85.9095 220.583 85.4615 221.225C84.8993 222.032 84.0843 223.005 83.9484 224C83.7482 225.464 84.9411 226.878 86.4742 226.527C87.6554 226.257 88.452 225.027 89.1166 224.12C89.5438 223.538 90.8202 221.266 91.6478 221.244C92.1594 221.231 93.4509 223.009 93.8497 223.394C95.0091 224.515 96.3834 225.279 97.825 225.978C104.5 229.211 110.568 233.353 117.531 236.041C124.183 238.609 131.119 240.632 138.042 242.301C141.693 243.181 145.106 244.14 148.871 244.45C152.681 244.763 156.436 244.606 160.251 244.528C168.034 244.367 175.368 242.751 182.846 240.691C196.125 237.032 208.602 231.026 218.88 221.726C221.537 219.323 223.942 216.684 226.215 213.92C227.203 212.719 228.237 211.53 229.073 210.218C229.632 209.34 230.14 207.837 231.124 207.336C232.64 206.564 236.135 209.008 237.502 209.686C238.999 210.428 240.531 211.398 242.163 211.785C242.776 211.931 243.373 211.943 243.973 212.152C244.573 212.361 245.28 213.019 245.964 212.872C248.509 212.323 244.336 207.42 248.071 209.903C254.036 213.87 259.613 218.613 265.236 223.047C266.643 224.156 268.086 225.132 269.59 226.105C270.999 227.015 272.079 228.256 273.427 229.242C276.378 231.399 279.161 233.702 281.846 236.186C284.506 238.647 287.056 241.25 289.867 243.541C292.621 245.788 294.768 248.381 297.087 251.058C299.349 253.669 301.038 256.672 302.644 259.714C301.301 259.246 300.174 258.447 299.436 260.198C298.96 261.324 299.367 262.869 299.673 263.99C300.658 267.584 302.725 270.81 303.967 274.317C305.382 278.312 307.471 282.147 308.649 286.211C309.69 289.808 309.445 293.789 310.935 297.274C312.158 300.135 316.612 299.473 319.185 299.729C323.298 300.137 327.362 300.6 331.497 300.728C340.101 300.995 348.816 301.646 357.419 301.314C365.243 301.012 373.051 300.532 380.85 299.859C382.984 299.675 387.734 299.247 388.225 296.445C388.543 294.634 386.934 294.906 385.714 295.019C383.977 295.18 382.221 295.154 380.477 295.184C372.126 295.327 363.926 295.441 355.59 294.806C347.066 294.156 338.547 293.994 330.017 293.678C326.173 293.535 322.438 293.467 318.604 293.641C317.46 293.693 316.054 293.83 315.414 292.722C314.771 291.608 314.86 288.96 314.57 287.707C313.557 283.347 311.335 279.484 309.84 275.295C308.333 271.068 306.832 266.857 304.907 262.797C311.076 261.713 317.236 260.493 323.318 258.995C325.794 258.384 328.407 257.976 330.81 257.147C333.466 256.231 333.525 256.732 334.032 259.243C334.473 261.431 334.975 262.988 332.975 264.445C330.898 265.959 328.356 266.865 326.484 268.662C324.774 270.303 325.118 272.654 327.864 272.314C330.58 271.979 333.693 269.932 336.153 268.791C336.497 270.279 336.817 271.34 335.855 272.625C334.835 273.986 333.281 274.855 332.13 276.089C331.281 277 330.389 278.336 331.785 279.218C333.221 280.126 334.655 278.94 335.729 278.12C336.542 277.498 337.882 276.126 338.963 276.896C340.089 277.697 339.493 279.728 340.158 280.821C341.282 282.668 342.058 281.302 343.153 280.521C344.914 279.264 348.506 279.613 350.605 279.44C353.122 279.231 355.579 278.767 358.08 278.458C361.061 278.09 364.064 278.072 367.041 277.648C371.608 276.996 376.623 275.136 381.207 276.303C388.353 278.122 391.817 285.79 390.683 292.702C390.46 294.064 389.359 297.069 390.628 298.237C391.819 299.333 392.675 297.366 393.108 296.425C395.372 291.495 394.741 285.828 393.675 280.687Z" fill="white"/>
<path fill-rule="evenodd" clip-rule="evenodd" d="M310.716 83.8545C320.534 82.8572 330.698 85.0716 340.169 87.4891C348.672 89.6592 356.94 93.2291 362.689 100.102C363.593 101.183 364.601 103.553 365.826 104.248C367.703 105.315 367.501 102.694 367.032 101.629C365.516 98.1904 362.126 94.5704 359.373 92.0935C352.815 86.193 344.064 83.457 335.575 81.7688C330.417 80.7431 325.113 80.1676 319.852 80.1592C317.23 80.1555 314.613 80.4459 312.054 81.0261C311.24 81.2108 310.057 81.3793 309.629 82.2248C309.15 83.1749 309.578 83.9698 310.716 83.8545Z" fill="#FF9393"/>
<path fill-rule="evenodd" clip-rule="evenodd" d="M80.1163 143.641C82.7653 146.403 86.3164 148.346 90.0806 149.039C92.0438 149.401 95.077 149.946 96.886 148.815C97.8005 148.244 98.2837 147.128 97.696 146.096C96.9976 144.87 95.1682 144.916 93.9694 144.747C89.5394 144.125 85.9009 142.914 82.5221 139.881C79.4208 137.098 77.318 133.542 75.825 129.68C75.1299 127.88 74.8252 126.049 74.3621 124.189C74.1 123.137 73.4108 120.677 72.2743 122.465C70.4963 125.263 72.7847 130.943 73.8024 133.649C75.2114 137.396 77.3455 140.751 80.1163 143.641Z" fill="#FF9393"/>
<path fill-rule="evenodd" clip-rule="evenodd" d="M186.411 42.4433C188.932 39.8488 190.18 36.4101 193.058 34.0532C193.594 33.6143 195.655 32.6915 195.631 31.894C195.599 30.8449 194.383 31.0263 193.752 31.2311C190.644 32.2384 184.752 39.1248 186.411 42.4433Z" fill="#FF9393"/>
<path fill-rule="evenodd" clip-rule="evenodd" d="M234.019 80.0133C235.05 79.1794 237.546 77.0394 237.376 75.5443C237.216 74.1425 236.062 74.4956 235.158 75.0595C234.769 75.3023 233.878 76.3222 233.296 76.0551C232.703 75.7838 233.154 75.8783 232.925 75.3721C232.605 74.6666 233.128 72.7385 231.763 73.2911C230.952 73.6196 230.548 75.5397 230.492 76.2779C230.351 78.1278 231.629 81.9464 234.019 80.0133Z" fill="white"/>
<path fill-rule="evenodd" clip-rule="evenodd" d="M225.834 86.4152C226.009 87.4915 227.513 89.5554 228.788 88.4524C229.806 87.5713 228.609 86.5615 228.163 85.7118C227.874 85.1609 227.485 83.1985 226.674 83.2311C225.407 83.2817 225.706 85.6315 225.834 86.4152Z" fill="#FF9393"/>
<path fill-rule="evenodd" clip-rule="evenodd" d="M221.288 73.7122C221.605 72.6597 220.437 68.5837 218.895 69.8196C217.636 70.8294 219.161 71.8861 219.74 72.5766C220.022 72.9134 220.932 74.8992 221.288 73.7122Z" fill="#FF9393"/>
</svg>
