<svg width="21" height="20" viewBox="0 0 21 20" fill="none" xmlns="http://www.w3.org/2000/svg">
<path d="M16.5588 4.44134C15.4504 3.92467 14.2504 3.54967 13.0004 3.33301C12.9784 3.33332 12.9575 3.34231 12.9421 3.35801C12.7921 3.63301 12.6171 3.99134 12.5004 4.26634C11.1746 4.06647 9.82627 4.06647 8.50042 4.26634C8.38376 3.98301 8.20876 3.63301 8.05042 3.35801C8.04209 3.34134 8.01709 3.33301 7.99209 3.33301C6.74209 3.54967 5.55042 3.92467 4.43376 4.44134C4.42542 4.44134 4.41709 4.44967 4.40876 4.45801C2.14209 7.84967 1.51709 11.1497 1.82542 14.4163C1.82542 14.433 1.83376 14.4497 1.85042 14.458C3.35042 15.558 4.79209 16.2247 6.21709 16.6663C6.24209 16.6747 6.26709 16.6663 6.27542 16.6497C6.60876 16.1913 6.90876 15.708 7.16709 15.1997C7.18376 15.1663 7.16709 15.133 7.13376 15.1247C6.65876 14.9413 6.20876 14.7247 5.76709 14.4747C5.73376 14.458 5.73376 14.408 5.75876 14.383C5.85042 14.3163 5.94209 14.2413 6.03376 14.1747C6.05042 14.158 6.07542 14.158 6.09209 14.1663C8.95876 15.4747 12.0504 15.4747 14.8838 14.1663C14.9004 14.158 14.9254 14.158 14.9421 14.1747C15.0338 14.2497 15.1254 14.3163 15.2171 14.3913C15.2504 14.4163 15.2504 14.4663 15.2088 14.483C14.7754 14.7413 14.3171 14.9497 13.8421 15.133C13.8088 15.1413 13.8004 15.183 13.8088 15.208C14.0754 15.7163 14.3754 16.1997 14.7004 16.658C14.7254 16.6663 14.7504 16.6747 14.7754 16.6663C16.2088 16.2247 17.6504 15.558 19.1504 14.458C19.1671 14.4497 19.1754 14.433 19.1754 14.4163C19.5421 10.6413 18.5671 7.36634 16.5921 4.45801C16.5838 4.44967 16.5754 4.44134 16.5588 4.44134ZM7.60042 12.4247C6.74209 12.4247 6.02542 11.633 6.02542 10.658C6.02542 9.68301 6.72542 8.89134 7.60042 8.89134C8.48376 8.89134 9.18376 9.69134 9.17542 10.658C9.17542 11.633 8.47542 12.4247 7.60042 12.4247ZM13.4088 12.4247C12.5504 12.4247 11.8338 11.633 11.8338 10.658C11.8338 9.68301 12.5338 8.89134 13.4088 8.89134C14.2921 8.89134 14.9921 9.69134 14.9838 10.658C14.9838 11.633 14.2921 12.4247 13.4088 12.4247Z" fill="white"/>
</svg>
