<svg width="60" height="60" viewBox="0 0 60 60" fill="none" xmlns="http://www.w3.org/2000/svg">
<rect width="60" height="60" rx="10" fill="#F7F7F6"/>
<path d="M20 25C20 21.465 20 19.6962 21.0988 18.5987C22.1963 17.5 23.965 17.5 27.5 17.5H32.5C36.035 17.5 37.8038 17.5 38.9013 18.5987C40 19.6962 40 21.465 40 25V35C40 38.535 40 40.3038 38.9013 41.4013C37.8038 42.5 36.035 42.5 32.5 42.5H27.5C23.965 42.5 22.1963 42.5 21.0988 41.4013C20 40.3038 20 38.535 20 35V25Z" stroke="#101213" stroke-width="1.5"/>
<path d="M39.8725 35H24.8725C23.71 35 23.1287 35 22.6512 35.1275C22.0154 35.298 21.4356 35.6329 20.9702 36.0985C20.5048 36.5641 20.1702 37.1441 20 37.78" stroke="#101213" stroke-width="1.5"/>
<path d="M25 23.75H35M25 28.125H31.25" stroke="#101213" stroke-width="1.5" stroke-linecap="round"/>
</svg>
