<svg width="60" height="60" viewBox="0 0 60 60" fill="none" xmlns="http://www.w3.org/2000/svg">
<rect width="60" height="60" rx="10" fill="#F7F7F6"/>
<path d="M30 27.5C32.7614 27.5 35 25.2614 35 22.5C35 19.7386 32.7614 17.5 30 17.5C27.2386 17.5 25 19.7386 25 22.5C25 25.2614 27.2386 27.5 30 27.5Z" stroke="#101213" stroke-width="1.5"/>
<path d="M37.5 26.25C39.5712 26.25 41.25 24.85 41.25 23.125C41.25 21.4 39.5712 20 37.5 20M22.5 26.25C20.4288 26.25 18.75 24.85 18.75 23.125C18.75 21.4 20.4288 20 22.5 20" stroke="#101213" stroke-width="1.5" stroke-linecap="round"/>
<path d="M30 41.25C34.1421 41.25 37.5 39.0114 37.5 36.25C37.5 33.4886 34.1421 31.25 30 31.25C25.8579 31.25 22.5 33.4886 22.5 36.25C22.5 39.0114 25.8579 41.25 30 41.25Z" stroke="#101213" stroke-width="1.5"/>
<path d="M40 38.75C42.1925 38.2688 43.75 37.0513 43.75 35.625C43.75 34.1987 42.1925 32.9812 40 32.5M20 38.75C17.8075 38.2688 16.25 37.0513 16.25 35.625C16.25 34.1987 17.8075 32.9812 20 32.5" stroke="#101213" stroke-width="1.5" stroke-linecap="round"/>
</svg>
