<svg width="60" height="60" viewBox="0 0 60 60" fill="none" xmlns="http://www.w3.org/2000/svg">
<rect width="60" height="60" rx="10" fill="#F7F7F6"/>
<path d="M17.5 30C17.5 35.8925 17.5 38.8375 19.3312 40.6687C21.1612 42.4987 24.1075 42.4988 30 42.4988C35.8925 42.4988 38.8387 42.4987 40.67 40.6687C42.3662 38.9725 42.49 36.3187 42.5 31.2487M28.75 17.5C23.6813 17.5088 21.0275 17.6337 19.3312 19.33C18.31 20.35 17.8588 21.7175 17.6588 23.75" stroke="#101213" stroke-width="1.5" stroke-linecap="round"/>
<path d="M31.25 28.75L42.5 17.5M42.5 17.5H35.82M42.5 17.5V24.18M41.25 18.75L30 30M30 30H35M30 30V25" stroke="#101213" stroke-width="1.5" stroke-linecap="round" stroke-linejoin="round"/>
</svg>
