<svg width="20" height="21" viewBox="0 0 20 21" fill="none" xmlns="http://www.w3.org/2000/svg">
<g clip-path="url(#clip0_2028_566)">
<path fill-rule="evenodd" clip-rule="evenodd" d="M4.55094 19.6812V6.80758H0.272461V19.6812H4.55094V19.6812ZM2.41215 5.05055C3.90367 5.05055 4.83277 4.06117 4.83277 2.82582C4.80457 1.56301 3.90367 0.601562 2.44012 0.601562C0.976328 0.601602 0.0195312 1.56305 0.0195312 2.82586C0.0195312 4.06121 0.948125 5.05059 2.38398 5.05059L2.41215 5.05055ZM6.91891 19.6812C6.91891 19.6812 6.97504 8.01547 6.91891 6.80762H11.198V8.67457H11.1696C11.7323 7.79605 12.746 6.50531 15.054 6.50531C17.8698 6.50531 19.9804 8.34527 19.9804 12.2996V19.6812H15.702V12.7942C15.702 11.0637 15.0829 9.88285 13.5341 9.88285C12.3523 9.88285 11.648 10.6789 11.3387 11.4485C11.2256 11.7224 11.198 12.1071 11.198 12.4919V19.6812H6.91891Z" fill="white"/>
</g>
<defs>
<clipPath id="clip0_2028_566">
<rect width="20" height="20" fill="white" transform="translate(0 0.141602)"/>
</clipPath>
</defs>
</svg>
