<svg width="21" height="20" viewBox="0 0 21 20" fill="none" xmlns="http://www.w3.org/2000/svg">
<path d="M2.16699 15.8337C2.16699 17.2503 3.25033 18.3337 4.66699 18.3337H16.3337C17.7503 18.3337 18.8337 17.2503 18.8337 15.8337V9.16699H2.16699V15.8337ZM16.3337 3.33366H14.667V2.50033C14.667 2.00033 14.3337 1.66699 13.8337 1.66699C13.3337 1.66699 13.0003 2.00033 13.0003 2.50033V3.33366H8.00033V2.50033C8.00033 2.00033 7.66699 1.66699 7.16699 1.66699C6.66699 1.66699 6.33366 2.00033 6.33366 2.50033V3.33366H4.66699C3.25033 3.33366 2.16699 4.41699 2.16699 5.83366V7.50033H18.8337V5.83366C18.8337 4.41699 17.7503 3.33366 16.3337 3.33366Z" fill="white"/>
</svg>
