<svg width="24" height="25" viewBox="0 0 24 25" fill="none" xmlns="http://www.w3.org/2000/svg">
<path fill-rule="evenodd" clip-rule="evenodd" d="M12 4.29199C10.809 4.29199 9.42 4.31999 8.066 4.35799L8.011 4.35999C6.633 4.39899 5.521 4.42999 4.645 4.57499C3.732 4.72599 2.974 5.01499 2.368 5.63799C1.76 6.26299 1.495 7.03599 1.37 7.96099C1.25 8.85099 1.25 9.97899 1.25 11.381V12.905C1.25 14.305 1.25 15.433 1.37 16.324C1.494 17.249 1.76 18.022 2.368 18.647C2.974 19.271 3.732 19.559 4.645 19.71C5.521 19.855 6.633 19.886 8.011 19.925L8.066 19.927C9.421 19.965 10.809 19.993 12 19.993C13.191 19.993 14.58 19.965 15.934 19.927L15.989 19.925C17.367 19.886 18.479 19.855 19.355 19.71C20.268 19.559 21.026 19.27 21.632 18.647C22.24 18.022 22.506 17.249 22.63 16.324C22.75 15.434 22.75 14.306 22.75 12.904V11.38C22.75 9.97899 22.75 8.85099 22.63 7.96099C22.506 7.03599 22.24 6.26299 21.632 5.63799C21.026 5.01399 20.268 4.72599 19.355 4.57499C18.479 4.42999 17.367 4.39899 15.988 4.35999L15.934 4.35799C14.623 4.3182 13.3116 4.2962 12 4.29199ZM10.872 14.793C10.758 14.8581 10.6288 14.8922 10.4975 14.8917C10.3661 14.8913 10.2372 14.8564 10.1236 14.7905C10.01 14.7245 9.91571 14.63 9.85014 14.5162C9.78457 14.4024 9.75004 14.2733 9.75 14.142V10.142C9.75004 10.0107 9.78457 9.88163 9.85014 9.76783C9.91571 9.65402 10.01 9.55943 10.1236 9.49352C10.2372 9.42761 10.3661 9.39268 10.4975 9.39224C10.6288 9.39179 10.758 9.42585 10.872 9.49099L14.372 11.491C14.4867 11.5566 14.582 11.6514 14.6484 11.7657C14.7147 11.88 14.7496 12.0098 14.7496 12.142C14.7496 12.2741 14.7147 12.404 14.6484 12.5183C14.582 12.6326 14.4867 12.7274 14.372 12.793L10.872 14.793Z" fill="white"/>
</svg>
