<svg width="108" height="37" viewBox="0 0 108 37" fill="none" xmlns="http://www.w3.org/2000/svg">
<g clip-path="url(#clip0_4374_1971)">
<path d="M45.9223 18.7182C45.9223 23.7846 41.9589 27.5179 37.0949 27.5179C32.2308 27.5179 28.2674 23.7846 28.2674 18.7182C28.2674 13.6161 32.2308 9.91853 37.0949 9.91853C41.9589 9.91853 45.9223 13.6161 45.9223 18.7182ZM42.0581 18.7182C42.0581 15.5522 39.7609 13.386 37.0949 13.386C34.4288 13.386 32.1316 15.5522 32.1316 18.7182C32.1316 21.8524 34.4288 24.0504 37.0949 24.0504C39.7609 24.0504 42.0581 21.8485 42.0581 18.7182ZM64.9658 18.7182C64.9658 23.7846 61.0023 27.5179 56.1383 27.5179C51.2743 27.5179 47.3109 23.7846 47.3109 18.7182C47.3109 13.6201 51.2743 9.91853 56.1383 9.91853C61.0023 9.91853 64.9658 13.6161 64.9658 18.7182ZM61.1015 18.7182C61.1015 15.5522 58.8044 13.386 56.1383 13.386C53.4722 13.386 51.1751 15.5522 51.1751 18.7182C51.1751 21.8524 53.4722 24.0504 56.1383 24.0504C58.8044 24.0504 61.1015 21.8485 61.1015 18.7182ZM83.2158 10.4502V26.2483C83.2158 32.7469 79.3833 35.4011 74.8525 35.4011C70.5876 35.4011 68.0207 32.5485 67.0526 30.2157L70.417 28.8152C71.016 30.2474 72.484 31.9375 74.8485 31.9375C77.7487 31.9375 79.5459 30.1483 79.5459 26.7799V25.5143H79.411C78.5462 26.5816 76.8798 27.5139 74.7771 27.5139C70.3773 27.5139 66.3464 23.6814 66.3464 18.7499C66.3464 13.7828 70.3773 9.91853 74.7771 9.91853C76.8759 9.91853 78.5422 10.8509 79.411 11.8864H79.5459V10.4541H83.2158V10.4502ZM79.8197 18.7499C79.8197 15.6514 77.7527 13.386 75.1223 13.386C72.4562 13.386 70.2226 15.6514 70.2226 18.7499C70.2226 21.8167 72.4562 24.0504 75.1223 24.0504C77.7527 24.0504 79.8197 21.8167 79.8197 18.7499ZM89.266 1.19027V26.9783H85.497V1.19027H89.266ZM103.953 21.6144L106.953 23.614C105.985 25.0462 103.652 27.5139 99.6209 27.5139C94.622 27.5139 90.8887 23.6497 90.8887 18.7142C90.8887 13.4812 94.6538 9.91457 99.1885 9.91457C103.755 9.91457 105.989 13.5487 106.719 15.5126L107.119 16.5123L95.356 21.3843C96.2566 23.1498 97.6571 24.0504 99.6209 24.0504C101.589 24.0504 102.954 23.0823 103.953 21.6144ZM94.7212 18.4484L102.585 15.1833C102.152 14.0843 100.851 13.3186 99.3194 13.3186C97.3556 13.3186 94.622 15.0523 94.7212 18.4484ZM14.0007 16.429V12.6957H26.5813C26.7043 13.3464 26.7677 14.116 26.7677 14.9492C26.7677 17.7502 26.002 21.2137 23.5343 23.6814C21.134 26.1809 18.0672 27.5139 14.0046 27.5139C6.47453 27.5139 0.142578 21.3803 0.142578 13.8502C0.142578 6.32011 6.47453 0.186523 14.0046 0.186523C18.1704 0.186523 21.138 1.82109 23.3677 3.95158L20.7333 6.58593C19.1345 5.08625 16.9683 3.91984 14.0007 3.91984C8.50187 3.91984 4.20122 8.35141 4.20122 13.8502C4.20122 19.349 8.50187 23.7806 14.0007 23.7806C17.5674 23.7806 19.5987 22.3484 20.9 21.0471C21.9553 19.9917 22.6496 18.4841 22.9233 16.4251L14.0007 16.429Z" fill="#101213"/>
</g>
<defs>
<clipPath id="clip0_4374_1971">
<rect width="107.913" height="36.5" fill="white"/>
</clipPath>
</defs>
</svg>
