<svg width="170" height="57" viewBox="0 0 170 57" fill="none" xmlns="http://www.w3.org/2000/svg">
<g clip-path="url(#clip0_4045_728)">
<path d="M72.4686 29.231C72.4686 37.1428 66.2792 42.9729 58.6833 42.9729C51.0874 42.9729 44.898 37.1428 44.898 29.231C44.898 21.2634 51.0874 15.4891 58.6833 15.4891C66.2792 15.4891 72.4686 21.2634 72.4686 29.231ZM66.4341 29.231C66.4341 24.2869 62.8468 20.9041 58.6833 20.9041C54.5198 20.9041 50.9325 24.2869 50.9325 29.231C50.9325 34.1256 54.5198 37.5579 58.6833 37.5579C62.8468 37.5579 66.4341 34.1194 66.4341 29.231ZM102.208 29.231C102.208 37.1428 96.0183 42.9729 88.4224 42.9729C80.8265 42.9729 74.6371 37.1428 74.6371 29.231C74.6371 21.2696 80.8265 15.4891 88.4224 15.4891C96.0183 15.4891 102.208 21.2634 102.208 29.231ZM96.1731 29.231C96.1731 24.2869 92.5859 20.9041 88.4224 20.9041C84.2589 20.9041 80.6716 24.2869 80.6716 29.231C80.6716 34.1256 84.2589 37.5579 88.4224 37.5579C92.5859 37.5579 96.1731 34.1194 96.1731 29.231ZM130.708 16.3193V40.9903C130.708 51.1388 124.723 55.2837 117.647 55.2837C110.987 55.2837 106.978 50.829 105.467 47.186L110.721 44.9989C111.656 47.2355 113.948 49.8749 117.641 49.8749C122.17 49.8749 124.977 47.0807 124.977 41.8206V39.8441H124.766C123.415 41.5108 120.813 42.9668 117.53 42.9668C110.659 42.9668 104.364 36.9818 104.364 29.2806C104.364 21.5236 110.659 15.4891 117.53 15.4891C120.807 15.4891 123.409 16.945 124.766 18.5621H124.977V16.3255H130.708V16.3193ZM125.404 29.2806C125.404 24.4418 122.176 20.9041 118.069 20.9041C113.905 20.9041 110.417 24.4418 110.417 29.2806C110.417 34.0698 113.905 37.5579 118.069 37.5579C122.176 37.5579 125.404 34.0698 125.404 29.2806ZM140.156 1.85864V42.1303H134.27V1.85864H140.156ZM163.092 33.7538L167.776 36.8764C166.264 39.1131 162.621 42.9668 156.327 42.9668C148.52 42.9668 142.69 36.9322 142.69 29.2248C142.69 21.0527 148.57 15.4829 155.651 15.4829C162.783 15.4829 166.271 21.1581 167.411 24.2249L168.036 25.7862L149.666 33.3945C151.073 36.1515 153.26 37.5579 156.327 37.5579C159.4 37.5579 161.531 36.0462 163.092 33.7538ZM148.675 28.8097L160.955 23.7107C160.28 21.9945 158.247 20.7987 155.856 20.7987C152.789 20.7987 148.52 23.5062 148.675 28.8097ZM22.6184 25.6561V19.826H42.2648C42.4569 20.8421 42.556 22.0441 42.556 23.3451C42.556 27.7193 41.3603 33.1281 37.5066 36.9818C33.7582 40.885 28.969 42.9668 22.6246 42.9668C10.8653 42.9668 0.977051 33.3883 0.977051 21.6289C0.977051 9.86961 10.8653 0.291138 22.6246 0.291138C29.1301 0.291138 33.7644 2.84374 37.2464 6.17081L33.1325 10.2847C30.6356 7.94276 27.2528 6.12124 22.6184 6.12124C14.0313 6.12124 7.3152 13.0418 7.3152 21.6289C7.3152 30.2161 14.0313 37.1366 22.6184 37.1366C28.1883 37.1366 31.3605 34.9 33.3927 32.8678C35.0407 31.2198 36.125 28.8655 36.5524 25.6499L22.6184 25.6561Z" fill="white"/>
</g>
<defs>
<clipPath id="clip0_4045_728">
<rect width="168.522" height="56.9999" fill="white" transform="translate(0.753906)"/>
</clipPath>
</defs>
</svg>
