<svg width="334" height="57" viewBox="0 0 334 57" fill="none" xmlns="http://www.w3.org/2000/svg">
<g clip-path="url(#clip0_4025_697)">
<path d="M85.5953 15.6044C84.1234 15.6044 82.7394 16.1718 81.7035 17.2025L77.5174 21.357C76.3881 22.4778 75.8079 24.034 75.9267 25.6294C75.9352 25.7165 75.9437 25.8036 75.9523 25.8935C76.1022 27.1181 76.6429 28.2221 77.5174 29.0872C78.1203 29.6855 78.7854 30.0648 79.592 30.3288C79.6345 30.5704 79.6571 30.8147 79.6571 31.0591C79.6571 32.1603 79.227 33.1939 78.4457 33.9692L78.1881 34.2248C76.79 33.75 75.6238 33.0563 74.571 32.0114C73.1729 30.6237 72.2473 28.8709 71.8992 26.9469L71.851 26.6799L71.6387 26.8513C71.4945 26.9665 71.3585 27.0901 71.2312 27.2164L67.0451 31.3709C64.8997 33.5001 64.8997 36.9692 67.0451 39.0983C68.1178 40.1629 69.5273 40.6966 70.9397 40.6966C72.352 40.6966 73.7587 40.1629 74.8314 39.0983L79.0175 34.9439C81.163 32.8146 81.163 29.3485 79.0175 27.2164C78.4457 26.6491 77.7637 26.2221 76.991 25.9469C76.9486 25.6968 76.9258 25.4468 76.9258 25.2025C76.9258 24.0059 77.4014 22.871 78.2731 22.0059C79.6741 22.4806 80.9166 23.2503 81.9667 24.2924C83.362 25.6772 84.2848 27.4272 84.6385 29.3569L84.6866 29.6237L84.899 29.4524C85.0434 29.3373 85.1792 29.2136 85.3094 29.0844L89.4955 24.9301C91.6409 22.8008 91.6437 19.3318 89.4955 17.2025C88.4568 16.1718 87.0755 15.6044 85.6009 15.6044H85.5953Z" fill="white"/>
<path d="M83.352 0.410767H28.5789C12.9723 0.410767 0.275391 13.0117 0.275391 28.5002C0.275391 43.9887 12.9723 56.5897 28.5789 56.5897H83.352C98.9585 56.5897 111.656 43.9887 111.656 28.5002C111.656 13.0117 98.9585 0.410767 83.352 0.410767ZM56.3363 44.4494C55.4333 44.6348 54.4172 44.6684 53.7266 43.9522C53.4718 44.5336 52.8775 44.2275 52.419 44.1517C52.3765 44.2696 52.3398 44.3735 52.3001 44.4915C50.7745 44.5927 49.6311 43.0478 48.9038 41.882C47.4602 41.1067 45.8214 40.6348 44.3468 39.823C44.2619 41.1602 44.5563 42.8174 43.2741 43.6798C43.209 46.2499 47.1914 43.9831 47.5564 45.8988C47.2735 45.9297 46.9593 45.8538 46.7328 46.0701C45.6941 47.0729 44.5025 45.3118 43.3053 46.0393C41.6976 46.8426 41.5363 47.4998 39.5465 47.6656C39.4362 47.4998 39.4814 47.3903 39.5748 47.2892C40.1353 46.6431 40.1749 45.8819 41.1316 45.6066C40.1466 45.4521 39.3229 45.9915 38.4936 46.4184C37.4152 46.8567 37.4238 45.4296 35.7653 46.4942C35.5812 46.3454 35.669 46.2106 35.7737 46.0955C36.1954 45.5842 36.7502 45.5083 37.3757 45.5365C34.2991 43.8342 32.8499 47.6179 31.4291 45.7359C31.0017 45.8483 30.8404 46.2302 30.5715 46.4999C30.3394 46.2471 30.5149 45.9409 30.5263 45.6432C30.2489 45.514 29.8978 45.4521 29.9799 45.0112C29.4365 44.8285 29.0573 45.1488 28.6526 45.4521C28.2874 45.1713 28.8988 44.7612 29.012 44.469C29.3375 43.9072 30.079 44.3539 30.4554 43.9493C31.5253 43.3455 33.0169 44.3257 34.2397 44.1601C35.1822 44.278 36.3482 43.3173 35.8755 42.3594C34.868 41.0815 35.0462 39.4102 35.0236 37.8821C34.8991 36.9916 32.7452 35.8567 32.1226 34.8961C31.3527 34.031 30.7526 33.0282 30.1526 32.0423C27.9874 27.8822 28.6695 22.5368 25.941 18.6745C24.707 19.3515 23.0993 19.0313 22.0352 18.1239C21.4606 18.6436 21.435 19.3233 21.3898 20.0453C20.0114 18.6774 20.1841 16.093 21.2851 14.5706C21.7352 13.9695 22.2729 13.4752 22.873 13.0398C23.0087 12.9415 23.0541 12.846 23.0512 12.6943C24.1409 7.82919 31.5735 8.76737 33.9226 12.2139C35.6266 14.3348 36.1417 17.1408 38.0747 19.11C40.6758 21.9357 43.6393 24.4244 46.0393 27.4328C48.3093 30.1827 49.9311 33.4074 51.3463 36.6574C51.9237 37.7359 51.9294 39.059 52.7842 39.9803C53.2058 40.5366 55.2663 42.0505 54.8192 42.587C55.0767 43.1431 57.0013 43.91 56.3334 44.4494H56.3363ZM92.4345 27.8541L88.2485 32.0085C87.1332 33.1153 85.755 33.9411 84.2605 34.3933L84.184 34.4158L84.1557 34.4888C83.6689 35.7641 82.9302 36.9017 81.9565 37.8653L77.7704 42.0196C75.9448 43.8315 73.5165 44.8285 70.9295 44.8285C68.3426 44.8285 65.9141 43.8315 64.0885 42.0196C60.3157 38.2753 60.3157 32.1855 64.0885 28.4412L68.2746 24.2868C69.3954 23.1745 70.7371 22.3739 72.257 21.9104L72.3334 21.8879L72.3617 21.8149C72.8485 20.5396 73.59 19.3992 74.5666 18.4273L78.7525 14.2729C80.5781 12.4611 83.0066 11.464 85.5935 11.464C88.1805 11.464 90.6089 12.4611 92.4345 14.2729C94.2602 16.0846 95.2649 18.4948 95.2649 21.0622C95.2649 23.6295 94.2602 26.0423 92.4345 27.8514V27.8541Z" fill="white"/>
<path d="M39.3088 39.4212C38.9408 40.8426 38.8219 43.261 36.9596 43.3313C36.8068 44.1516 37.5313 44.4605 38.1936 44.1964C38.8474 43.8987 39.1587 44.4324 39.3795 44.9633C40.3899 45.1093 41.8844 44.629 41.941 43.4409C40.4324 42.5785 39.9654 40.9381 39.3115 39.4185L39.3088 39.4212Z" fill="white"/>
<path d="M137.878 15.1342H132.906V45.1489H154.232V40.3677H137.878V15.1342Z" fill="white"/>
<path d="M179.228 45.1487H184.2V45.0953H184.265L184.275 44.875C184.276 44.8106 184.294 44.2099 184.203 43.2843V32.1136C184.203 27.911 187.282 25.9977 190.143 25.9977C193.221 25.9977 194.719 27.6485 194.719 31.0458V45.1487H199.691V30.3872C199.691 24.7807 196.111 21.2968 190.351 21.2968C187.903 21.2968 185.719 21.9887 184.003 23.3035L183.957 21.7083H179.234V45.1487H179.228Z" fill="white"/>
<path d="M219.927 23.4303C218.199 22.0331 215.977 21.2968 213.471 21.2968C206.766 21.2968 202.601 25.8976 202.601 33.304C202.601 40.7103 206.766 45.3534 213.471 45.3534C215.836 45.3534 217.947 44.7127 219.61 43.4934C219.467 47.1266 217.18 49.2846 213.431 49.2846C210.278 49.2846 208.494 48.2857 208.128 46.3167L208.082 46.072L203.252 47.5382L203.295 47.7361C204.11 51.6495 207.79 53.9855 213.142 53.9855C216.773 53.9855 219.621 53.0023 221.609 51.06C223.614 49.1021 224.629 46.2811 224.629 42.677V21.7083H220.03L219.93 23.4303H219.927ZM219.617 33.5109C219.617 37.9827 217.428 40.6547 213.759 40.6547C209.827 40.6547 207.573 37.9759 207.573 33.3062C207.573 28.6363 209.829 25.9977 213.759 25.9977C217.339 25.9977 219.581 28.6563 219.617 32.9346V33.5109Z" fill="white"/>
<path d="M249.128 35.631C248.098 38.9481 245.451 40.777 241.679 40.777C236.285 40.777 232.931 36.7011 232.931 30.1403C232.931 23.5794 236.314 19.5035 241.762 19.5035C245.532 19.5035 247.704 20.9742 248.809 24.2691L249.325 25.8108L254.02 23.6172L253.579 22.3824C251.791 17.37 247.662 14.7224 241.638 14.7224C237.545 14.7224 234.071 16.1931 231.59 18.9741C229.135 21.7283 227.835 25.5883 227.835 30.1425C227.835 39.5088 233.268 45.5625 241.679 45.5625C247.605 45.5625 252.196 42.4767 253.958 37.3064L254.407 35.9848L249.585 34.1604L249.125 35.6332L249.128 35.631Z" fill="white"/>
<path d="M267.697 21.297C265.323 21.297 263.21 21.9444 261.552 23.1748V12.2577H256.579V45.1511H261.552V32.1162C261.552 27.8869 264.629 25.9602 267.492 25.9602C270.57 25.9602 272.068 27.611 272.068 31.0081V45.1535H277.04V30.3496C277.04 24.8522 273.374 21.3015 267.7 21.3015L267.697 21.297Z" fill="white"/>
<path d="M306.103 11.5502C304.256 11.5502 302.915 12.8851 302.915 14.7227C302.915 16.5604 304.256 17.8953 306.103 17.8953C307.949 17.8953 309.291 16.5604 309.291 14.7227C309.291 12.8851 307.949 11.5502 306.103 11.5502Z" fill="white"/>
<path d="M323.81 21.2968C321.362 21.2968 319.179 21.9887 317.463 23.3035L317.416 21.7083H312.694V45.1487H317.667V32.1136C317.667 27.911 320.744 25.9977 323.607 25.9977C326.685 25.9977 328.183 27.6485 328.183 31.0458V45.1487H333.155V30.3872C333.155 24.7807 329.576 21.2968 323.815 21.2968H323.81Z" fill="white"/>
<path d="M308.518 21.7083H303.57V33.3285C302.197 32.1805 300.58 31.3128 298.754 30.7456V29.5641C298.754 24.3871 295.34 21.2968 289.618 21.2968C284.97 21.2968 281.495 23.4683 280.078 27.2526L279.697 28.2737L283.683 31.1972L284.367 29.424C285.269 27.0857 286.939 25.9956 289.618 25.9956C292.299 25.9956 293.782 27.2792 293.782 29.8088V29.9402C293.623 29.9334 293.462 29.929 293.301 29.9268C287.977 29.8422 284.094 31.0815 281.758 33.6043C279.368 36.1851 279.578 39.084 279.61 39.4043L279.632 39.6268H279.654C280.026 43.2376 283.195 45.5559 287.801 45.5559C290.338 45.5559 292.682 44.8529 294.455 43.5692L294.474 45.1465H298.754V37.8136L298.661 37.7469C298.057 37.3064 297.001 36.7369 295.413 36.5366C294.915 36.4744 294.439 36.4432 294.001 36.4521H293.779V37.1262C293.779 38.6769 291.989 40.8594 288.005 40.8594C285.065 40.8594 284.626 39.629 284.626 38.8949V38.8192C284.649 38.4901 284.787 37.6845 285.518 36.9348C286.446 35.9804 288.535 34.8636 293.219 34.9348C296.61 34.9881 299.212 35.9315 300.954 37.7402C303.092 39.9606 303.494 42.9997 303.567 44.1899V45.1487H308.515V21.7083H308.518Z" fill="white"/>
<path d="M166.372 21.1945C161.724 21.1945 158.248 23.3658 156.832 27.1502L156.45 28.1714L160.437 31.0947L161.12 29.3216C162.022 26.9833 163.692 25.8932 166.372 25.8932C169.053 25.8932 170.535 27.1769 170.535 29.7065V30.3006L165.415 31.1994C159.412 32.2561 156.367 34.8102 156.367 38.788C156.367 42.766 159.579 45.4536 164.552 45.4536C167.09 45.4536 169.433 44.7505 171.205 43.4667L171.226 45.0442H175.505V29.4618C175.505 24.2847 172.092 21.1945 166.372 21.1945ZM170.535 34.937V37.026C170.535 38.5767 168.743 40.7593 164.76 40.7593C161.819 40.7593 161.383 39.5289 161.383 38.7948C161.383 38.1429 161.383 36.6166 166.591 35.6556L170.535 34.9392V34.937Z" fill="white"/>
</g>
<defs>
<clipPath id="clip0_4025_697">
<rect width="332.88" height="56.5896" fill="white" transform="translate(0.275391 0.2052)"/>
</clipPath>
</defs>
</svg>
