<svg width="214" height="37" viewBox="0 0 214 37" fill="none" xmlns="http://www.w3.org/2000/svg">
<g clip-path="url(#clip0_4374_1973)">
<path d="M54.6355 9.86133C53.693 9.86133 52.8068 10.2247 52.1434 10.8847L49.4629 13.5451C48.7397 14.2627 48.3682 15.2593 48.4443 16.2809C48.4497 16.3367 48.4551 16.3924 48.4606 16.45C48.5567 17.2342 48.9029 17.9411 49.4629 18.4951C49.8489 18.8782 50.2748 19.1211 50.7914 19.2902C50.8186 19.4448 50.833 19.6013 50.833 19.7578C50.833 20.4629 50.5576 21.1248 50.0573 21.6213L49.8924 21.785C48.9971 21.4809 48.2503 21.0367 47.5761 20.3676C46.6809 19.479 46.0882 18.3566 45.8652 17.1245L45.8344 16.9536L45.6984 17.0633C45.6061 17.1371 45.519 17.2162 45.4375 17.2971L42.7569 19.9575C41.3831 21.3209 41.3831 23.5423 42.7569 24.9057C43.4438 25.5874 44.3464 25.9292 45.2508 25.9292C46.1552 25.9292 47.056 25.5874 47.7429 24.9057L50.4235 22.2454C51.7973 20.882 51.7973 18.6624 50.4235 17.2971C50.0573 16.9339 49.6206 16.6604 49.1258 16.4842C49.0986 16.324 49.0841 16.164 49.0841 16.0075C49.0841 15.2412 49.3886 14.5145 49.9468 13.9606C50.844 14.2645 51.6396 14.7574 52.312 15.4247C53.2055 16.3115 53.7964 17.4321 54.0229 18.6678L54.0537 18.8386L54.1897 18.7289C54.2821 18.6552 54.3691 18.576 54.4525 18.4933L57.1331 15.833C58.5069 14.4696 58.5087 12.2482 57.1331 10.8847C56.4679 10.2247 55.5834 9.86133 54.6392 9.86133H54.6355Z" fill="#101213"/>
<path d="M53.1982 0.131836H18.1242C8.13052 0.131836 0 8.20085 0 18.119C0 28.037 8.13052 36.1061 18.1242 36.1061H53.1982C63.1919 36.1061 71.3224 28.037 71.3224 18.119C71.3224 8.20085 63.1919 0.131836 53.1982 0.131836ZM35.8987 28.332C35.3205 28.4507 34.6698 28.4723 34.2276 28.0137C34.0644 28.3859 33.6838 28.1899 33.3902 28.1414C33.363 28.2169 33.3395 28.2834 33.3141 28.359C32.3372 28.4238 31.605 27.4345 31.1392 26.688C30.2148 26.1916 29.1655 25.8894 28.2212 25.3695C28.1668 26.2258 28.3554 27.287 27.5343 27.8392C27.4926 29.485 30.0427 28.0335 30.2765 29.2601C30.0953 29.2799 29.8941 29.2313 29.7491 29.3698C29.0839 30.012 28.3209 28.8843 27.5542 29.3501C26.5248 29.8645 26.4215 30.2854 25.1473 30.3915C25.0767 30.2854 25.1057 30.2152 25.1654 30.1505C25.5243 29.7368 25.5497 29.2494 26.1623 29.073C25.5316 28.9741 25.0041 29.3195 24.4731 29.5929C23.7825 29.8735 23.7881 28.9597 22.726 29.6414C22.6081 29.5462 22.6643 29.4598 22.7314 29.3861C23.0014 29.0587 23.3567 29.0101 23.7572 29.0281C21.7871 27.9381 20.8591 30.361 19.9493 29.1559C19.6757 29.2278 19.5724 29.4724 19.4002 29.6451C19.2516 29.4832 19.3639 29.2871 19.3712 29.0965C19.1936 29.0137 18.9688 28.9741 19.0214 28.6918C18.6734 28.5748 18.4305 28.7799 18.1714 28.9741C17.9375 28.7943 18.329 28.5317 18.4015 28.3446C18.61 27.9849 19.0848 28.2709 19.3258 28.0118C20.0109 27.6251 20.9661 28.2528 21.7491 28.1468C22.3526 28.2223 23.0993 27.6071 22.7966 26.9937C22.1514 26.1754 22.2656 25.1052 22.2511 24.1267C22.1713 23.5564 20.7921 22.8297 20.3934 22.2146C19.9004 21.6606 19.5161 21.0185 19.1319 20.3872C17.7454 17.7232 18.1822 14.3003 16.435 11.827C15.6448 12.2606 14.6153 12.0555 13.9339 11.4745C13.566 11.8072 13.5496 12.2425 13.5207 12.7049C12.638 11.8289 12.7486 10.174 13.4536 9.19913C13.7418 8.81421 14.0862 8.49764 14.4704 8.21883C14.5573 8.15589 14.5864 8.09472 14.5845 7.99759C15.2823 4.88223 20.0418 5.483 21.5461 7.69002C22.6372 9.04808 22.967 10.8449 24.2049 12.1059C25.8705 13.9154 27.7681 15.509 29.305 17.4354C30.7586 19.1964 31.7971 21.2613 32.7033 23.3424C33.073 24.0331 33.0767 24.8803 33.6241 25.4703C33.8941 25.8265 35.2135 26.7959 34.9272 27.1395C35.0921 27.4956 36.3245 27.9866 35.8968 28.332H35.8987ZM59.0142 17.7052L56.3337 20.3655C55.6195 21.0742 54.737 21.603 53.78 21.8926L53.731 21.907L53.7129 21.9538C53.4012 22.7704 52.9281 23.4989 52.3046 24.1159L49.6241 26.7761C48.455 27.9363 46.9 28.5748 45.2434 28.5748C43.5869 28.5748 42.0318 27.9363 40.8628 26.7761C38.4469 24.3785 38.4469 20.4788 40.8628 18.0811L43.5434 15.4209C44.2611 14.7086 45.1202 14.196 46.0935 13.8992L46.1424 13.8848L46.1606 13.838C46.4723 13.0214 46.9471 12.2911 47.5725 11.6687L50.253 9.00849C51.422 7.8483 52.9771 7.20976 54.6336 7.20976C56.2902 7.20976 57.8452 7.8483 59.0142 9.00849C60.1833 10.1686 60.8267 11.712 60.8267 13.356C60.8267 15 60.1833 16.545 59.0142 17.7035V17.7052Z" fill="#101213"/>
<path d="M24.995 25.1121C24.7594 26.0223 24.6833 27.5709 23.4908 27.6159C23.3929 28.1412 23.8569 28.339 24.281 28.1699C24.6996 27.9793 24.8989 28.3211 25.0403 28.661C25.6874 28.7545 26.6444 28.4469 26.6806 27.6861C25.7145 27.1339 25.4155 26.0835 24.9968 25.1104L24.995 25.1121Z" fill="#101213"/>
<path d="M88.1137 9.56055H84.9297V28.7805H98.5861V25.7189H88.1137V9.56055Z" fill="#101213"/>
<path d="M114.593 28.7805H117.777V28.7463H117.819L117.825 28.6052C117.826 28.5639 117.837 28.1793 117.779 27.5866V20.4334C117.779 17.7423 119.75 16.5171 121.583 16.5171C123.554 16.5171 124.513 17.5742 124.513 19.7496V28.7805H127.697V19.3279C127.697 15.7378 125.404 13.5068 121.716 13.5068C120.148 13.5068 118.749 13.9499 117.651 14.7918L117.621 13.7704H114.597V28.7805H114.593Z" fill="#101213"/>
<path d="M140.656 14.8731C139.549 13.9784 138.126 13.5068 136.521 13.5068C132.228 13.5068 129.561 16.453 129.561 21.1957C129.561 25.9383 132.228 28.9115 136.521 28.9115C138.035 28.9115 139.387 28.5013 140.452 27.7205C140.361 30.047 138.896 31.4289 136.495 31.4289C134.477 31.4289 133.334 30.7893 133.1 29.5284L133.071 29.3717L129.977 30.3106L130.005 30.4373C130.527 32.9433 132.883 34.4391 136.311 34.4391C138.636 34.4391 140.459 33.8095 141.732 32.5658C143.016 31.312 143.666 29.5056 143.666 27.1977V13.7704H140.721L140.657 14.8731H140.656ZM140.457 21.3282C140.457 24.1917 139.055 25.9027 136.706 25.9027C134.188 25.9027 132.745 24.1874 132.745 21.1971C132.745 18.2067 134.189 16.5171 136.706 16.5171C138.998 16.5171 140.433 18.2195 140.457 20.9592V21.3282Z" fill="#101213"/>
<path d="M159.354 22.6857C158.694 24.8099 156.999 25.9809 154.584 25.9809C151.129 25.9809 148.982 23.371 148.982 19.1698C148.982 14.9684 151.148 12.3585 154.637 12.3585C157.051 12.3585 158.442 13.3002 159.15 15.4101L159.48 16.3973L162.486 14.9927L162.204 14.202C161.059 10.9922 158.415 9.29688 154.558 9.29688C151.937 9.29688 149.712 10.2386 148.123 12.0194C146.551 13.7831 145.719 16.2549 145.719 19.1712C145.719 25.1689 149.198 29.0454 154.584 29.0454C158.379 29.0454 161.319 27.0694 162.446 23.7585L162.734 22.9123L159.646 21.744L159.352 22.6872L159.354 22.6857Z" fill="#101213"/>
<path d="M171.245 13.5071C169.724 13.5071 168.371 13.9217 167.309 14.7095V7.71875H164.125V28.7821H167.309V20.4352C167.309 17.7269 169.28 16.4932 171.113 16.4932C173.084 16.4932 174.043 17.5502 174.043 19.7256V28.7836H177.227V19.304C177.227 15.7836 174.88 13.51 171.246 13.51L171.245 13.5071Z" fill="#101213"/>
<path d="M195.837 7.26465C194.654 7.26465 193.795 8.11944 193.795 9.2962C193.795 10.4729 194.654 11.3278 195.837 11.3278C197.019 11.3278 197.878 10.4729 197.878 9.2962C197.878 8.11944 197.019 7.26465 195.837 7.26465Z" fill="#101213"/>
<path d="M207.176 13.5068C205.609 13.5068 204.211 13.9499 203.112 14.7918L203.082 13.7704H200.059V28.7805H203.243V20.4334C203.243 17.7423 205.214 16.5171 207.047 16.5171C209.018 16.5171 209.977 17.5742 209.977 19.7496V28.7805H213.161V19.3279C213.161 15.7378 210.868 13.5068 207.18 13.5068H207.176Z" fill="#101213"/>
<path d="M197.384 13.7704H194.216V21.2114C193.337 20.4762 192.301 19.9206 191.132 19.5574V18.8008C191.132 15.4857 188.946 13.5068 185.282 13.5068C182.306 13.5068 180.08 14.8974 179.173 17.3207L178.929 17.9745L181.482 19.8466L181.919 18.7111C182.497 17.2138 183.566 16.5158 185.282 16.5158C186.999 16.5158 187.948 17.3377 187.948 18.9575V19.0417C187.846 19.0373 187.743 19.0345 187.64 19.0331C184.231 18.9789 181.745 19.7725 180.249 21.388C178.719 23.0406 178.853 24.8969 178.873 25.102L178.887 25.2445H178.902C179.14 27.5567 181.169 29.0412 184.119 29.0412C185.743 29.0412 187.244 28.5911 188.379 27.769L188.392 28.7791H191.132V24.0834L191.073 24.0407C190.686 23.7586 190.01 23.3939 188.993 23.2657C188.674 23.2258 188.369 23.2059 188.089 23.2116H187.947V23.6433C187.947 24.6363 186.8 26.0338 184.249 26.0338C182.366 26.0338 182.086 25.2459 182.086 24.7758V24.7274C182.1 24.5166 182.189 24.0008 182.657 23.5207C183.251 22.9095 184.588 22.1944 187.588 22.24C189.759 22.2741 191.426 22.8782 192.541 24.0364C193.91 25.4582 194.167 27.4043 194.214 28.1665V28.7805H197.382V13.7704H197.384Z" fill="#101213"/>
<path d="M106.36 13.4414C103.384 13.4414 101.158 14.8319 100.252 17.2552L100.007 17.9091L102.56 19.7811L102.998 18.6456C103.575 17.1483 104.645 16.4502 106.36 16.4502C108.077 16.4502 109.027 17.2723 109.027 18.8921V19.2725L105.748 19.8481C101.904 20.5247 99.9541 22.1603 99.9541 24.7075C99.9541 27.2548 102.011 28.9758 105.195 28.9758C106.821 28.9758 108.321 28.5256 109.456 27.7035L109.469 28.7136H112.209V18.7354C112.209 15.4202 110.023 13.4414 106.36 13.4414ZM109.027 22.2415V23.5792C109.027 24.5722 107.879 25.9698 105.328 25.9698C103.445 25.9698 103.166 25.1819 103.166 24.7118C103.166 24.2944 103.166 23.317 106.501 22.7016L109.027 22.2429V22.2415Z" fill="#101213"/>
</g>
<defs>
<clipPath id="clip0_4374_1973">
<rect width="213.16" height="36.2372" fill="white"/>
</clipPath>
</defs>
</svg>
