<svg width="312" height="57" viewBox="0 0 312 57" fill="none" xmlns="http://www.w3.org/2000/svg">
<g clip-path="url(#clip0_4015_766)">
<path d="M307.72 45.7055V44.861H308.251C308.516 44.861 308.941 44.9138 308.941 45.2305C308.941 45.5471 308.728 45.7055 308.357 45.7055H307.72ZM307.72 46.286H308.092L308.941 47.7638H309.843L308.888 46.2333C309.365 46.286 309.737 45.9166 309.79 45.4416V45.336C309.79 44.4916 309.206 44.2805 308.251 44.2805H306.871V47.8166H307.667V46.286M311.754 46.0221C311.754 43.911 310.108 42.6971 308.304 42.6971C306.499 42.6971 304.854 43.911 304.854 46.0221C304.854 48.1333 306.499 49.3471 308.304 49.3471C310.108 49.3471 311.754 48.1333 311.754 46.0221ZM310.745 46.0221C310.798 47.3416 309.737 48.5027 308.41 48.5555H308.304C306.924 48.6083 305.703 47.4999 305.65 46.1277C305.597 44.7555 306.712 43.5416 308.092 43.4888C309.471 43.436 310.692 44.5444 310.745 45.9166C310.745 45.9694 310.745 45.9694 310.745 46.0221Z" fill="white"/>
<path d="M185.278 10.7665V48.186H195.892V10.7665H185.278ZM101.686 10.7137V48.186H112.407V19.1054L120.739 19.1582C123.499 19.1582 125.41 19.8443 126.684 21.2165C128.382 23.011 129.019 25.861 129.019 31.1387V48.2387H139.421V27.4971C139.421 12.7193 129.974 10.7137 120.686 10.7137C120.792 10.7137 101.686 10.7137 101.686 10.7137ZM202.42 10.7665V48.186H219.67C228.851 48.186 231.877 46.6554 235.061 43.2776C237.343 40.9026 238.829 35.6249 238.829 29.8721C238.829 24.5943 237.609 19.8971 235.38 16.9943C231.505 11.7693 225.826 10.7665 217.334 10.7665C217.281 10.7665 202.42 10.7665 202.42 10.7665ZM212.929 18.8943H217.494C224.128 18.8943 228.427 21.8499 228.427 29.5026C228.427 37.1554 224.128 40.1637 217.494 40.1637H212.929V18.8943ZM169.992 10.7665L161.129 40.4276L152.637 10.7665H141.173L153.274 48.186H168.559L180.819 10.7665H169.992ZM243.765 48.2387H254.38V10.7665H243.765V48.2387ZM273.593 10.7665L258.785 48.186H269.241L271.576 41.536H289.144L291.373 48.1332H302.784L287.817 10.7665H273.593ZM280.44 17.6276L286.915 35.0971H273.858C273.805 35.0971 280.44 17.6276 280.44 17.6276Z" fill="white"/>
<path d="M33.167 16.9944V11.875C33.6977 11.8222 34.1754 11.8222 34.7061 11.8222C48.8769 11.4 58.1649 23.9611 58.1649 23.9611C58.1649 23.9611 48.1339 37.7361 37.3598 37.7361C35.9268 37.7361 34.5469 37.525 33.167 37.05V21.4805C38.6867 22.1667 39.8012 24.5417 43.0918 30.0305L50.4692 23.8555C50.4692 23.8555 45.0556 16.8361 36.033 16.8361C35.0776 16.8361 34.1223 16.8889 33.167 16.9944ZM33.167 0V7.65278L34.7061 7.54722C54.3967 6.86111 67.2406 23.5917 67.2406 23.5917C67.2406 23.5917 52.486 41.4833 37.1475 41.4833C35.8207 41.4833 34.4938 41.3778 33.167 41.1139V45.8639C34.2284 45.9694 35.343 46.075 36.4576 46.075C50.7345 46.075 61.084 38.7917 71.115 30.2417C72.7603 31.5611 79.5538 34.7805 80.9869 36.1528C71.4866 44.0694 49.3015 50.4555 36.7229 50.4555C35.5022 50.4555 34.3877 50.4028 33.22 50.2444V57H87.515V0H33.167ZM33.167 37.1028V41.1667C19.9515 38.7917 16.2893 25.1222 16.2893 25.1222C16.2893 25.1222 22.6582 18.1556 33.167 16.9944V21.4278H33.1139C27.5942 20.7417 23.2421 25.9139 23.2421 25.9139C23.2421 25.9139 25.7366 34.5694 33.167 37.1028ZM9.70813 24.5417C9.70813 24.5417 17.51 13.0361 33.167 11.875V7.70555C15.8117 9.07778 0.844727 23.6444 0.844727 23.6444C0.844727 23.6444 9.33661 48.0805 33.167 50.2972V45.8639C15.6524 43.7 9.70813 24.5417 9.70813 24.5417Z" fill="white"/>
</g>
<defs>
<clipPath id="clip0_4015_766">
<rect width="310.909" height="57" fill="white" transform="translate(0.844727)"/>
</clipPath>
</defs>
</svg>
