<svg width="200" height="37" viewBox="0 0 200 37" fill="none" xmlns="http://www.w3.org/2000/svg">
<g clip-path="url(#clip0_4374_1966)">
<path d="M196.507 29.2672V28.7265H196.847C197.017 28.7265 197.289 28.7603 197.289 28.963C197.289 29.1658 197.153 29.2672 196.915 29.2672H196.507ZM196.507 29.639H196.745L197.289 30.5853H197.867L197.255 29.6052C197.561 29.639 197.799 29.4024 197.833 29.0982V29.0306C197.833 28.4899 197.459 28.3547 196.847 28.3547H195.963V30.6191H196.473V29.639M199.09 29.47C199.09 28.1181 198.037 27.3408 196.881 27.3408C195.725 27.3408 194.672 28.1181 194.672 29.47C194.672 30.8218 195.725 31.5992 196.881 31.5992C198.037 31.5992 199.09 30.8218 199.09 29.47ZM198.444 29.47C198.478 30.3149 197.799 31.0584 196.949 31.0922H196.881C195.997 31.126 195.216 30.4163 195.182 29.5376C195.148 28.6589 195.861 27.8816 196.745 27.8478C197.629 27.814 198.41 28.5237 198.444 29.4024C198.444 29.4362 198.444 29.4362 198.444 29.47Z" fill="#101213"/>
<path d="M118.101 6.89415V30.8557H124.899V6.89415H118.101ZM64.5732 6.86035V30.8557H71.4384V12.234L76.7743 12.2678C78.5416 12.2678 79.7651 12.7071 80.5807 13.5858C81.6683 14.7349 82.0761 16.5599 82.0761 19.9395V30.8895H88.7374V17.6076C88.7374 8.14461 82.6879 6.86035 76.7403 6.86035C76.8083 6.86035 64.5732 6.86035 64.5732 6.86035ZM129.079 6.89415V30.8557H140.125C146.004 30.8557 147.941 29.8756 149.981 27.7127C151.442 26.1918 152.394 22.8122 152.394 19.1284C152.394 15.7488 151.612 12.7409 150.184 10.8821C147.703 7.53628 144.067 6.89415 138.629 6.89415C138.595 6.89415 129.079 6.89415 129.079 6.89415ZM135.808 12.0988H138.731C142.979 12.0988 145.732 13.9914 145.732 18.8918C145.732 23.7923 142.979 25.7187 138.731 25.7187H135.808V12.0988ZM108.313 6.89415L102.638 25.8877L97.2 6.89415H89.859L97.6078 30.8557H107.396L115.247 6.89415H108.313ZM155.554 30.8895H162.351V6.89415H155.554V30.8895ZM174.654 6.89415L165.172 30.8557H171.868L173.363 26.5974H184.612L186.04 30.8219H193.347L183.763 6.89415H174.654ZM179.039 11.2877L183.185 22.4742H174.824C174.79 22.4742 179.039 11.2877 179.039 11.2877Z" fill="#101213"/>
<path d="M20.6976 10.8824V7.60417C21.0374 7.57037 21.3433 7.57037 21.6832 7.57037C30.7575 7.3 36.7051 15.3435 36.7051 15.3435C36.7051 15.3435 30.2817 24.1644 23.3825 24.1644C22.4649 24.1644 21.5812 24.0292 20.6976 23.725V13.7551C24.2321 14.1945 24.9459 15.7153 27.053 19.2301L31.7771 15.2759C31.7771 15.2759 28.3105 10.781 22.5328 10.781C21.9211 10.781 21.3093 10.8148 20.6976 10.8824ZM20.6976 0V4.90047L21.6832 4.83287C34.2921 4.39352 42.5167 15.107 42.5167 15.107C42.5167 15.107 33.0686 26.5639 23.2465 26.5639C22.3969 26.5639 21.5472 26.4963 20.6976 26.3273V29.369C21.3773 29.4366 22.091 29.5042 22.8047 29.5042C31.947 29.5042 38.5743 24.8403 44.9977 19.3653C46.0513 20.2102 50.4015 22.2718 51.3191 23.1505C45.2356 28.2199 31.0294 32.3093 22.9747 32.3093C22.193 32.3093 21.4793 32.2755 20.7316 32.1741V36.5H55.4994V0H20.6976ZM20.6976 23.7588V26.3611C12.235 24.8403 9.88998 16.087 9.88998 16.087C9.88998 16.087 13.9683 11.6259 20.6976 10.8824V13.7213H20.6636C17.129 13.282 14.3422 16.594 14.3422 16.594C14.3422 16.594 15.9395 22.1366 20.6976 23.7588ZM5.67569 15.7153C5.67569 15.7153 10.6717 8.34769 20.6976 7.60417V4.93426C9.5841 5.81297 0 15.1407 0 15.1407C0 15.1407 5.43779 30.7884 20.6976 32.2079V29.369C9.48214 27.9834 5.67569 15.7153 5.67569 15.7153Z" fill="#101213"/>
</g>
<defs>
<clipPath id="clip0_4374_1966">
<rect width="199.091" height="36.5" fill="white"/>
</clipPath>
</defs>
</svg>
