<svg width="182" height="182" viewBox="0 0 182 182" fill="none" xmlns="http://www.w3.org/2000/svg">
<path d="M67.3047 3.58936C79.6182 0.289962 92.2278 4.73883 100.754 13.7007C111.306 7.24261 124.645 6.21897 135.681 12.5903H135.68C146.724 18.9602 152.496 31.0195 152.181 43.3921C164.206 46.2944 174.365 54.9908 177.665 67.3052C180.964 79.6173 176.525 92.2325 167.553 100.755C174.011 111.307 175.034 124.646 168.663 135.681L168.662 135.68C162.292 146.724 150.233 152.497 137.86 152.181C134.958 164.206 126.263 174.366 113.948 177.666C101.636 180.964 89.0199 176.526 80.4971 167.553C69.9452 174.011 56.6072 175.035 45.5723 168.664V168.663C34.5285 162.293 28.7544 150.233 29.0703 137.861C17.0459 134.958 6.88826 126.262 3.58887 113.949C0.28943 101.635 4.73796 89.0246 13.7002 80.4985C7.34793 70.1187 6.25375 57.0426 12.2842 46.1147L12.5898 45.5728C18.9598 34.5291 31.0192 28.7553 43.3916 29.0708C46.2944 17.0465 54.9911 6.88883 67.3047 3.58936Z" fill="#101213" stroke="white" stroke-width="5"/>
<path d="M47.9927 114.632C47.6669 114.75 47.3719 114.68 47.1075 114.422C46.8431 114.163 46.565 113.633 46.2732 112.831C45.8628 111.703 45.4984 110.488 45.1802 109.185C44.87 107.865 44.5671 106.428 44.2716 104.876C44.0605 103.633 44.2419 102.553 44.8158 101.634C45.4021 100.711 46.3052 99.801 47.525 98.9029C48.2858 98.3423 49.0847 97.789 49.9218 97.2431C50.7589 96.6972 51.5556 96.2157 52.3119 95.7985C53.0761 95.3643 53.7214 95.0514 54.2476 94.8599C54.6485 94.7139 54.9845 94.6626 55.2557 94.7058C55.5268 94.749 55.7404 94.8486 55.8965 95.0046C56.0606 95.1435 56.17 95.2882 56.2247 95.4385C56.3114 95.6766 56.3325 95.9101 56.2882 96.1391C56.2438 96.3681 56.0519 96.6011 55.7125 96.8381C55.5679 96.9475 55.2553 97.1606 54.7746 97.4774C54.302 97.7772 53.7194 98.1453 53.0269 98.5818C52.347 99.0137 51.6278 99.4742 50.8692 99.9631C50.1062 100.439 49.3704 100.913 48.662 101.384C47.9798 101.887 47.5163 102.368 47.2715 102.826C47.0347 103.267 46.9694 103.809 47.0755 104.451C47.0961 104.586 47.1348 104.77 47.1919 105.005C47.6463 104.655 48.1497 104.323 48.7021 104.008C49.2545 103.694 49.7721 103.42 50.2551 103.188C50.738 102.955 51.0985 102.795 51.3365 102.709C51.5871 102.618 51.8662 102.566 52.1738 102.553C52.4893 102.523 52.7769 102.553 53.0367 102.643C53.3044 102.716 53.4816 102.872 53.5682 103.11C53.6503 103.335 53.6379 103.574 53.5309 103.826C53.4193 104.065 53.1238 104.364 52.6443 104.723C52.5452 104.802 52.3066 104.945 51.9285 105.154C51.5629 105.358 51.1289 105.608 50.6267 105.904C50.1323 106.184 49.6301 106.48 49.1198 106.793C48.6221 107.102 48.1893 107.394 47.8215 107.67C47.98 108.379 48.1448 109.085 48.3159 109.789C48.487 110.493 48.6387 111.105 48.771 111.624C48.8987 112.131 48.9728 112.451 48.9934 112.586C49.0869 113.077 49.0375 113.506 48.8451 113.874C48.6527 114.242 48.3686 114.495 47.9927 114.632ZM61.8837 110.129C61.1069 110.412 60.3824 110.37 59.7102 110.005C59.0334 109.627 58.4739 108.83 58.0315 107.615C57.7488 106.838 57.5538 106.029 57.4464 105.189C57.3471 104.331 57.3326 103.492 57.403 102.672C57.4813 101.834 57.6395 101.06 57.8773 100.349C58.1277 99.634 58.4653 99.0216 58.89 98.5123C59.3102 97.9905 59.8085 97.6246 60.3849 97.4149C61.3621 97.0592 62.2222 97.0441 62.965 97.3697C63.7078 97.6953 64.2274 98.2652 64.5239 99.0796C64.7519 99.7061 64.7839 100.34 64.6201 100.981C64.4642 101.606 64.1648 102.225 63.7219 102.841C63.2789 103.456 62.7534 104.059 62.1453 104.649C61.5371 105.239 60.8988 105.805 60.2303 106.346C60.3318 106.82 60.4464 107.233 60.5741 107.583C60.6516 107.796 60.8094 107.86 61.0475 107.773C61.6113 107.568 62.1808 107.261 62.7559 106.853C63.339 106.428 63.9102 105.951 64.4693 105.421C65.0239 104.878 65.5512 104.339 66.0511 103.802C66.5465 103.253 66.9923 102.743 67.3886 102.272C67.7929 101.785 68.1259 101.394 68.3879 101.1C68.6577 100.789 68.8428 100.615 68.943 100.579C69.2187 100.478 69.4488 100.487 69.6334 100.604C69.8179 100.721 69.9444 100.874 70.0128 101.062C70.0448 101.15 69.9463 101.405 69.7174 101.829C69.5011 102.248 69.18 102.77 68.7542 103.393C68.3363 103.999 67.8501 104.651 67.2955 105.35C66.7489 106.031 66.1642 106.705 65.5413 107.372C64.9263 108.021 64.3028 108.589 63.6707 109.074C63.0557 109.568 62.4601 109.919 61.8837 110.129ZM59.941 104.557C60.3452 104.07 60.7387 103.572 61.1213 103.064C61.5118 102.538 61.801 102.007 61.9888 101.471C62.1721 100.922 62.1611 100.365 61.9559 99.8015C61.8966 99.6386 61.814 99.5481 61.708 99.5299C61.5975 99.4991 61.4608 99.5134 61.2979 99.5727C60.8594 99.7323 60.5292 100.072 60.3072 100.593C60.0977 101.109 59.9669 101.724 59.9147 102.439C59.8705 103.136 59.8793 103.842 59.941 104.557ZM71.7889 106.609C71.3879 106.755 70.9835 106.774 70.5757 106.667C70.1724 106.573 69.813 106.385 69.4973 106.102C69.1771 105.807 68.9418 105.453 68.7913 105.04C68.5086 104.263 68.4018 103.443 68.4711 102.581C68.5528 101.714 68.7548 100.846 69.0769 99.9765C69.399 99.1072 69.7918 98.2761 70.2552 97.4831C70.7265 96.6731 71.2213 95.9467 71.7394 95.3041C72.2701 94.6569 72.77 94.1202 73.2392 93.694C73.7209 93.2633 74.1184 92.9909 74.4316 92.8769C74.795 92.7447 75.119 92.7189 75.4039 92.7997C75.6966 92.8634 75.9023 93.0582 76.0209 93.3839C76.0574 93.4842 76.0619 93.5747 76.0346 93.6556C76.2112 93.6339 76.3769 93.68 76.5319 93.7939C76.6869 93.9077 76.8191 94.115 76.9285 94.4157C76.9741 94.541 77.0614 94.8782 77.1902 95.4272C77.3191 95.9762 77.4828 96.6403 77.6812 97.4194C77.8922 98.194 78.1459 98.9885 78.4423 99.8029C78.4879 99.9282 78.5478 100.034 78.6218 100.121C78.6913 100.195 78.7887 100.209 78.914 100.163C79.4152 99.9809 79.8861 99.6959 80.3269 99.3085C80.7756 98.904 81.1895 98.4624 81.5687 97.9839C81.9559 97.4882 82.2952 97.0171 82.5867 96.5705C82.8862 96.1067 83.1372 95.7245 83.3399 95.4237C83.5506 95.1058 83.6997 94.9309 83.7874 94.899C84.2134 94.7439 84.504 94.8794 84.659 95.3054C84.7 95.4182 84.6489 95.7064 84.5055 96.1701C84.37 96.6166 84.1549 97.1561 83.8601 97.7884C83.5606 98.4082 83.2048 99.0485 82.7927 99.7093C82.3885 100.353 81.9318 100.931 81.4228 101.442C80.9263 101.949 80.3961 102.306 79.8323 102.511C79.1432 102.762 78.5577 102.79 78.0758 102.597C77.6064 102.399 77.1962 102.051 76.8452 101.555C76.5021 101.041 76.1967 100.436 75.9288 99.7387C75.6227 100.886 75.255 101.942 74.8259 102.907C74.4047 103.855 73.9373 104.656 73.4237 105.312C72.9102 105.967 72.3652 106.399 71.7889 106.609ZM75.0149 94.7717C74.0013 95.8075 73.145 96.8854 72.4459 98.0054C71.7422 99.1128 71.2527 100.185 70.9774 101.222C70.7145 102.254 70.7222 103.152 71.0004 103.916C71.0779 104.129 71.2169 104.199 71.4173 104.126C71.6554 104.04 71.9185 103.788 72.2066 103.371C72.5072 102.949 72.8072 102.429 73.1066 101.809C73.4014 101.176 73.678 100.494 73.9364 99.7615C74.1902 99.0164 74.4082 98.2702 74.5902 97.5229C74.7722 96.7755 74.882 96.0829 74.9194 95.445C74.9341 95.2126 74.9659 94.9882 75.0149 94.7717ZM95.0306 86.614C95.0853 86.7643 95.0831 86.9141 95.0239 87.0633C94.9647 87.2126 94.8713 87.3459 94.7438 87.4633C94.5627 87.6285 94.2341 87.8758 93.7581 88.2051C93.282 88.5345 92.7 88.9237 92.0121 89.3727C91.3367 89.8172 90.6072 90.2884 89.8236 90.7865C89.0355 91.272 88.2451 91.7512 87.4524 92.2242C87.5644 93.5456 87.6838 94.9068 87.8107 96.3079C87.933 97.6965 88.0485 99.0663 88.1571 100.417C88.1914 100.901 88.1619 101.288 88.0686 101.578C87.9798 101.879 87.7224 102.108 87.2964 102.263C86.8328 102.432 86.4649 102.395 86.1926 102.154C85.9373 101.92 85.7749 101.533 85.7052 100.99C85.5339 99.5062 85.3718 98.125 85.2187 96.8469C85.0782 95.5643 84.9635 94.5277 84.8744 93.7372C84.1682 94.1361 83.5469 94.4757 83.0105 94.7561C82.4694 95.024 82.0776 95.195 81.835 95.2691C81.5628 95.3398 81.3048 95.3131 81.0609 95.189C80.8171 95.0649 80.6513 94.8627 80.5635 94.5825C80.4974 94.3228 80.5326 94.0688 80.6692 93.8204C80.8013 93.5595 80.9983 93.3601 81.2603 93.2222C81.635 93.0432 82.1157 92.8045 82.7022 92.5058C83.2888 92.2072 83.9335 91.8732 84.6362 91.5039C84.5665 90.8057 84.515 90.0795 84.4818 89.3254C84.444 88.5587 84.4238 87.8212 84.4213 87.1126C84.4268 86.387 84.4494 85.7473 84.4891 85.1937C84.5288 84.6401 84.5976 84.2248 84.6955 83.948C84.774 83.7349 84.8976 83.5481 85.0661 83.3874C85.2472 83.2222 85.438 83.1031 85.6384 83.0301C85.9015 82.9344 86.1487 82.9508 86.38 83.0795C86.6113 83.2081 86.7726 83.3977 86.8638 83.6483C86.9002 83.7486 86.9327 83.8573 86.9613 83.9747C86.9852 84.0795 86.9966 84.1888 86.9955 84.3027C86.9855 85.0158 87.0045 85.8673 87.0527 86.8572C87.1133 87.8426 87.1934 88.9202 87.2928 90.0901C88.1824 89.6102 89.0531 89.1372 89.905 88.6711C90.765 88.1878 91.5417 87.749 92.2353 87.3547C92.9369 86.9432 93.495 86.6053 93.9096 86.3409C94.1282 86.162 94.3481 86.1033 94.5691 86.1647C94.7855 86.2136 94.9394 86.3634 95.0306 86.614ZM102.726 96.5619C102.438 96.6668 102.131 96.6435 101.807 96.4921C101.499 96.3487 101.247 96.0076 101.051 95.4688C100.905 95.0679 100.734 94.4989 100.536 93.762C100.347 93.0079 100.145 92.0243 99.9305 90.8112C99.8204 91.8729 99.6549 92.8412 99.4342 93.7162C99.2134 94.5911 98.9442 95.3134 98.6266 95.8831C98.3169 96.4356 97.9553 96.7872 97.5418 96.9376C96.8778 97.1793 96.2786 97.1704 95.7443 96.9108C95.2054 96.6387 94.7307 95.9389 94.3203 94.8112C94.1242 94.2725 93.9469 93.6489 93.7883 92.9404C93.6423 92.2273 93.5213 91.5051 93.4254 90.7738C93.3295 90.0425 93.261 89.3864 93.2198 88.8054C93.1866 88.2074 93.1848 87.754 93.2143 87.4453C93.2324 87.1833 93.2939 86.9623 93.3986 86.7823C93.5159 86.5977 93.6998 86.4598 93.9504 86.3686C94.3514 86.2227 94.7062 86.2425 95.015 86.4281C95.3237 86.6137 95.5283 86.8443 95.6286 87.1199C95.7061 87.3329 95.7677 87.6581 95.8134 88.0956C95.8717 88.5284 95.9208 89.0142 95.9608 89.553C96.0134 90.0873 96.0642 90.6363 96.1134 91.2002C96.1625 91.7641 96.2191 92.2898 96.283 92.7773C96.3595 93.2603 96.4547 93.6584 96.5687 93.9716C96.7101 94.36 96.9311 94.4995 97.2318 94.39C97.4072 94.3262 97.5712 94.075 97.7237 93.6364C97.8888 93.1932 98.0253 92.6327 98.1333 91.9549C98.2493 91.2599 98.347 90.5149 98.4265 89.7198C98.514 88.9075 98.5679 88.1004 98.5882 87.2985C98.6164 86.4794 98.6213 85.7327 98.6029 85.0583C98.5914 84.6369 98.6647 84.3122 98.823 84.0843C98.9813 83.8564 99.1982 83.6923 99.4739 83.592C99.8999 83.437 100.269 83.4374 100.581 83.5934C100.906 83.7448 101.148 84.0398 101.308 84.4783C101.381 84.6788 101.472 85.0285 101.583 85.5274C101.694 86.0263 101.815 86.6135 101.947 87.2889C102.092 87.9599 102.232 88.6752 102.367 89.435C102.501 90.1947 102.631 90.942 102.757 91.6767C102.895 92.4068 103.013 93.0806 103.11 93.698C103.202 94.3028 103.272 94.7881 103.32 95.1538C103.377 95.7005 103.336 96.056 103.197 96.22C103.059 96.3841 102.901 96.4981 102.726 96.5619ZM108.181 93.4911C107.868 93.6051 107.557 93.5904 107.249 93.4469C106.954 93.2989 106.729 93.0119 106.574 92.5859C106.506 92.398 106.419 92.0819 106.314 91.6377C106.217 91.1763 106.11 90.6478 105.993 90.0521C105.888 89.4518 105.767 88.8287 105.631 88.1828C105.508 87.5324 105.378 86.9202 105.24 86.3461C105.114 85.7674 104.993 85.2794 104.877 84.8818C104.729 84.3966 104.731 84.0127 104.883 83.7302C105.031 83.4351 105.262 83.2305 105.575 83.1165C105.826 83.0253 106.074 83.0059 106.32 83.0582C106.574 83.0934 106.795 83.2899 106.982 83.6475C107.177 83.9881 107.374 84.512 107.575 85.2194C107.762 84.0164 107.993 82.9176 108.27 81.923C108.559 80.9239 108.932 80.0786 109.39 79.387C110.142 78.2191 110.938 77.4824 111.778 77.1769C112.254 77.0036 112.606 76.9961 112.834 77.1544C113.062 77.3127 113.217 77.5046 113.299 77.7301C113.354 77.8804 113.366 78.0319 113.337 78.1846C113.32 78.3327 113.23 78.5144 113.067 78.7298C112.904 78.9451 112.644 79.2453 112.288 79.6305C111.808 80.1455 111.369 80.7522 110.971 81.4506C110.585 82.1445 110.249 82.9762 109.964 83.9457C109.678 84.9152 109.45 86.0623 109.279 87.3872C109.109 88.7121 108.997 90.2568 108.944 92.0214C108.986 92.4884 108.926 92.8296 108.763 93.0449C108.613 93.2557 108.419 93.4044 108.181 93.4911ZM119.146 89.2871C118.369 89.5699 117.645 89.5285 116.973 89.163C116.296 88.785 115.736 87.9884 115.294 86.773C115.011 85.9962 114.816 85.1875 114.709 84.3468C114.61 83.4891 114.595 82.6501 114.666 81.8299C114.744 80.9926 114.902 80.2185 115.14 79.5076C115.39 78.7922 115.728 78.1798 116.153 77.6705C116.573 77.1486 117.071 76.7828 117.647 76.573C118.625 76.2173 119.485 76.2023 120.228 76.5278C120.97 76.8534 121.49 77.4234 121.786 78.2378C122.014 78.8643 122.046 79.4982 121.883 80.1396C121.727 80.7639 121.427 81.3836 120.984 81.9989C120.541 82.6142 120.016 83.2169 119.408 83.8072C118.8 84.3975 118.161 84.9632 117.493 85.5045C117.594 85.9784 117.709 86.3907 117.837 86.7415C117.914 86.9545 118.072 87.0177 118.31 86.9311C118.874 86.7258 119.443 86.4192 120.018 86.0113C120.602 85.5862 121.173 85.1087 121.732 84.5789C122.286 84.0365 122.814 83.4969 123.314 82.9602C123.809 82.411 124.255 81.9011 124.651 81.4305C125.055 80.9429 125.388 80.552 125.65 80.2581C125.92 79.947 126.105 79.7732 126.206 79.7367C126.481 79.6364 126.711 79.6449 126.896 79.7622C127.08 79.8794 127.207 80.0321 127.275 80.22C127.307 80.3077 127.209 80.5635 126.98 80.9873C126.764 81.4066 126.443 81.9278 126.017 82.5511C125.599 83.1572 125.113 83.8095 124.558 84.508C124.011 85.1893 123.427 85.8633 122.804 86.5299C122.189 87.1794 121.565 87.7469 120.933 88.2323C120.318 88.7258 119.723 89.0774 119.146 89.2871ZM117.204 83.7156C117.608 83.2279 118.001 82.73 118.384 82.2218C118.774 81.6966 119.064 81.1656 119.251 80.629C119.435 80.0799 119.424 79.5234 119.218 78.9596C119.159 78.7967 119.076 78.7062 118.971 78.688C118.86 78.6573 118.723 78.6716 118.56 78.7309C118.122 78.8905 117.792 79.2306 117.57 79.7512C117.36 80.2673 117.229 80.8825 117.177 81.5968C117.133 82.2939 117.142 83.0002 117.204 83.7156ZM132.093 72.4646C132.185 70.5724 132.177 68.6598 132.069 66.7267C132.042 66.3394 132.088 66.0176 132.207 65.7613C132.339 65.5004 132.581 65.3061 132.931 65.1784C133.22 65.0735 133.471 65.0814 133.685 65.2021C133.895 65.3102 134.052 65.5084 134.157 65.7966C134.243 66.0346 134.298 66.4971 134.321 67.184C134.34 67.8584 134.374 68.7116 134.423 69.7436C134.472 70.7757 134.574 71.9518 134.728 73.272C134.882 74.5922 135.124 76.0155 135.452 77.5419C135.781 79.0682 136.246 80.6584 136.848 82.3122C137.012 82.7633 137.059 83.1648 136.988 83.5168C136.935 83.8768 136.701 84.132 136.288 84.2825C135.837 84.4467 135.448 84.4109 135.121 84.1752C134.806 83.935 134.56 83.5705 134.382 83.0819C134.031 82.1171 133.771 81.3038 133.601 80.642C133.439 79.9632 133.311 79.3783 133.217 78.8873C132.987 80.1632 132.666 81.3087 132.255 82.3238C131.852 83.3218 131.41 84.1353 130.929 84.7643C130.454 85.4057 129.99 85.8086 129.539 85.9727C128.8 86.2418 128.123 86.2539 127.509 86.0092C126.895 85.7645 126.435 85.2224 126.13 84.3829C125.892 83.7314 125.805 83.0041 125.868 82.201C125.925 81.3853 126.088 80.5457 126.355 79.6822C126.623 78.8186 126.956 77.9807 127.356 77.1684C127.764 76.3389 128.199 75.5847 128.661 74.9056C129.119 74.214 129.569 73.6386 130.012 73.1794C130.455 72.7202 130.846 72.4291 131.184 72.3059C131.56 72.1691 131.863 72.222 132.093 72.4646ZM132.03 73.6368C131.973 73.7143 131.91 73.794 131.84 73.8761C131.779 73.941 131.72 74.0122 131.663 74.0897C131.296 74.5637 130.921 75.1117 130.537 75.7338C130.149 76.3434 129.785 77.0008 129.446 77.706C129.102 78.3987 128.811 79.1005 128.573 79.8114C128.344 80.5052 128.195 81.1694 128.128 81.8039C128.069 82.4213 128.128 82.9744 128.306 83.463C128.338 83.5507 128.399 83.5997 128.487 83.6099C128.576 83.6201 128.652 83.6138 128.715 83.591C129.153 83.4314 129.552 83.0662 129.912 82.4954C130.284 81.92 130.608 81.192 130.884 80.3114C131.167 79.4136 131.401 78.3992 131.585 77.2679C131.782 76.1321 131.93 74.9218 132.03 73.6368Z" fill="white"/>
</svg>
